<svg width="80" height="28" viewBox="0 0 80 28" fill="none" xmlns="http://www.w3.org/2000/svg">
<path fill-rule="evenodd" clip-rule="evenodd" d="M28.0343 25.5013C28.0343 26.0361 28.1929 26.3035 28.6686 26.3035C29.6837 26.3035 30.6357 24.2652 30.858 23.6966L31.1751 23.8306C31.0165 24.2984 29.8741 27.373 27.5262 27.373C26.2258 27.373 25.7501 26.5709 25.7501 25.7355C25.7501 25.0792 25.9018 24.4493 26.0472 23.8459L26.0473 23.8455C26.0647 23.7732 26.0821 23.7012 26.099 23.6296L31.619 0.935799H29.557L29.6519 0.534416H34.0618L28.1611 24.4655C28.0662 24.8663 28.0343 25.1669 28.0343 25.5013ZM53.6688 26.3035C53.0975 26.3035 52.9708 25.9697 52.9708 25.5345C52.9708 25.2007 53.0339 24.8331 53.1294 24.4655L55.1596 16.1765L55.1889 16.0586L55.2119 15.9666L55.212 15.9665L55.212 15.9664L55.212 15.9663C55.3834 15.2825 55.5404 14.6562 55.5404 13.8369C55.5404 12.8344 54.9061 11.5644 53.0975 11.5644C51.0355 11.5644 49.9249 13.3359 49.4811 14.1043L50.0204 11.8318H45.6736L45.5468 12.2326H47.6089L43.9924 27.0725H46.2766L48.7513 17.0112C49.3219 14.7387 50.6547 12.3992 52.1774 12.3992C53.0975 12.3992 53.3829 13.0342 53.3829 13.6359C53.3829 14.0964 53.2653 14.5816 53.1314 15.1341C53.1098 15.2232 53.0877 15.3141 53.0657 15.4069L51.0674 23.629C50.94 24.1638 50.7184 25.0993 50.7184 25.7349C50.7184 26.6379 51.289 27.373 52.5582 27.373C54.7049 27.373 55.8432 24.5688 56.1041 23.9261C56.1208 23.885 56.1339 23.8527 56.1434 23.8306L55.8263 23.6966C55.8092 23.7325 55.7906 23.772 55.7705 23.8148L55.7702 23.8154C55.4157 24.5685 54.5989 26.3035 53.6688 26.3035ZM68.9282 11.8298H62.5199L63.7573 6.68235H61.4724L60.2351 11.8298H58.1412L58.0463 12.2306H60.1402L57.3796 23.6281C57.3633 23.6938 57.3466 23.7598 57.3298 23.8262L57.3298 23.8264L57.3296 23.8272C57.1841 24.4027 57.0312 25.0077 57.0312 25.6665C57.0312 26.5694 57.6025 27.371 58.871 27.371C61.1553 27.371 62.2971 24.1961 62.4244 23.8285L62.1073 23.6945C61.8851 24.2293 60.9967 26.3014 59.9179 26.3014C59.4741 26.3014 59.2837 26.0346 59.2837 25.4999C59.2837 25.1655 59.3467 24.8311 59.4422 24.4635L62.3926 12.2306H66.5803L63.7885 23.6281C63.6299 24.2293 63.4401 24.9645 63.4401 25.6001C63.4401 26.5356 64.0107 27.371 65.3117 27.371C67.5954 27.371 68.7378 24.1961 68.8645 23.8285L68.5474 23.6945L68.5386 23.7145C68.3017 24.2494 67.3932 26.3014 66.3899 26.3014C65.8193 26.3014 65.7238 25.9677 65.7238 25.4661C65.7238 25.1317 65.7874 24.8317 65.8823 24.4641L68.9282 11.8298ZM43.7371 11.8298L40.66 24.4635C40.5651 24.8311 40.5014 25.1655 40.5014 25.3991C40.4689 25.9677 40.66 26.3014 41.1357 26.3014C42.2417 26.3014 43.0958 24.2461 43.3223 23.7011L43.325 23.6945L43.6422 23.8285C43.6365 23.8435 43.629 23.8642 43.6195 23.8902L43.6188 23.8922L43.6186 23.8928L43.6185 23.893L43.6184 23.8934C43.4148 24.4549 42.3574 27.371 40.0887 27.371C38.8514 27.371 38.2171 26.5356 38.249 25.6001C38.249 25.2325 38.312 24.7309 38.3439 24.5969C37.9312 25.5331 36.8212 27.371 35.0764 27.371C33.236 27.371 32.0617 26.0009 32.1578 23.4609C32.2209 21.0876 33.2678 17.5784 33.7754 16.1744C34.6319 13.8349 35.9641 11.4954 38.661 11.4954C40.5649 11.4954 40.9346 12.9347 41.0516 13.3901C41.0594 13.4204 41.0661 13.4464 41.072 13.4673L41.4534 11.8298H43.7371ZM38.8519 22.2588C38.1221 24.6979 36.9803 26.5702 35.6162 26.5702C34.6642 26.5702 34.2203 25.9684 34.2515 24.6315C34.347 21.657 35.997 16.343 36.3772 15.1726C37.0121 13.2007 37.9005 12.0647 39.0423 12.0647C40.0892 12.0647 40.5974 13.0335 40.5655 14.1369C40.5018 15.7744 39.7721 19.0501 38.8519 22.2582V22.2588ZM68.8322 6.14905C68.0706 6.14905 67.5312 6.78344 67.5312 7.6864C67.5312 8.42157 68.0076 9.02335 68.7055 9.02335C69.4353 9.02335 70.0059 8.38837 70.0059 7.51921C70.0059 6.75083 69.5302 6.14905 68.8322 6.14905ZM71.3387 16.1412C72.1639 13.5351 73.5909 11.4957 76.3198 11.4954C78.8581 11.4954 79.3969 13.2337 79.3969 14.2357C79.3969 15.205 78.953 15.8068 78.2551 15.8068C77.6845 15.8068 77.24 15.339 77.24 14.7035C77.24 14.3608 77.3537 14.0979 77.4699 13.8289C77.5917 13.5472 77.7163 13.2589 77.7163 12.8655C77.7163 12.3307 77.2082 11.93 76.3829 11.93C75.1143 11.93 74.5749 13.1999 73.7184 15.907C73.0205 18.1137 72.227 20.9204 72.227 23.6275C72.227 25.4999 72.8937 26.5018 74.1311 26.5018C76.0657 26.5018 77.1763 23.7615 77.589 22.7252L78.001 22.9262C77.9891 22.9555 77.9727 22.9987 77.9519 23.0538L77.9517 23.0544L77.9517 23.0545C77.64 23.8792 76.3204 27.371 73.4962 27.371C70.6101 27.371 69.9434 25.0647 69.9434 23.5273C69.9434 20.5196 70.7993 17.8131 71.3387 16.1412ZM22.1646 26.302C21.752 26.302 21.4985 26.0346 21.4985 25.4999C21.4985 25.2325 21.5622 24.8317 21.6571 24.4641L24.6393 12.2311H27.0821L27.177 11.8304H24.7348L26.0033 6.68235H23.7191L22.4499 11.8298H20.5783L20.4834 12.2306H22.355L19.5951 23.6275C19.577 23.6995 19.5586 23.7715 19.5401 23.8437L19.5401 23.8437C19.3953 24.4095 19.2461 24.9927 19.2461 25.7335C19.2461 26.5356 19.7218 27.371 21.0222 27.371C23.2506 27.371 24.3138 24.7173 24.6127 23.9713C24.6373 23.91 24.6567 23.8615 24.6711 23.8285L24.354 23.6945C24.1317 24.2293 23.2115 26.3014 22.1646 26.3014V26.302ZM1.85835 8.58994H2.61997L2.55751 8.82413H0.208984L0.272653 8.58994H0.970602L2.77854 1.13681H2.39833C1.54181 1.13681 1.35081 1.4706 0.875099 2.74115H0.684695L1.12917 0.90262H5.38054L4.93606 2.74115H4.74565C4.99913 1.23701 4.80932 1.13681 3.98404 1.13681H3.6669L1.85835 8.58994ZM4.33398 8.82354H4.33413L6.20559 1.13681H5.66561L5.72988 0.902626H7.06151L6.23743 4.2785C6.36356 4.07751 6.80804 3.44313 7.47476 3.44313C8.10844 3.44313 8.33067 3.87712 8.33067 4.24471C8.33067 4.54589 8.26821 4.81328 8.20454 5.08067L7.57026 7.58738C7.53842 7.72137 7.47415 8.05517 7.47415 8.22236C7.47415 8.42275 7.53782 8.48975 7.66516 8.48975C8.01413 8.48975 8.29944 7.85477 8.39434 7.62118L8.55351 7.68758C8.54829 7.7004 8.5423 7.71552 8.53552 7.73265C8.41838 8.02845 8.06386 8.92374 7.28375 8.92374C6.83987 8.92374 6.6813 8.62315 6.6813 8.28876C6.6813 8.05457 6.77681 7.62058 6.80804 7.51979L7.44232 4.94668C7.50599 4.71309 7.57026 4.4451 7.57026 4.24471C7.57026 4.07751 7.47476 3.84333 7.15701 3.84333C6.64947 3.84333 6.17376 4.6123 5.95152 5.48146L5.12684 8.82354H4.33413L4.33398 8.82414V8.82354ZM11.8209 7.38639C11.7254 7.65379 11.2178 8.92374 10.1709 8.92374V8.92315C9.2189 8.92315 8.93359 8.28876 8.93359 7.55359C8.93359 5.54727 10.2658 3.44254 11.5032 3.44254C12.1699 3.44254 12.4552 3.81012 12.4552 4.34431C12.4552 5.54786 10.8052 6.41703 9.82195 6.65063C9.75828 6.95122 9.69521 7.31881 9.69521 7.68639C9.69521 8.22177 9.91685 8.52236 10.3295 8.52236C11.0274 8.52236 11.4401 7.75398 11.6305 7.2856L11.8209 7.38639ZM11.5029 3.67503C11.7888 3.67503 11.8837 3.80902 11.8837 4.07641C11.8837 4.94558 11.0272 6.04834 9.88477 6.38272C10.1707 4.97878 10.9005 3.67503 11.5029 3.67503ZM18.736 0L1.50898 26.6714H0.11327L0.0175781 27.0727H4.33263L4.42758 26.6714H2.01645L8.62414 16.4443H14.7903L13.6918 26.6714H11.661L11.566 27.0727H17.8477L17.9432 26.6714H16.1664L19.0221 0H18.736ZM14.8386 16.0094H8.90625L15.9458 5.11328H16.0095L14.8386 16.0094Z" fill="#C3C5D6"/>
</svg>
