<svg width="206" height="36" viewBox="0 0 206 36" fill="none" xmlns="http://www.w3.org/2000/svg">
<path d="M35.9124 18.0009C35.9124 27.9418 27.8729 36 17.9553 36C8.03926 36 0 27.9411 0 18.0009C0 8.05886 8.03982 0 17.9553 0C27.8726 0 35.9124 8.05872 35.9124 18.0009Z" fill="#C3C5D6"/>
<path d="M135.26 7.63672C127.664 7.63672 124.056 13.406 124.056 18.576C124.056 23.7162 127.664 29.4549 135.26 29.4549C142.883 29.4549 146.495 23.7162 146.495 18.576C146.495 13.406 142.883 7.63672 135.26 7.63672ZM107.736 8.05425V12.9268H112.767V29.0378H118.615V12.9268H123.645V8.05471L107.736 8.05425ZM174.254 8.05425L166.658 29.0374H172.592L173.522 26.0172H181.235L182.197 29.0374H188.275L180.68 8.05425H174.254ZM184.265 8.05425L191.888 21.5636V29.0374H198.052V21.5636L205.679 8.05425H199.452L196.688 13.2256C196.106 14.3311 195.288 16.0063 195.117 17.1104H194.999C194.828 16.0063 194.01 14.3311 193.428 13.2256L190.664 8.05471L184.265 8.05425ZM148.591 8.05564V29.0378H156.123C163.222 29.0378 167.471 24.9739 167.471 18.5486C167.471 12.0004 163.339 8.05564 156.123 8.05564H148.591ZM135.233 12.8679C138.087 12.8679 140.467 14.8108 140.467 18.5764C140.467 22.311 138.087 24.227 135.233 24.227C132.438 24.227 130.053 22.311 130.053 18.5764C130.053 14.8108 132.438 12.8679 135.233 12.8679ZM154.439 12.8976H155.689C159.442 12.8976 161.447 14.7505 161.447 18.5481C161.447 22.343 159.442 24.194 155.689 24.194H154.439V12.8976ZM177.307 13.0446H177.483C177.6 13.9433 177.862 15.1982 178.183 16.1872L179.754 21.2393H175.04L176.611 16.1872C176.927 15.1982 177.189 13.9433 177.307 13.0446Z" fill="#C3C5D6"/>
<path d="M75.7356 7.63672C71.4834 7.63672 68.4742 10.2966 68.4742 14.2716C68.4742 17.8871 70.9604 19.4703 73.7766 20.3981C75.8727 21.086 77.1201 21.5021 77.1201 22.968C77.1201 24.195 76.2585 24.8523 74.8225 24.8523C72.9193 24.8523 71.2647 23.6856 70.266 22.4021L67.5869 26.4049C68.7786 27.8104 71.5391 29.4549 75.1012 29.4549C79.9363 29.4549 82.6111 26.435 82.6111 22.4021C82.6111 18.5458 80.1807 16.9904 77.0344 15.9151C75.4312 15.3761 73.9695 15.0185 73.9695 13.7043C73.9695 12.8679 74.5782 12.2393 76.0142 12.2393C77.6688 12.2393 79.0233 13.0771 79.8206 14.0624L82.3368 10.0559C80.9308 8.622 78.689 7.63672 75.7356 7.63672ZM90.0696 8.05421L82.864 29.0356H88.4964L89.3795 26.0171H96.6965L97.6095 29.036H103.383L96.1736 8.05468L90.0696 8.05421ZM48.9707 8.0556V21.4144C48.9707 26.5853 51.8727 29.4549 57.5308 29.4549C63.0304 29.4549 66.0952 26.5853 66.0952 21.4144V8.05514H60.5442V19.6819C60.5442 21.9818 60.3213 24.2246 57.5308 24.2246C54.7446 24.2246 54.5217 21.9818 54.5217 19.6819V8.05514L48.9707 8.0556ZM92.9716 13.0451H93.1344C93.2459 13.9418 93.4945 15.1989 93.7989 16.1842L95.2905 21.2354H90.8154L92.3072 16.1837C92.6115 15.1989 92.8601 13.9418 92.9716 13.0451Z" fill="#C3C5D6"/>
</svg>
