<svg width="126" height="32" viewBox="0 0 126 32" fill="none" xmlns="http://www.w3.org/2000/svg">
<path fill-rule="evenodd" clip-rule="evenodd" d="M71.3118 0.26679C68.1194 0.864224 65.8059 2.48824 64.4598 5.07674C62.5791 8.69375 62.6699 11.9892 64.6953 13.5994C66.4414 14.9878 66.4436 14.9882 72.4859 14.9882H77.9542L77.7871 14.3991C77.349 12.8556 76.4835 12.0588 73.4674 10.4234C69.9832 8.53401 69.6592 8.15843 70.1098 6.53189C70.5282 5.02161 72.0901 4.12255 73.1154 4.80151C73.5884 5.11478 73.6076 5.19436 73.5172 6.47327L73.4221 7.81604L76.4219 7.76286L79.4217 7.70948L79.6665 6.54489C80.1778 4.1142 79.5488 1.97602 78.0376 1.00747C76.4605 -0.00300594 74.1272 -0.260186 71.3118 0.26679ZM101.286 0.673426C101.13 0.925365 97.7854 14.3179 97.772 14.7455C97.7662 14.9297 98.4996 14.9882 100.82 14.9882H103.875L105.615 7.87505C106.573 3.96281 107.31 0.687401 107.255 0.596369C107.084 0.317838 101.461 0.390625 101.286 0.673426ZM109.77 0.673426C109.606 1.15246 108.713 4.87274 108.713 5.07577C108.713 5.21416 109.722 5.28326 111.746 5.28326H114.78L115.303 3.09965C115.591 1.89877 115.825 0.806966 115.823 0.673426C115.82 0.489809 115.093 0.430803 112.836 0.430803C110.622 0.430803 109.832 0.493303 109.77 0.673426ZM119.156 0.579288C119.037 0.657704 118.615 2.05405 118.218 3.68195L117.496 6.64194H116.393H115.29L114.786 8.67415C114.509 9.79177 114.283 10.7526 114.283 10.8092C114.283 10.8657 114.758 10.9121 115.339 10.9121C116.058 10.9121 116.394 10.9895 116.392 11.1547C116.389 11.2883 116.182 12.2052 115.932 13.1928L115.475 14.9882L118.576 14.9874L121.677 14.9868L122.167 12.9979L122.656 11.0092L123.895 10.9525L125.135 10.896L125.568 9.01149C125.806 7.9752 126.001 7.01811 126 6.88457C125.999 6.71706 125.636 6.64194 124.826 6.64194C123.783 6.64194 123.669 6.60448 123.796 6.30227C124.099 5.57809 125.218 0.761158 125.12 0.600639C124.995 0.39606 119.464 0.376262 119.156 0.579288ZM3.00112 12.7549C1.35046 19.4264 0 24.9751 0 25.0851C0 25.2164 1.00742 25.267 2.92122 25.2319L5.84244 25.1783L7.90548 16.8321C9.44013 10.6231 9.97006 8.73432 9.97486 9.45637C9.97851 9.99014 9.81083 13.3529 9.60224 16.9291C9.39346 20.5054 9.22213 23.8489 9.22117 24.3592L9.21944 25.287L11.6549 25.2327L14.0904 25.1783L17.7338 16.8773C19.7377 12.3117 21.4022 8.60136 21.4325 8.63203C21.4631 8.6627 20.5882 12.311 19.4886 16.7389C18.3889 21.1671 17.4868 24.9015 17.4839 25.0378C17.4797 25.2303 18.1293 25.2736 20.4009 25.2319L23.3231 25.1783L26.3255 12.8981L29.328 0.618108L24.822 0.669932L20.316 0.721951L17.4574 7.32129C15.8851 10.9509 14.5106 14.0953 14.4029 14.3088C14.217 14.6772 14.284 11.1726 14.5141 8.48588C14.6186 7.26577 14.9816 1.42866 14.9816 0.967873C14.9816 0.649746 14.6562 0.624901 10.4919 0.624901H6.00224L3.00112 12.7549ZM31.4273 2.65711C31.1504 3.77473 30.9235 4.82499 30.9235 4.99114C30.9235 5.25375 31.3158 5.28617 33.9368 5.23958L36.9502 5.18621L37.4851 3.05113C37.7795 1.87683 38.0225 0.850443 38.0252 0.770475C38.0279 0.690507 36.658 0.624901 34.9807 0.624901H31.9313L31.4273 2.65711ZM37.474 12.7108C35.8475 19.3544 34.4769 24.8994 34.4283 25.0327C34.3597 25.2204 35.0379 25.2754 37.4259 25.2754H40.5123L40.7063 24.5475C41.1594 22.8464 46.4814 0.965544 46.4814 0.803278C46.4814 0.702347 45.1689 0.62626 43.4562 0.628201L40.4311 0.631501L37.474 12.7108ZM52.9394 6.26753C48.6735 6.86186 45.7799 10.5474 44.4863 17.034C43.3481 22.7418 44.6004 25.2329 48.7876 25.5896C50.7407 25.7561 53.3977 25.3773 54.7301 24.7426C56.1445 24.0685 57.6167 22.5137 58.4674 20.7954C58.8473 20.0281 59.1581 19.281 59.1581 19.1353C59.1581 18.9231 58.5901 18.8701 56.3168 18.8701H53.4756L53.2553 19.7024C52.8134 21.3724 51.4088 22.3579 50.4115 21.6976C49.8234 21.3082 49.7892 20.3686 50.2913 18.3849L50.6351 17.0262L55.1695 16.9742L59.704 16.9222L60.1346 15.1302C60.3714 14.1446 60.6036 12.4552 60.6507 11.3758C60.7231 9.71452 60.6776 9.27915 60.3541 8.54042C59.9415 7.59768 59.0753 6.83197 58.0057 6.46473C57.0772 6.14563 54.5257 6.04645 52.9394 6.26753ZM90.9878 6.2716C90.1172 6.47871 89.2523 6.91329 88.3858 7.57885L87.7464 8.07012L87.879 7.35603L88.0117 6.64194H85.1204C83.3288 6.64194 82.1825 6.71861 82.106 6.84342C82.0037 7.01092 80.0939 14.6677 80.0939 14.9105C80.0939 14.9532 81.4632 14.9882 83.1367 14.9882H86.1793L86.4215 14.1632C86.5548 13.7094 86.8813 12.8711 87.1472 12.3003C87.6673 11.1833 88.3716 10.7013 89.2394 10.8688C90.2403 11.0621 90.2745 11.9232 89.4224 15.4786C88.5124 19.275 87.5714 21.0052 86.4167 21.0052C85.5326 21.0052 85.1997 20.3014 85.3557 18.7622L85.4836 17.5015L82.4525 17.5549L79.4217 17.6085L77.7579 24.2078C76.8429 27.8375 76.0867 30.9599 76.0773 31.1468C76.0619 31.4564 76.3239 31.4865 79.0415 31.4865C82.552 31.4865 82.0719 31.9254 83.0775 27.7986C83.4548 26.2507 83.8512 24.6473 83.9584 24.2354L84.1533 23.4866L84.496 24.1383C85.5409 26.1257 88.2998 26.327 90.9302 24.6075C92.1328 23.8214 92.5521 23.365 93.4369 21.8786C94.6635 19.8185 96.614 12.7067 96.6109 10.3054C96.6071 7.12467 94.3141 5.47988 90.9878 6.2716ZM30.4637 6.80266C30.3444 6.99792 25.9297 24.7969 25.9297 25.083C25.9297 25.2169 26.9513 25.2672 28.9548 25.2317L31.9799 25.1783L34.2197 16.2498C35.4516 11.3391 36.4671 7.16834 36.4765 6.98161C36.4921 6.67203 36.2309 6.64194 33.5278 6.64194C31.8966 6.64194 30.5179 6.71434 30.4637 6.80266ZM108.233 6.88457C108.187 7.01811 107.727 8.89795 107.211 11.0623L106.273 14.9975L109.354 14.9443L112.434 14.8911L113.43 10.8708C113.977 8.65959 114.379 6.80343 114.322 6.74617C114.265 6.68891 112.891 6.64194 111.268 6.64194C109.079 6.64194 108.295 6.70464 108.233 6.88457ZM55.0456 10.4261C55.3531 10.9003 55.3491 11.1569 55.0066 12.9016C54.9024 13.4332 54.8956 13.4354 53.2847 13.4354C52.072 13.4354 51.6673 13.3711 51.6673 13.1788C51.6673 12.5707 52.3213 11.0631 52.8182 10.5255C53.5323 9.75295 54.5789 9.70617 55.0456 10.4261ZM71.0026 17.6409C70.9321 17.7119 70.8745 18.0338 70.8745 18.356C70.8745 19.2327 70.1617 20.5508 69.4456 20.9978C68.6069 21.5217 67.5368 21.5143 67.0092 20.9811C66.6473 20.6155 66.6116 20.4078 66.6923 19.1372L66.7833 17.7055H63.7693H60.7555L60.54 18.4334C59.8557 20.7453 60.1546 22.9241 61.311 24.0551C62.4675 25.1859 63.5705 25.5347 66.2647 25.6209C71.6293 25.7928 74.7718 24.1942 76.6447 20.3406C77.0638 19.4784 77.4602 18.4891 77.5257 18.1423L77.645 17.5114H74.3878C72.5964 17.5114 71.0729 17.5697 71.0026 17.6409ZM96.1557 21.0986C95.6673 23.0716 95.2676 24.8208 95.2676 24.9856C95.2676 25.2453 95.6707 25.2781 98.2927 25.2317L101.318 25.1783L102.214 21.6845C102.706 19.763 103.117 18.038 103.126 17.8511C103.141 17.5411 102.876 17.5114 100.093 17.5114H97.044L96.1557 21.0986ZM105.633 17.56C105.629 17.5867 105.199 19.268 104.677 21.2964C104.154 23.3247 103.725 25.0498 103.723 25.1298C103.721 25.2098 105.098 25.2754 106.784 25.2754H109.85L110.04 24.5475C110.944 21.0749 111.719 17.7032 111.634 17.6168C111.534 17.5159 105.646 17.46 105.633 17.56ZM114.683 18.2345C112.945 24.8066 113.285 25.4695 118.398 25.4695C121.605 25.4695 121.475 25.5426 121.974 23.459C122.208 22.4831 122.41 21.5972 122.423 21.4904C122.435 21.3837 122.066 21.2527 121.601 21.1993C120.447 21.0667 120.286 20.749 120.597 19.2203C120.734 18.5473 120.861 17.9093 120.878 17.8026C120.897 17.682 119.767 17.5883 117.893 17.5551L114.876 17.5017L114.683 18.2345Z" fill="#C3C5D6"/>
</svg>
