<svg width="87" height="58" viewBox="0 0 87 58" fill="none" xmlns="http://www.w3.org/2000/svg">
<path d="M20.3967 0H0V58H20.3967L28.642 49.6516V32.9984L24.693 29L28.642 25.0016V8.34837L20.3967 0ZM8.59259 24.65V8.7H16.8379L20.0494 11.9516V21.3984L16.8379 24.65H8.59259ZM16.8379 33.35L20.0494 36.6016V46.0484L16.8379 49.3H8.59259V33.35H16.8379ZM87 58L79.886 31.1177L85.9259 25.0016V8.34837L77.6806 0H57.284V58H65.8765V33.35H71.8842L78.4074 58H87ZM65.8765 8.7H74.1218L77.3333 11.9516V21.3984L74.1218 24.65H65.8765V8.7ZM35.8025 41.3765L50.1235 26.8765V16.6235L35.8025 31.1235V41.3765Z" fill="#C3C5D6"/>
</svg>
