<svg width="147" height="36" viewBox="0 0 147 36" fill="none" xmlns="http://www.w3.org/2000/svg">
<path d="M50.4452 29.1625H51.5017L48.5996 35.8274H47.5499L44.6068 29.1625H45.7181L48.0988 34.7973L50.4452 29.1625Z" fill="#C3C5D6"/>
<path d="M52.4346 29.1625H57.7516V30.0198H53.4157V31.9487H57.6213V32.8061H53.4157V34.9632H57.8408V35.8205H52.4346V29.1625Z" fill="#C3C5D6"/>
<path d="M60.3105 30.5236H60.2899V35.8265H59.3088V29.1616H60.4477L64.7014 34.4646H64.7219V29.1616H65.703V35.8265H64.5641L60.3105 30.5236Z" fill="#C3C5D6"/>
<path d="M69.1879 30.0189H66.6906V29.1616H72.6731V30.0189H70.1758V35.8266H69.1947V30.0189H69.1879Z" fill="#C3C5D6"/>
<path d="M73.696 29.1625H74.6771V33.4283C74.6771 34.6313 75.473 35.1361 76.6873 35.1361C77.9016 35.1361 78.6975 34.6313 78.6975 33.4283V29.1625H79.6785V33.3039C79.6785 35.0876 78.6975 35.9933 76.6873 35.9933C74.6771 35.9933 73.696 35.0876 73.696 33.3039V29.1625Z" fill="#C3C5D6"/>
<path d="M81.2153 29.1625H85.3111C86.6352 29.1625 87.1155 30.0889 87.1155 30.9325C87.1155 31.7413 86.7244 32.3429 86.0041 32.5779V32.5987C86.5873 32.6817 86.9303 33.2347 86.9646 34.016C87.0195 35.2605 87.0538 35.5647 87.2802 35.8274H86.2442C86.0864 35.6408 86.0864 35.3573 86.0384 34.5553C85.9767 33.3591 85.5719 32.9997 84.7623 32.9997H82.1964V35.8274H81.2153V29.1625ZM84.9407 32.1424C85.9012 32.1424 86.1345 31.5547 86.1345 31.0845C86.1345 30.4484 85.7571 30.0198 84.9681 30.0198H82.1964V32.1355H84.9407V32.1424Z" fill="#C3C5D6"/>
<path d="M88.6245 29.1625H93.9417V30.0198H89.6055V31.9487H93.8113V32.8061H89.6055V34.9632H94.0308V35.8205H88.6245V29.1625Z" fill="#C3C5D6"/>
<path d="M96.1581 33.6356C96.1788 34.8317 97.2901 35.1359 98.2853 35.1359C99.3354 35.1359 100.076 34.7349 100.076 34.0089C100.076 33.4005 99.6027 33.1516 98.8414 33.0203L97.3387 32.7714C96.5495 32.64 95.3761 32.322 95.3761 31.0291C95.3761 29.8192 96.33 29.0033 98.0244 29.0033C99.3489 29.0033 100.748 29.4873 100.837 31.0913H99.8564C99.7737 30.5659 99.4794 29.8607 97.8939 29.8607C97.174 29.8607 96.3579 30.1717 96.3579 30.9531C96.3579 31.361 96.6251 31.6928 97.4413 31.8311L99.061 32.1076C99.582 32.1975 101.051 32.4534 101.051 33.8154C101.051 35.5162 99.5406 36.0002 98.2097 36.0002C96.7214 36.0002 95.171 35.4747 95.171 33.6425H96.1581V33.6356Z" fill="#C3C5D6"/>
<path d="M7.99799 0.621672C9.13682 0.704638 10.0973 0.981194 10.8725 1.44442C11.6478 1.90765 12.279 2.47456 12.7524 3.15907C13.2258 3.84357 13.5688 4.60403 13.7814 5.44754C13.9873 6.29103 14.0902 7.14832 14.0902 8.01946C14.0902 9.21552 13.9187 10.2526 13.5756 11.1376C13.2326 12.0295 12.7592 12.7555 12.1417 13.3293C11.5312 13.9031 10.7902 14.3388 9.91896 14.6429C9.04763 14.9402 8.08716 15.1061 7.02373 15.12C6.06324 15.1339 5.583 15.1407 4.62935 15.1615V24.9931C2.8456 25.1384 1.95368 25.2144 0.163086 25.3665V0C3.2984 0.262726 4.86259 0.387174 7.99799 0.622248V0.621672ZM6.63275 11.525C7.52463 11.532 8.24499 11.2416 8.79389 10.6677C9.34272 10.0938 9.61718 9.19507 9.61718 7.97129C9.61718 6.76829 9.37701 5.84875 8.90366 5.19879C8.43028 4.54889 7.62759 4.19628 6.50927 4.1341C5.76146 4.0857 5.38411 4.06496 4.64319 4.02348V11.5111C5.43902 11.5181 5.83691 11.5181 6.63273 11.525L6.63275 11.525Z" fill="#C3C5D6"/>
<path d="M24.3948 1.67927C26.3089 8.9596 28.271 16.1919 30.2743 23.3681C28.4082 23.458 27.4752 23.5063 25.6091 23.6031C25.1974 21.7779 24.9916 20.8584 24.5799 19.0123C22.2131 19.0884 21.033 19.1299 18.6661 19.2128C18.2544 21.1418 18.0486 22.1167 17.637 24.0664C15.7709 24.1839 14.8378 24.2462 12.9717 24.3775C14.8722 16.6409 16.8411 8.96689 18.8513 1.36145C21.0673 1.49282 22.1787 1.56195 24.3948 1.67949V1.67927ZM23.7979 15.3964C22.9402 11.4416 22.5081 9.44354 21.6505 5.39921H21.5887C20.7311 9.38163 20.299 11.3935 19.4413 15.4585C21.1908 15.4309 22.0553 15.417 23.7979 15.3963V15.3964Z" fill="#C3C5D6"/>
<path d="M42.4104 16.4476H42.4723V2.48118C44.1188 2.5365 44.9352 2.56415 46.5817 2.61255V22.7528C44.5373 22.815 43.5219 22.8426 41.4774 22.9187C39.2889 17.2632 38.1912 14.387 35.9958 8.50326H35.934V23.1328C34.2875 23.202 33.4711 23.2366 31.8245 23.3126V2.06653C33.8896 2.16332 34.9255 2.20481 36.9905 2.28777C39.1585 8.05394 40.2425 10.8818 42.4104 16.4476V16.4476Z" fill="#C3C5D6"/>
<path d="M49.4636 8.48968C49.6214 7.21065 49.9645 6.12517 50.4927 5.21939C51.021 4.32059 51.7825 3.62227 52.7841 3.13833C53.779 2.64745 55.1168 2.42621 56.7977 2.46077C58.4785 2.48843 59.8164 2.76499 60.8111 3.27661C61.8059 3.78824 62.5674 4.49347 63.1026 5.39223C63.6309 6.29103 63.9739 7.35576 64.1316 8.60024C64.2895 9.84481 64.365 11.1999 64.365 12.6726C64.365 14.159 64.2895 15.5211 64.1316 16.7586C63.9739 17.9962 63.6309 19.061 63.1026 19.9528C62.5743 20.8447 61.8059 21.5361 60.8111 22.027C59.8164 22.5179 58.4785 22.7737 56.7977 22.8013C55.1168 22.829 53.779 22.6216 52.7841 22.1652C51.7893 21.7089 51.0278 21.0245 50.4927 20.1257C49.9645 19.2269 49.6214 18.1414 49.4636 16.8692C49.3058 15.6041 49.2304 14.2005 49.2304 12.6726C49.2304 11.1584 49.3058 9.76868 49.4636 8.48965V8.48968ZM53.8201 16.0672C53.8956 17.0006 54.0397 17.7542 54.2592 18.335C54.4787 18.9158 54.7874 19.3306 55.1923 19.5933C55.597 19.8561 56.1321 19.9805 56.7977 19.9736C57.4631 19.9667 57.9982 19.8284 58.403 19.5588C58.8078 19.2891 59.1166 18.8673 59.336 18.2866C59.5556 17.7058 59.6996 16.9591 59.7751 16.0396C59.8506 15.1201 59.8849 14 59.8849 12.6863C59.8849 11.3728 59.8506 10.2597 59.7751 9.34695C59.6996 8.43434 59.5556 7.68072 59.336 7.09997C59.1166 6.51229 58.8078 6.0836 58.403 5.81401C57.9982 5.54437 57.4631 5.40609 56.7977 5.39226C56.1321 5.38535 55.597 5.5098 55.1923 5.77252C54.7874 6.03525 54.4787 6.457 54.2592 7.04472C54.0397 7.63239 53.8956 8.38602 53.8201 9.3124C53.7446 10.2319 53.7103 11.3589 53.7103 12.6933C53.7103 14 53.7515 15.1339 53.8201 16.0672Z" fill="#C3C5D6"/>
<path d="M75.2871 2.99286C77.1531 2.98595 78.6076 3.39387 79.6435 4.20971C80.6795 5.02554 81.2009 6.277 81.2009 7.96393C81.2009 9.27068 80.8991 10.3354 80.2953 11.1582C79.6916 11.9809 78.7585 12.5133 77.4893 12.7484V12.8036C78.6076 12.9489 79.4308 13.2669 79.9523 13.7578C80.4736 14.2487 80.7961 15.0368 80.9196 16.1223C80.9608 16.4818 80.9951 16.8829 81.0157 17.3046C81.0362 17.7332 81.0568 18.2034 81.0774 18.7357C81.1186 19.766 81.1666 20.5817 81.2626 21.1003C81.3656 21.6257 81.6605 22.0199 82.0722 22.2204V22.3863C80.1306 22.3655 79.1565 22.3587 77.2149 22.3517C76.9885 22.0821 76.8444 21.771 76.7827 21.4114C76.7209 21.0588 76.6797 20.6923 76.6591 20.3122C76.6112 18.8256 76.5837 18.0789 76.5357 16.5993C76.4945 15.8389 76.275 15.2443 75.8839 14.8086C75.4928 14.3731 74.8273 14.1588 73.8943 14.1588H71.5V22.3448C69.7093 22.3517 68.8106 22.3517 67.0131 22.3655V2.96497C70.3199 2.99262 71.9733 2.99954 75.2871 2.99262V2.99286ZM73.3591 11.4486C74.4363 11.4486 75.2664 11.2273 75.8496 10.7848C76.4327 10.3423 76.7209 9.59561 76.7209 8.54469C76.7209 6.75401 75.685 5.86209 73.6062 5.86209H71.4862V11.4485H73.3591V11.4486Z" fill="#C3C5D6"/>
<path d="M94.1874 2.76489C96.5405 10.6398 97.7211 14.6221 100.074 22.7323C98.2079 22.677 97.2747 22.6563 95.4022 22.6079C94.9901 20.914 94.784 20.0774 94.3728 18.3904C92.0062 18.3628 90.8256 18.3489 88.4589 18.3213C88.0473 19.9737 87.8415 20.8033 87.4298 22.4489C85.5637 22.4213 84.6307 22.4074 82.7577 22.3935C85.1109 14.6362 86.291 10.7433 88.6441 2.86882C90.8598 2.83426 91.9711 2.81352 94.1874 2.76512V2.76489ZM93.5971 15.1134C92.7396 11.5527 92.3076 9.77581 91.4501 6.24286H91.388C90.5305 9.7966 90.0986 11.5666 89.241 15.0926C90.984 15.0995 91.855 15.0995 93.5971 15.1134Z" fill="#C3C5D6"/>
<path d="M108.387 2.33611C109.655 8.12298 110.293 11.0545 111.563 16.9792H111.624C112.907 11.0886 113.545 8.10876 114.829 2.06616C117.477 1.9417 118.808 1.87948 121.456 1.74121V23.61C119.816 23.5201 118.993 23.4786 117.346 23.4026V6.27685H117.284C115.707 13.17 114.911 16.5512 113.333 23.2154C111.94 23.1532 111.24 23.1255 109.848 23.0703C108.27 16.3707 107.474 13.0731 105.896 6.56003H105.835V22.9182C104.194 22.863 103.371 22.8352 101.725 22.7799V2.56411C104.393 2.48115 105.725 2.43967 108.387 2.33596V2.33611Z" fill="#C3C5D6"/>
<path d="M124.872 1.55516C126.662 1.45145 127.561 1.39614 129.352 1.28552V24.074C127.561 23.9634 126.662 23.908 124.872 23.8044V1.55583V1.55516Z" fill="#C3C5D6"/>
<path d="M141.6 4.8045C141.215 4.00941 140.515 3.64991 139.5 3.70516C138.938 3.73282 138.478 3.92641 138.115 4.26519C137.751 4.61088 137.469 5.15016 137.257 5.87608C137.051 6.60895 136.907 7.55617 136.825 8.72461C136.742 9.89296 136.701 11.3172 136.701 13.0042C136.701 14.8019 136.756 16.2607 136.873 17.3738C136.99 18.487 137.161 19.3581 137.401 19.9803C137.641 20.6026 137.936 21.0313 138.3 21.2663C138.663 21.5013 139.082 21.6258 139.562 21.6535C139.953 21.6742 140.324 21.6258 140.666 21.4945C141.009 21.3631 141.304 21.0865 141.552 20.651C141.798 20.2154 141.997 19.6001 142.141 18.7843C142.286 17.9753 142.361 16.9037 142.361 15.5693C144.152 15.6039 145.05 15.6177 146.841 15.6591C146.841 17.035 146.745 18.3348 146.56 19.5517C146.375 20.7754 146.025 21.8264 145.518 22.7114C145.009 23.5963 144.296 24.2531 143.37 24.6887C142.451 25.1243 141.25 25.2763 139.782 25.1588C138.101 25.0274 136.763 24.6333 135.768 23.9904C134.773 23.3474 134.012 22.4832 133.484 21.3907C132.955 20.2983 132.612 19.0193 132.455 17.5397C132.297 16.0602 132.221 14.4424 132.221 12.6655C132.221 10.9163 132.297 9.29844 132.455 7.8119C132.612 6.32546 132.955 5.03941 133.484 3.9471C134.012 2.85469 134.773 1.9697 135.768 1.29905C136.763 0.621488 138.101 0.213573 139.782 0.0821964C141.38 -0.0422513 142.635 0.137508 143.562 0.64222C144.481 1.14693 145.174 1.84522 145.627 2.71635C146.086 3.5875 146.368 4.55544 146.485 5.59943C146.601 6.64343 146.656 7.63208 146.656 8.55163C144.865 8.60002 143.967 8.62076 142.176 8.66916C142.176 6.89234 141.984 5.59252 141.6 4.80435V4.8045Z" fill="#C3C5D6"/>
</svg>
