<svg width="1312" height="364" viewBox="0 0 1312 364" fill="none" xmlns="http://www.w3.org/2000/svg">
<rect width="1312" height="364" rx="32" fill="#F9F9F9"/>
<path d="M65.3 72H68.06V86H65.3V72ZM84.3916 78.48V79.56C84.3916 81.56 83.7516 83.18 82.4716 84.42C81.1916 85.66 79.5382 86.28 77.5116 86.28C75.3516 86.28 73.5582 85.58 72.1316 84.18C70.7182 82.7667 70.0116 81.0467 70.0116 79.02C70.0116 76.98 70.7116 75.2533 72.1116 73.84C73.5249 72.4267 75.2716 71.72 77.3516 71.72C78.6582 71.72 79.8516 72.02 80.9316 72.62C82.0116 73.2067 82.8516 73.9933 83.4516 74.98L81.0916 76.34C80.7582 75.7667 80.2516 75.3 79.5716 74.94C78.9049 74.58 78.1582 74.4 77.3316 74.4C75.9982 74.4 74.8982 74.84 74.0316 75.72C73.1782 76.5867 72.7516 77.6867 72.7516 79.02C72.7516 80.34 73.1849 81.4333 74.0516 82.3C74.9316 83.1533 76.0916 83.58 77.5316 83.58C78.5982 83.58 79.4782 83.3467 80.1716 82.88C80.8782 82.4 81.3582 81.7467 81.6116 80.92H77.3716V78.48H84.3916ZM94.8469 86L94.0069 83.48H88.4269L87.5869 86H84.6069L89.5069 72H92.9269L97.8469 86H94.8469ZM89.3069 80.9H93.1469L91.2269 75.18L89.3069 80.9Z" fill="#3B4068"/>
<path d="M1186.1 75.696C1186.1 76.992 1185.76 78.128 1185.09 79.104H1185.11L1179.88 87H1176.09L1179.83 81.528C1178.09 81.496 1176.66 80.944 1175.56 79.872C1174.47 78.784 1173.93 77.392 1173.93 75.696C1173.93 73.984 1174.49 72.584 1175.61 71.496C1176.74 70.408 1178.21 69.864 1180 69.864C1181.81 69.864 1183.27 70.408 1184.39 71.496C1185.53 72.568 1186.1 73.968 1186.1 75.696ZM1177.22 75.696C1177.22 76.528 1177.48 77.192 1178.01 77.688C1178.55 78.184 1179.22 78.432 1180 78.432C1180.82 78.432 1181.49 78.184 1182.02 77.688C1182.54 77.192 1182.81 76.528 1182.81 75.696C1182.81 74.864 1182.54 74.208 1182.02 73.728C1181.49 73.232 1180.82 72.984 1180 72.984C1179.22 72.984 1178.55 73.232 1178.01 73.728C1177.48 74.224 1177.22 74.88 1177.22 75.696ZM1191.32 70.2H1194.2V87H1190.89V73.704L1187.72 74.592L1186.9 71.76L1191.32 70.2ZM1198.08 89.4H1196.71L1206.31 67.8H1207.68L1198.08 89.4ZM1213.16 70.2H1216.04V87H1212.73V73.704L1209.56 74.592L1208.75 71.76L1213.16 70.2ZM1225.33 87.336C1223.23 87.336 1221.58 86.544 1220.38 84.96C1219.2 83.36 1218.61 81.24 1218.61 78.6C1218.61 75.96 1219.2 73.848 1220.38 72.264C1221.58 70.664 1223.23 69.864 1225.33 69.864C1227.44 69.864 1229.09 70.664 1230.27 72.264C1231.45 73.848 1232.05 75.96 1232.05 78.6C1232.05 81.24 1231.45 83.36 1230.27 84.96C1229.09 86.544 1227.44 87.336 1225.33 87.336ZM1222.78 82.704C1223.36 83.632 1224.21 84.096 1225.33 84.096C1226.45 84.096 1227.29 83.624 1227.87 82.68C1228.46 81.736 1228.76 80.376 1228.76 78.6C1228.76 76.808 1228.46 75.44 1227.87 74.496C1227.29 73.552 1226.45 73.08 1225.33 73.08C1224.21 73.08 1223.36 73.552 1222.78 74.496C1222.21 75.44 1221.92 76.808 1221.92 78.6C1221.92 80.392 1222.21 81.76 1222.78 82.704ZM1240.44 87.336C1238.35 87.336 1236.7 86.544 1235.5 84.96C1234.31 83.36 1233.72 81.24 1233.72 78.6C1233.72 75.96 1234.31 73.848 1235.5 72.264C1236.7 70.664 1238.35 69.864 1240.44 69.864C1242.55 69.864 1244.2 70.664 1245.39 72.264C1246.57 73.848 1247.16 75.96 1247.16 78.6C1247.16 81.24 1246.57 83.36 1245.39 84.96C1244.2 86.544 1242.55 87.336 1240.44 87.336ZM1237.9 82.704C1238.47 83.632 1239.32 84.096 1240.44 84.096C1241.56 84.096 1242.41 83.624 1242.99 82.68C1243.58 81.736 1243.87 80.376 1243.87 78.6C1243.87 76.808 1243.58 75.44 1242.99 74.496C1242.41 73.552 1241.56 73.08 1240.44 73.08C1239.32 73.08 1238.47 73.552 1237.9 74.496C1237.32 75.44 1237.03 76.808 1237.03 78.6C1237.03 80.392 1237.32 81.76 1237.9 82.704Z" fill="#3B4068"/>
<rect opacity="0.2" x="64" y="112" width="1184" height="12" rx="6" fill="#C3C5D6"/>
<rect x="64" y="112" width="1036" height="12" rx="6" fill="url(#paint0_linear_13432_33562)"/>
<path d="M75.52 172.8V184H74.4V174.496L70.48 181.056H70.32L66.4 174.496V184H65.28V172.8H66.672L70.4 179.04L74.128 172.8H75.52ZM84.7969 176H85.8529V184H84.7969V182.432C84.0609 183.605 82.9835 184.192 81.5649 184.192C80.4235 184.192 79.4475 183.787 78.6369 182.976C77.8369 182.165 77.4369 181.173 77.4369 180C77.4369 178.827 77.8369 177.835 78.6369 177.024C79.4475 176.213 80.4235 175.808 81.5649 175.808C82.9835 175.808 84.0609 176.395 84.7969 177.568V176ZM79.4049 182.256C80.0129 182.864 80.7595 183.168 81.6449 183.168C82.5302 183.168 83.2769 182.864 83.8849 182.256C84.4929 181.637 84.7969 180.885 84.7969 180C84.7969 179.115 84.4929 178.368 83.8849 177.76C83.2769 177.141 82.5302 176.832 81.6449 176.832C80.7595 176.832 80.0129 177.141 79.4049 177.76C78.7969 178.368 78.4929 179.115 78.4929 180C78.4929 180.885 78.7969 181.637 79.4049 182.256ZM94.8088 184H93.5448L91.0488 180.704L88.5528 184H87.2888L90.4248 179.856L87.4967 176H88.7608L91.0488 179.024L93.3368 176H94.6008L91.6888 179.856L94.8088 184ZM103.925 184.192C102.901 184.192 102.021 183.952 101.285 183.472C100.56 182.981 100.053 182.309 99.765 181.456L100.725 180.896C100.928 181.589 101.301 182.133 101.845 182.528C102.389 182.912 103.088 183.104 103.941 183.104C104.773 183.104 105.418 182.923 105.877 182.56C106.346 182.187 106.581 181.696 106.581 181.088C106.581 180.501 106.368 180.059 105.941 179.76C105.514 179.461 104.81 179.152 103.829 178.832C102.666 178.448 101.898 178.139 101.525 177.904C100.672 177.392 100.245 176.651 100.245 175.68C100.245 174.731 100.576 173.984 101.237 173.44C101.898 172.885 102.714 172.608 103.685 172.608C104.56 172.608 105.317 172.837 105.957 173.296C106.597 173.744 107.072 174.32 107.381 175.024L106.437 175.552C105.925 174.315 105.008 173.696 103.685 173.696C102.992 173.696 102.432 173.867 102.005 174.208C101.578 174.549 101.365 175.024 101.365 175.632C101.365 176.187 101.557 176.603 101.941 176.88C102.325 177.157 102.96 177.44 103.845 177.728C104.25 177.867 104.538 177.968 104.709 178.032C104.89 178.085 105.146 178.181 105.477 178.32C105.818 178.448 106.069 178.565 106.229 178.672C106.389 178.768 106.581 178.907 106.805 179.088C107.04 179.259 107.205 179.435 107.301 179.616C107.408 179.787 107.498 180 107.573 180.256C107.658 180.501 107.701 180.768 107.701 181.056C107.701 182.005 107.354 182.768 106.661 183.344C105.968 183.909 105.056 184.192 103.925 184.192ZM113.752 175.808C114.893 175.808 115.864 176.213 116.664 177.024C117.474 177.835 117.88 178.827 117.88 180C117.88 181.173 117.474 182.165 116.664 182.976C115.864 183.787 114.893 184.192 113.752 184.192C112.333 184.192 111.256 183.605 110.52 182.432V187.2H109.464V176H110.52V177.568C111.256 176.395 112.333 175.808 113.752 175.808ZM111.432 182.256C112.04 182.864 112.786 183.168 113.672 183.168C114.557 183.168 115.304 182.864 115.912 182.256C116.52 181.637 116.824 180.885 116.824 180C116.824 179.115 116.52 178.368 115.912 177.76C115.304 177.141 114.557 176.832 113.672 176.832C112.786 176.832 112.04 177.141 111.432 177.76C110.824 178.368 110.52 179.115 110.52 180C110.52 180.885 110.824 181.637 111.432 182.256ZM123.332 175.808C124.516 175.808 125.47 176.229 126.196 177.072C126.932 177.904 127.3 178.891 127.3 180.032C127.3 180.149 127.289 180.315 127.268 180.528H120.244C120.35 181.339 120.692 181.984 121.268 182.464C121.854 182.933 122.574 183.168 123.428 183.168C124.036 183.168 124.558 183.045 124.996 182.8C125.444 182.544 125.78 182.213 126.004 181.808L126.932 182.352C126.58 182.917 126.1 183.365 125.492 183.696C124.884 184.027 124.19 184.192 123.412 184.192C122.153 184.192 121.129 183.797 120.34 183.008C119.55 182.219 119.156 181.216 119.156 180C119.156 178.805 119.545 177.808 120.324 177.008C121.102 176.208 122.105 175.808 123.332 175.808ZM123.332 176.832C122.5 176.832 121.801 177.083 121.236 177.584C120.681 178.075 120.35 178.715 120.244 179.504H126.212C126.105 178.661 125.78 178.005 125.236 177.536C124.692 177.067 124.057 176.832 123.332 176.832ZM132.675 175.808C133.859 175.808 134.814 176.229 135.539 177.072C136.275 177.904 136.643 178.891 136.643 180.032C136.643 180.149 136.633 180.315 136.611 180.528H129.587C129.694 181.339 130.035 181.984 130.611 182.464C131.198 182.933 131.918 183.168 132.771 183.168C133.379 183.168 133.902 183.045 134.339 182.8C134.787 182.544 135.123 182.213 135.347 181.808L136.275 182.352C135.923 182.917 135.443 183.365 134.835 183.696C134.227 184.027 133.534 184.192 132.755 184.192C131.497 184.192 130.473 183.797 129.683 183.008C128.894 182.219 128.499 181.216 128.499 180C128.499 178.805 128.889 177.808 129.667 177.008C130.446 176.208 131.449 175.808 132.675 175.808ZM132.675 176.832C131.843 176.832 131.145 177.083 130.579 177.584C130.025 178.075 129.694 178.715 129.587 179.504H135.555C135.449 178.661 135.123 178.005 134.579 177.536C134.035 177.067 133.401 176.832 132.675 176.832ZM145.203 172.8H146.259V184H145.203V182.432C144.467 183.605 143.39 184.192 141.971 184.192C140.83 184.192 139.854 183.787 139.043 182.976C138.243 182.165 137.843 181.173 137.843 180C137.843 178.827 138.243 177.835 139.043 177.024C139.854 176.213 140.83 175.808 141.971 175.808C143.39 175.808 144.467 176.395 145.203 177.568V172.8ZM139.811 182.256C140.419 182.864 141.166 183.168 142.051 183.168C142.936 183.168 143.683 182.864 144.291 182.256C144.899 181.637 145.203 180.885 145.203 180C145.203 179.115 144.899 178.368 144.291 177.76C143.683 177.141 142.936 176.832 142.051 176.832C141.166 176.832 140.419 177.141 139.811 177.76C139.203 178.368 138.899 179.115 138.899 180C138.899 180.885 139.203 181.637 139.811 182.256ZM154.095 185.6C152.922 183.253 152.335 180.853 152.335 178.4C152.335 175.947 152.922 173.547 154.095 171.2H155.151C153.978 173.547 153.391 175.947 153.391 178.4C153.391 180.853 153.978 183.253 155.151 185.6H154.095ZM165.273 175.808C166.169 175.808 166.889 176.096 167.433 176.672C167.988 177.248 168.265 178.027 168.265 179.008V184H167.209V179.008C167.209 178.315 167.028 177.781 166.665 177.408C166.313 177.024 165.844 176.832 165.257 176.832C164.596 176.832 164.057 177.056 163.641 177.504C163.236 177.941 163.033 178.629 163.033 179.568V184H161.977V179.008C161.977 178.304 161.806 177.765 161.465 177.392C161.134 177.019 160.681 176.832 160.105 176.832C159.465 176.832 158.921 177.056 158.473 177.504C158.025 177.952 157.801 178.64 157.801 179.568V184H156.745V176H157.801V177.168C158.377 176.261 159.193 175.808 160.249 175.808C161.401 175.808 162.212 176.293 162.681 177.264C163.257 176.293 164.121 175.808 165.273 175.808ZM174.596 175.808C175.737 175.808 176.708 176.213 177.508 177.024C178.318 177.835 178.724 178.827 178.724 180C178.724 181.173 178.318 182.165 177.508 182.976C176.708 183.787 175.737 184.192 174.596 184.192C173.177 184.192 172.1 183.605 171.364 182.432V187.2H170.308V176H171.364V177.568C172.1 176.395 173.177 175.808 174.596 175.808ZM172.276 182.256C172.884 182.864 173.63 183.168 174.516 183.168C175.401 183.168 176.148 182.864 176.756 182.256C177.364 181.637 177.668 180.885 177.668 180C177.668 179.115 177.364 178.368 176.756 177.76C176.148 177.141 175.401 176.832 174.516 176.832C173.63 176.832 172.884 177.141 172.276 177.76C171.668 178.368 171.364 179.115 171.364 180C171.364 180.885 171.668 181.637 172.276 182.256ZM184.223 175.808C185.194 175.808 185.957 176.107 186.511 176.704C187.077 177.291 187.359 178.085 187.359 179.088V184H186.303V179.088C186.303 178.373 186.111 177.819 185.727 177.424C185.354 177.029 184.821 176.832 184.127 176.832C183.359 176.832 182.735 177.077 182.255 177.568C181.775 178.048 181.535 178.795 181.535 179.808V184H180.479V172.8H181.535V177.248C182.133 176.288 183.029 175.808 184.223 175.808ZM189.817 185.6H188.761C189.935 183.253 190.521 180.853 190.521 178.4C190.521 175.947 189.935 173.547 188.761 171.2H189.817C190.991 173.547 191.577 175.947 191.577 178.4C191.577 180.853 190.991 183.253 189.817 185.6Z" fill="#3B4068"/>
<path d="M627.121 180.06V182.62H625.621V185H622.841V182.62H616.221V180.06L620.881 171H623.841L619.201 180.06H622.841V176.74H625.621V180.06H627.121ZM633.702 185.28C631.956 185.28 630.582 184.62 629.582 183.3C628.596 181.967 628.102 180.2 628.102 178C628.102 175.8 628.596 174.04 629.582 172.72C630.582 171.387 631.956 170.72 633.702 170.72C635.462 170.72 636.836 171.387 637.822 172.72C638.809 174.04 639.302 175.8 639.302 178C639.302 180.2 638.809 181.967 637.822 183.3C636.836 184.62 635.462 185.28 633.702 185.28ZM631.582 181.42C632.062 182.193 632.769 182.58 633.702 182.58C634.636 182.58 635.342 182.187 635.822 181.4C636.316 180.613 636.562 179.48 636.562 178C636.562 176.507 636.316 175.367 635.822 174.58C635.342 173.793 634.636 173.4 633.702 173.4C632.769 173.4 632.062 173.793 631.582 174.58C631.102 175.367 630.862 176.507 630.862 178C630.862 179.493 631.102 180.633 631.582 181.42Z" fill="#3B4068"/>
<rect opacity="0.2" x="64" y="208" width="576" height="12" rx="6" fill="#C3C5D6"/>
<rect x="64" y="208" width="391.052" height="12" rx="6" fill="url(#paint1_linear_13432_33562)"/>
<path d="M72.32 252.8V253.856H68.88V264H67.76V253.856H64.32V252.8H72.32ZM74.8326 254.08C74.6833 254.229 74.502 254.304 74.2886 254.304C74.0753 254.304 73.894 254.229 73.7446 254.08C73.5953 253.931 73.5206 253.749 73.5206 253.536C73.5206 253.323 73.5953 253.141 73.7446 252.992C73.894 252.843 74.0753 252.768 74.2886 252.768C74.502 252.768 74.6833 252.843 74.8326 252.992C74.982 253.141 75.0566 253.323 75.0566 253.536C75.0566 253.749 74.982 253.931 74.8326 254.08ZM73.7606 264V256H74.8166V264H73.7606ZM85.5855 255.808C86.4815 255.808 87.2015 256.096 87.7455 256.672C88.3002 257.248 88.5775 258.027 88.5775 259.008V264H87.5215V259.008C87.5215 258.315 87.3402 257.781 86.9775 257.408C86.6255 257.024 86.1562 256.832 85.5695 256.832C84.9082 256.832 84.3695 257.056 83.9535 257.504C83.5482 257.941 83.3455 258.629 83.3455 259.568V264H82.2895V259.008C82.2895 258.304 82.1188 257.765 81.7775 257.392C81.4468 257.019 80.9935 256.832 80.4175 256.832C79.7775 256.832 79.2335 257.056 78.7855 257.504C78.3375 257.952 78.1135 258.64 78.1135 259.568V264H77.0575V256H78.1135V257.168C78.6895 256.261 79.5055 255.808 80.5615 255.808C81.7135 255.808 82.5242 256.293 82.9935 257.264C83.5695 256.293 84.4335 255.808 85.5855 255.808ZM94.316 255.808C95.5 255.808 96.4547 256.229 97.18 257.072C97.916 257.904 98.284 258.891 98.284 260.032C98.284 260.149 98.2733 260.315 98.252 260.528H91.228C91.3347 261.339 91.676 261.984 92.252 262.464C92.8387 262.933 93.5587 263.168 94.412 263.168C95.02 263.168 95.5427 263.045 95.98 262.8C96.428 262.544 96.764 262.213 96.988 261.808L97.916 262.352C97.564 262.917 97.084 263.365 96.476 263.696C95.868 264.027 95.1747 264.192 94.396 264.192C93.1373 264.192 92.1133 263.797 91.324 263.008C90.5347 262.219 90.14 261.216 90.14 260C90.14 258.805 90.5293 257.808 91.308 257.008C92.0867 256.208 93.0893 255.808 94.316 255.808ZM94.316 256.832C93.484 256.832 92.7853 257.083 92.22 257.584C91.6653 258.075 91.3347 258.715 91.228 259.504H97.196C97.0893 258.661 96.764 258.005 96.22 257.536C95.676 257.067 95.0413 256.832 94.316 256.832ZM108.204 257.024H105.9V261.872C105.9 262.309 105.985 262.624 106.156 262.816C106.326 262.997 106.582 263.093 106.924 263.104C107.265 263.104 107.692 263.093 108.204 263.072V264C107.084 264.171 106.241 264.091 105.676 263.76C105.121 263.429 104.844 262.8 104.844 261.872V257.024H103.164V256H104.844V254.08L105.9 253.76V256H108.204V257.024ZM116.183 262.992C115.373 263.792 114.381 264.192 113.207 264.192C112.034 264.192 111.037 263.792 110.215 262.992C109.405 262.181 108.999 261.184 108.999 260C108.999 258.816 109.405 257.824 110.215 257.024C111.037 256.213 112.034 255.808 113.207 255.808C114.381 255.808 115.373 256.213 116.183 257.024C117.005 257.824 117.415 258.816 117.415 260C117.415 261.184 117.005 262.181 116.183 262.992ZM110.967 262.256C111.575 262.864 112.322 263.168 113.207 263.168C114.093 263.168 114.839 262.864 115.447 262.256C116.055 261.637 116.359 260.885 116.359 260C116.359 259.115 116.055 258.368 115.447 257.76C114.839 257.141 114.093 256.832 113.207 256.832C112.322 256.832 111.575 257.141 110.967 257.76C110.359 258.368 110.055 259.115 110.055 260C110.055 260.885 110.359 261.637 110.967 262.256ZM133.583 252.8V264H132.463V254.496L128.543 261.056H128.383L124.463 254.496V264H123.343V252.8H124.735L128.463 259.04L132.191 252.8H133.583ZM142.859 256H143.915V264H142.859V262.432C142.123 263.605 141.046 264.192 139.627 264.192C138.486 264.192 137.51 263.787 136.699 262.976C135.899 262.165 135.499 261.173 135.499 260C135.499 258.827 135.899 257.835 136.699 257.024C137.51 256.213 138.486 255.808 139.627 255.808C141.046 255.808 142.123 256.395 142.859 257.568V256ZM137.467 262.256C138.075 262.864 138.822 263.168 139.707 263.168C140.593 263.168 141.339 262.864 141.947 262.256C142.555 261.637 142.859 260.885 142.859 260C142.859 259.115 142.555 258.368 141.947 257.76C141.339 257.141 140.593 256.832 139.707 256.832C138.822 256.832 138.075 257.141 137.467 257.76C136.859 258.368 136.555 259.115 136.555 260C136.555 260.885 136.859 261.637 137.467 262.256ZM152.871 264H151.607L149.111 260.704L146.615 264H145.351L148.487 259.856L145.559 256H146.823L149.111 259.024L151.399 256H152.663L149.751 259.856L152.871 264ZM161.988 264.192C160.964 264.192 160.084 263.952 159.348 263.472C158.622 262.981 158.116 262.309 157.828 261.456L158.788 260.896C158.99 261.589 159.364 262.133 159.908 262.528C160.452 262.912 161.15 263.104 162.004 263.104C162.836 263.104 163.481 262.923 163.94 262.56C164.409 262.187 164.644 261.696 164.644 261.088C164.644 260.501 164.43 260.059 164.004 259.76C163.577 259.461 162.873 259.152 161.891 258.832C160.729 258.448 159.961 258.139 159.588 257.904C158.734 257.392 158.308 256.651 158.308 255.68C158.308 254.731 158.638 253.984 159.299 253.44C159.961 252.885 160.777 252.608 161.748 252.608C162.622 252.608 163.38 252.837 164.02 253.296C164.66 253.744 165.134 254.32 165.444 255.024L164.5 255.552C163.988 254.315 163.07 253.696 161.748 253.696C161.054 253.696 160.494 253.867 160.068 254.208C159.641 254.549 159.428 255.024 159.428 255.632C159.428 256.187 159.62 256.603 160.004 256.88C160.388 257.157 161.022 257.44 161.908 257.728C162.313 257.867 162.601 257.968 162.772 258.032C162.953 258.085 163.209 258.181 163.54 258.32C163.881 258.448 164.132 258.565 164.292 258.672C164.452 258.768 164.644 258.907 164.868 259.088C165.102 259.259 165.268 259.435 165.364 259.616C165.47 259.787 165.561 260 165.635 260.256C165.721 260.501 165.764 260.768 165.764 261.056C165.764 262.005 165.417 262.768 164.724 263.344C164.03 263.909 163.118 264.192 161.988 264.192ZM171.814 255.808C172.956 255.808 173.926 256.213 174.726 257.024C175.537 257.835 175.942 258.827 175.942 260C175.942 261.173 175.537 262.165 174.726 262.976C173.926 263.787 172.956 264.192 171.814 264.192C170.396 264.192 169.318 263.605 168.582 262.432V267.2H167.526V256H168.582V257.568C169.318 256.395 170.396 255.808 171.814 255.808ZM169.494 262.256C170.102 262.864 170.849 263.168 171.734 263.168C172.62 263.168 173.366 262.864 173.974 262.256C174.582 261.637 174.886 260.885 174.886 260C174.886 259.115 174.582 258.368 173.974 257.76C173.366 257.141 172.62 256.832 171.734 256.832C170.849 256.832 170.102 257.141 169.494 257.76C168.886 258.368 168.582 259.115 168.582 260C168.582 260.885 168.886 261.637 169.494 262.256ZM181.394 255.808C182.578 255.808 183.533 256.229 184.258 257.072C184.994 257.904 185.362 258.891 185.362 260.032C185.362 260.149 185.351 260.315 185.33 260.528H178.306C178.413 261.339 178.754 261.984 179.33 262.464C179.917 262.933 180.637 263.168 181.49 263.168C182.098 263.168 182.621 263.045 183.058 262.8C183.506 262.544 183.842 262.213 184.066 261.808L184.994 262.352C184.642 262.917 184.162 263.365 183.554 263.696C182.946 264.027 182.253 264.192 181.474 264.192C180.215 264.192 179.191 263.797 178.402 263.008C177.613 262.219 177.218 261.216 177.218 260C177.218 258.805 177.607 257.808 178.386 257.008C179.165 256.208 180.167 255.808 181.394 255.808ZM181.394 256.832C180.562 256.832 179.863 257.083 179.298 257.584C178.743 258.075 178.413 258.715 178.306 259.504H184.274C184.167 258.661 183.842 258.005 183.298 257.536C182.754 257.067 182.119 256.832 181.394 256.832ZM190.738 255.808C191.922 255.808 192.877 256.229 193.602 257.072C194.338 257.904 194.706 258.891 194.706 260.032C194.706 260.149 194.695 260.315 194.674 260.528H187.65C187.757 261.339 188.098 261.984 188.674 262.464C189.261 262.933 189.981 263.168 190.834 263.168C191.442 263.168 191.965 263.045 192.402 262.8C192.85 262.544 193.186 262.213 193.41 261.808L194.338 262.352C193.986 262.917 193.506 263.365 192.898 263.696C192.29 264.027 191.597 264.192 190.818 264.192C189.559 264.192 188.535 263.797 187.746 263.008C186.957 262.219 186.562 261.216 186.562 260C186.562 258.805 186.951 257.808 187.73 257.008C188.509 256.208 189.511 255.808 190.738 255.808ZM190.738 256.832C189.906 256.832 189.207 257.083 188.642 257.584C188.087 258.075 187.757 258.715 187.65 259.504H193.618C193.511 258.661 193.186 258.005 192.642 257.536C192.098 257.067 191.463 256.832 190.738 256.832ZM203.266 252.8H204.322V264H203.266V262.432C202.53 263.605 201.452 264.192 200.034 264.192C198.892 264.192 197.916 263.787 197.106 262.976C196.306 262.165 195.906 261.173 195.906 260C195.906 258.827 196.306 257.835 197.106 257.024C197.916 256.213 198.892 255.808 200.034 255.808C201.452 255.808 202.53 256.395 203.266 257.568V252.8ZM197.874 262.256C198.482 262.864 199.228 263.168 200.114 263.168C200.999 263.168 201.746 262.864 202.354 262.256C202.962 261.637 203.266 260.885 203.266 260C203.266 259.115 202.962 258.368 202.354 257.76C201.746 257.141 200.999 256.832 200.114 256.832C199.228 256.832 198.482 257.141 197.874 257.76C197.266 258.368 196.962 259.115 196.962 260C196.962 260.885 197.266 261.637 197.874 262.256ZM212.158 265.6C210.984 263.253 210.398 260.853 210.398 258.4C210.398 255.947 210.984 253.547 212.158 251.2H213.214C212.04 253.547 211.454 255.947 211.454 258.4C211.454 260.853 212.04 263.253 213.214 265.6H212.158ZM215.64 258.096C215.64 258.459 215.8 258.747 216.12 258.96C216.44 259.173 216.829 259.339 217.288 259.456C217.746 259.573 218.205 259.707 218.664 259.856C219.122 259.995 219.512 260.235 219.832 260.576C220.152 260.907 220.312 261.344 220.312 261.888C220.312 262.571 220.04 263.125 219.496 263.552C218.962 263.979 218.269 264.192 217.416 264.192C216.648 264.192 215.992 264.021 215.448 263.68C214.914 263.339 214.541 262.896 214.328 262.352L215.224 261.824C215.373 262.24 215.64 262.571 216.024 262.816C216.418 263.051 216.882 263.168 217.416 263.168C217.938 263.168 218.376 263.067 218.728 262.864C219.08 262.651 219.256 262.325 219.256 261.888C219.256 261.525 219.096 261.237 218.776 261.024C218.456 260.811 218.066 260.645 217.608 260.528C217.149 260.411 216.69 260.283 216.232 260.144C215.773 259.995 215.384 259.755 215.064 259.424C214.744 259.083 214.584 258.64 214.584 258.096C214.584 257.445 214.84 256.901 215.352 256.464C215.874 256.027 216.53 255.808 217.32 255.808C217.97 255.808 218.541 255.957 219.032 256.256C219.522 256.544 219.885 256.939 220.12 257.44L219.24 257.952C218.93 257.205 218.29 256.832 217.32 256.832C216.861 256.832 216.466 256.944 216.136 257.168C215.805 257.381 215.64 257.691 215.64 258.096ZM225.535 255.808C226.719 255.808 227.673 256.229 228.399 257.072C229.135 257.904 229.503 258.891 229.503 260.032C229.503 260.149 229.492 260.315 229.471 260.528H222.447C222.553 261.339 222.895 261.984 223.471 262.464C224.057 262.933 224.777 263.168 225.631 263.168C226.239 263.168 226.761 263.045 227.199 262.8C227.647 262.544 227.983 262.213 228.207 261.808L229.135 262.352C228.783 262.917 228.303 263.365 227.695 263.696C227.087 264.027 226.393 264.192 225.615 264.192C224.356 264.192 223.332 263.797 222.543 263.008C221.753 262.219 221.359 261.216 221.359 260C221.359 258.805 221.748 257.808 222.527 257.008C223.305 256.208 224.308 255.808 225.535 255.808ZM225.535 256.832C224.703 256.832 224.004 257.083 223.439 257.584C222.884 258.075 222.553 258.715 222.447 259.504H228.415C228.308 258.661 227.983 258.005 227.439 257.536C226.895 257.067 226.26 256.832 225.535 256.832ZM234.911 264.192C233.705 264.192 232.703 263.792 231.903 262.992C231.103 262.181 230.703 261.184 230.703 260C230.703 258.816 231.103 257.824 231.903 257.024C232.703 256.213 233.705 255.808 234.911 255.808C235.7 255.808 236.409 256 237.039 256.384C237.668 256.757 238.127 257.264 238.415 257.904L237.551 258.4C237.337 257.92 236.991 257.541 236.511 257.264C236.041 256.976 235.508 256.832 234.911 256.832C234.025 256.832 233.279 257.141 232.671 257.76C232.063 258.368 231.759 259.115 231.759 260C231.759 260.885 232.063 261.637 232.671 262.256C233.279 262.864 234.025 263.168 234.911 263.168C235.508 263.168 236.041 263.029 236.511 262.752C236.98 262.464 237.348 262.08 237.615 261.6L238.495 262.112C238.164 262.752 237.679 263.259 237.039 263.632C236.399 264.005 235.689 264.192 234.911 264.192ZM240.427 265.6H239.371C240.544 263.253 241.131 260.853 241.131 258.4C241.131 255.947 240.544 253.547 239.371 251.2H240.427C241.6 253.547 242.187 255.947 242.187 258.4C242.187 260.853 241.6 263.253 240.427 265.6Z" fill="#3B4068"/>
<path d="M609.121 260.06V262.62H607.621V265H604.841V262.62H598.221V260.06L602.881 251H605.841L601.201 260.06H604.841V256.74H607.621V260.06H609.121ZM615.702 265.28C613.956 265.28 612.582 264.62 611.582 263.3C610.596 261.967 610.102 260.2 610.102 258C610.102 255.8 610.596 254.04 611.582 252.72C612.582 251.387 613.956 250.72 615.702 250.72C617.462 250.72 618.836 251.387 619.822 252.72C620.809 254.04 621.302 255.8 621.302 258C621.302 260.2 620.809 261.967 619.822 263.3C618.836 264.62 617.462 265.28 615.702 265.28ZM613.582 261.42C614.062 262.193 614.769 262.58 615.702 262.58C616.636 262.58 617.342 262.187 617.822 261.4C618.316 260.613 618.562 259.48 618.562 258C618.562 256.507 618.316 255.367 617.822 254.58C617.342 253.793 616.636 253.4 615.702 253.4C614.769 253.4 614.062 253.793 613.582 254.58C613.102 255.367 612.862 256.507 612.862 258C612.862 259.493 613.102 260.633 613.582 261.42Z" fill="#3B4068"/>
<path d="M638.5 257.75L635.25 254.5L632 257.75" stroke="#019C49" stroke-linecap="round" stroke-linejoin="round"/>
<path d="M635.25 261V254.5" stroke="#019C49" stroke-linecap="round" stroke-linejoin="round"/>
<rect opacity="0.2" x="64" y="288" width="576" height="12" rx="6" fill="#C3C5D6"/>
<rect x="64" y="288" width="391.261" height="12" rx="6" fill="#ED589D"/>
<rect x="64" y="288" width="391.261" height="12" rx="6" fill="url(#paint2_linear_13432_33562)"/>
<path d="M680.32 172.8V173.856H676.88V184H675.76V173.856H672.32V172.8H680.32ZM681.692 177.328C682.182 176.357 683.025 175.872 684.22 175.872V176.896C683.494 176.896 682.892 177.109 682.412 177.536C681.932 177.963 681.692 178.635 681.692 179.552V184H680.636V176H681.692V177.328ZM692.062 176H693.119V184H692.062V182.432C691.327 183.605 690.249 184.192 688.831 184.192C687.689 184.192 686.713 183.787 685.903 182.976C685.103 182.165 684.703 181.173 684.703 180C684.703 178.827 685.103 177.835 685.903 177.024C686.713 176.213 687.689 175.808 688.831 175.808C690.249 175.808 691.327 176.395 692.062 177.568V176ZM686.671 182.256C687.279 182.864 688.025 183.168 688.911 183.168C689.796 183.168 690.543 182.864 691.151 182.256C691.759 181.637 692.062 180.885 692.062 180C692.062 179.115 691.759 178.368 691.151 177.76C690.543 177.141 689.796 176.832 688.911 176.832C688.025 176.832 687.279 177.141 686.671 177.76C686.063 178.368 685.759 179.115 685.759 180C685.759 180.885 686.063 181.637 686.671 182.256ZM699.098 175.808C700.069 175.808 700.832 176.107 701.386 176.704C701.952 177.291 702.234 178.085 702.234 179.088V184H701.178V179.088C701.178 178.373 700.986 177.819 700.602 177.424C700.229 177.029 699.696 176.832 699.002 176.832C698.234 176.832 697.61 177.077 697.13 177.568C696.65 178.048 696.41 178.795 696.41 179.808V184H695.354V176H696.41V177.248C697.008 176.288 697.904 175.808 699.098 175.808ZM705.108 178.096C705.108 178.459 705.268 178.747 705.588 178.96C705.908 179.173 706.298 179.339 706.756 179.456C707.215 179.573 707.674 179.707 708.132 179.856C708.591 179.995 708.98 180.235 709.3 180.576C709.62 180.907 709.78 181.344 709.78 181.888C709.78 182.571 709.508 183.125 708.964 183.552C708.431 183.979 707.738 184.192 706.884 184.192C706.116 184.192 705.46 184.021 704.916 183.68C704.383 183.339 704.01 182.896 703.796 182.352L704.692 181.824C704.842 182.24 705.108 182.571 705.492 182.816C705.887 183.051 706.351 183.168 706.884 183.168C707.407 183.168 707.844 183.067 708.196 182.864C708.548 182.651 708.724 182.325 708.724 181.888C708.724 181.525 708.564 181.237 708.244 181.024C707.924 180.811 707.535 180.645 707.076 180.528C706.618 180.411 706.159 180.283 705.7 180.144C705.242 179.995 704.852 179.755 704.532 179.424C704.212 179.083 704.052 178.64 704.052 178.096C704.052 177.445 704.308 176.901 704.82 176.464C705.343 176.027 705.999 175.808 706.788 175.808C707.439 175.808 708.01 175.957 708.5 176.256C708.991 176.544 709.354 176.939 709.588 177.44L708.708 177.952C708.399 177.205 707.759 176.832 706.788 176.832C706.33 176.832 705.935 176.944 705.604 177.168C705.274 177.381 705.108 177.691 705.108 178.096ZM712.536 174.08C712.386 174.229 712.205 174.304 711.992 174.304C711.778 174.304 711.597 174.229 711.448 174.08C711.298 173.931 711.224 173.749 711.224 173.536C711.224 173.323 711.298 173.141 711.448 172.992C711.597 172.843 711.778 172.768 711.992 172.768C712.205 172.768 712.386 172.843 712.536 172.992C712.685 173.141 712.76 173.323 712.76 173.536C712.76 173.749 712.685 173.931 712.536 174.08ZM711.464 184V176H712.52V184H711.464ZM719.001 177.024H716.697V181.872C716.697 182.309 716.782 182.624 716.953 182.816C717.123 182.997 717.379 183.093 717.721 183.104C718.062 183.104 718.489 183.093 719.001 183.072V184C717.881 184.171 717.038 184.091 716.473 183.76C715.918 183.429 715.641 182.8 715.641 181.872V177.024H713.961V176H715.641V174.08L716.697 173.76V176H719.001V177.024ZM721.833 174.08C721.683 174.229 721.502 174.304 721.289 174.304C721.075 174.304 720.894 174.229 720.745 174.08C720.595 173.931 720.521 173.749 720.521 173.536C720.521 173.323 720.595 173.141 720.745 172.992C720.894 172.843 721.075 172.768 721.289 172.768C721.502 172.768 721.683 172.843 721.833 172.992C721.982 173.141 722.057 173.323 722.057 173.536C722.057 173.749 721.982 173.931 721.833 174.08ZM720.761 184V176H721.817V184H720.761ZM730.762 182.992C729.951 183.792 728.959 184.192 727.786 184.192C726.612 184.192 725.615 183.792 724.794 182.992C723.983 182.181 723.578 181.184 723.578 180C723.578 178.816 723.983 177.824 724.794 177.024C725.615 176.213 726.612 175.808 727.786 175.808C728.959 175.808 729.951 176.213 730.762 177.024C731.583 177.824 731.994 178.816 731.994 180C731.994 181.184 731.583 182.181 730.762 182.992ZM725.546 182.256C726.154 182.864 726.9 183.168 727.786 183.168C728.671 183.168 729.418 182.864 730.026 182.256C730.634 181.637 730.938 180.885 730.938 180C730.938 179.115 730.634 178.368 730.026 177.76C729.418 177.141 728.671 176.832 727.786 176.832C726.9 176.832 726.154 177.141 725.546 177.76C724.938 178.368 724.634 179.115 724.634 180C724.634 180.885 724.938 181.637 725.546 182.256ZM737.505 175.808C738.475 175.808 739.238 176.107 739.793 176.704C740.358 177.291 740.641 178.085 740.641 179.088V184H739.585V179.088C739.585 178.373 739.393 177.819 739.009 177.424C738.635 177.029 738.102 176.832 737.409 176.832C736.641 176.832 736.017 177.077 735.537 177.568C735.057 178.048 734.817 178.795 734.817 179.808V184H733.761V176H734.817V177.248C735.414 176.288 736.31 175.808 737.505 175.808ZM750.923 177.024H748.619V181.872C748.619 182.309 748.704 182.624 748.875 182.816C749.045 182.997 749.301 183.093 749.643 183.104C749.984 183.104 750.411 183.093 750.923 183.072V184C749.803 184.171 748.96 184.091 748.395 183.76C747.84 183.429 747.562 182.8 747.562 181.872V177.024H745.883V176H747.562V174.08L748.619 173.76V176H750.923V177.024ZM753.755 174.08C753.605 174.229 753.424 174.304 753.211 174.304C752.997 174.304 752.816 174.229 752.667 174.08C752.517 173.931 752.443 173.749 752.443 173.536C752.443 173.323 752.517 173.141 752.667 172.992C752.816 172.843 752.997 172.768 753.211 172.768C753.424 172.768 753.605 172.843 753.755 172.992C753.904 173.141 753.979 173.323 753.979 173.536C753.979 173.749 753.904 173.931 753.755 174.08ZM752.683 184V176H753.739V184H752.683ZM764.507 175.808C765.403 175.808 766.123 176.096 766.667 176.672C767.222 177.248 767.499 178.027 767.499 179.008V184H766.443V179.008C766.443 178.315 766.262 177.781 765.899 177.408C765.547 177.024 765.078 176.832 764.491 176.832C763.83 176.832 763.291 177.056 762.875 177.504C762.47 177.941 762.267 178.629 762.267 179.568V184H761.211V179.008C761.211 178.304 761.041 177.765 760.699 177.392C760.369 177.019 759.915 176.832 759.339 176.832C758.699 176.832 758.155 177.056 757.707 177.504C757.259 177.952 757.035 178.64 757.035 179.568V184H755.979V176H757.035V177.168C757.611 176.261 758.427 175.808 759.483 175.808C760.635 175.808 761.446 176.293 761.915 177.264C762.491 176.293 763.355 175.808 764.507 175.808ZM773.238 175.808C774.422 175.808 775.377 176.229 776.102 177.072C776.838 177.904 777.206 178.891 777.206 180.032C777.206 180.149 777.195 180.315 777.174 180.528H770.15C770.257 181.339 770.598 181.984 771.174 182.464C771.761 182.933 772.481 183.168 773.334 183.168C773.942 183.168 774.465 183.045 774.902 182.8C775.35 182.544 775.686 182.213 775.91 181.808L776.838 182.352C776.486 182.917 776.006 183.365 775.398 183.696C774.79 184.027 774.097 184.192 773.318 184.192C772.059 184.192 771.035 183.797 770.246 183.008C769.457 182.219 769.062 181.216 769.062 180C769.062 178.805 769.451 177.808 770.23 177.008C771.009 176.208 772.011 175.808 773.238 175.808ZM773.238 176.832C772.406 176.832 771.707 177.083 771.142 177.584C770.587 178.075 770.257 178.715 770.15 179.504H776.118C776.011 178.661 775.686 178.005 775.142 177.536C774.598 177.067 773.963 176.832 773.238 176.832ZM784.486 185.6C783.312 183.253 782.726 180.853 782.726 178.4C782.726 175.947 783.312 173.547 784.486 171.2H785.542C784.368 173.547 783.782 175.947 783.782 178.4C783.782 180.853 784.368 183.253 785.542 185.6H784.486ZM787.968 178.096C787.968 178.459 788.128 178.747 788.448 178.96C788.768 179.173 789.157 179.339 789.616 179.456C790.074 179.573 790.533 179.707 790.992 179.856C791.45 179.995 791.84 180.235 792.16 180.576C792.48 180.907 792.64 181.344 792.64 181.888C792.64 182.571 792.368 183.125 791.824 183.552C791.29 183.979 790.597 184.192 789.744 184.192C788.976 184.192 788.32 184.021 787.776 183.68C787.242 183.339 786.869 182.896 786.656 182.352L787.552 181.824C787.701 182.24 787.968 182.571 788.352 182.816C788.746 183.051 789.21 183.168 789.744 183.168C790.266 183.168 790.704 183.067 791.056 182.864C791.408 182.651 791.584 182.325 791.584 181.888C791.584 181.525 791.424 181.237 791.104 181.024C790.784 180.811 790.394 180.645 789.936 180.528C789.477 180.411 789.018 180.283 788.56 180.144C788.101 179.995 787.712 179.755 787.392 179.424C787.072 179.083 786.912 178.64 786.912 178.096C786.912 177.445 787.168 176.901 787.68 176.464C788.202 176.027 788.858 175.808 789.648 175.808C790.298 175.808 790.869 175.957 791.36 176.256C791.85 176.544 792.213 176.939 792.448 177.44L791.568 177.952C791.258 177.205 790.618 176.832 789.648 176.832C789.189 176.832 788.794 176.944 788.464 177.168C788.133 177.381 787.968 177.691 787.968 178.096ZM797.863 175.808C799.047 175.808 800.002 176.229 800.727 177.072C801.463 177.904 801.831 178.891 801.831 180.032C801.831 180.149 801.82 180.315 801.799 180.528H794.775C794.882 181.339 795.223 181.984 795.799 182.464C796.386 182.933 797.106 183.168 797.959 183.168C798.567 183.168 799.09 183.045 799.527 182.8C799.975 182.544 800.311 182.213 800.535 181.808L801.463 182.352C801.111 182.917 800.631 183.365 800.023 183.696C799.415 184.027 798.722 184.192 797.943 184.192C796.684 184.192 795.66 183.797 794.871 183.008C794.082 182.219 793.687 181.216 793.687 180C793.687 178.805 794.076 177.808 794.855 177.008C795.634 176.208 796.636 175.808 797.863 175.808ZM797.863 176.832C797.031 176.832 796.332 177.083 795.767 177.584C795.212 178.075 794.882 178.715 794.775 179.504H800.743C800.636 178.661 800.311 178.005 799.767 177.536C799.223 177.067 798.588 176.832 797.863 176.832ZM807.239 184.192C806.033 184.192 805.031 183.792 804.231 182.992C803.431 182.181 803.031 181.184 803.031 180C803.031 178.816 803.431 177.824 804.231 177.024C805.031 176.213 806.033 175.808 807.239 175.808C808.028 175.808 808.737 176 809.367 176.384C809.996 176.757 810.455 177.264 810.743 177.904L809.879 178.4C809.665 177.92 809.319 177.541 808.839 177.264C808.369 176.976 807.836 176.832 807.239 176.832C806.353 176.832 805.607 177.141 804.999 177.76C804.391 178.368 804.087 179.115 804.087 180C804.087 180.885 804.391 181.637 804.999 182.256C805.607 182.864 806.353 183.168 807.239 183.168C807.836 183.168 808.369 183.029 808.839 182.752C809.308 182.464 809.676 182.08 809.943 181.6L810.823 182.112C810.492 182.752 810.007 183.259 809.367 183.632C808.727 184.005 808.017 184.192 807.239 184.192ZM812.755 185.6H811.699C812.872 183.253 813.459 180.853 813.459 178.4C813.459 175.947 812.872 173.547 811.699 171.2H812.755C813.928 173.547 814.515 175.947 814.515 178.4C814.515 180.853 813.928 183.253 812.755 185.6Z" fill="#3B4068"/>
<path d="M1209.46 176.68C1210.41 176.96 1211.17 177.453 1211.76 178.16C1212.36 178.853 1212.66 179.693 1212.66 180.68C1212.66 182.12 1212.17 183.247 1211.2 184.06C1210.24 184.873 1209.06 185.28 1207.66 185.28C1206.57 185.28 1205.59 185.033 1204.72 184.54C1203.87 184.033 1203.25 183.293 1202.86 182.32L1205.22 180.96C1205.57 182.04 1206.38 182.58 1207.66 182.58C1208.37 182.58 1208.91 182.413 1209.3 182.08C1209.7 181.733 1209.9 181.267 1209.9 180.68C1209.9 180.107 1209.7 179.647 1209.3 179.3C1208.91 178.953 1208.37 178.78 1207.66 178.78H1207.06L1206 177.18L1208.76 173.58H1203.28V171H1212.08V173.28L1209.46 176.68ZM1223.55 175.58C1223.55 176.66 1223.27 177.607 1222.71 178.42H1222.73L1218.37 185H1215.21L1218.33 180.44C1216.87 180.413 1215.69 179.953 1214.77 179.06C1213.86 178.153 1213.41 176.993 1213.41 175.58C1213.41 174.153 1213.87 172.987 1214.81 172.08C1215.75 171.173 1216.97 170.72 1218.47 170.72C1219.97 170.72 1221.19 171.173 1222.13 172.08C1223.07 172.973 1223.55 174.14 1223.55 175.58ZM1216.15 175.58C1216.15 176.273 1216.37 176.827 1216.81 177.24C1217.26 177.653 1217.81 177.86 1218.47 177.86C1219.15 177.86 1219.71 177.653 1220.15 177.24C1220.59 176.827 1220.81 176.273 1220.81 175.58C1220.81 174.887 1220.59 174.34 1220.15 173.94C1219.71 173.527 1219.15 173.32 1218.47 173.32C1217.81 173.32 1217.26 173.527 1216.81 173.94C1216.37 174.353 1216.15 174.9 1216.15 175.58Z" fill="#3B4068"/>
<path d="M1245.6 178.4L1240.4 183.6L1235.2 178.4" stroke="#D84339" stroke-linecap="round" stroke-linejoin="round"/>
<path d="M1240.4 173.2V183.6" stroke="#D84339" stroke-linecap="round" stroke-linejoin="round"/>
<rect opacity="0.2" x="672" y="208" width="576" height="12" rx="6" fill="#C3C5D6"/>
<rect x="672" y="208" width="391.052" height="12" rx="6" fill="#3AACFF"/>
<rect x="672" y="208" width="391.052" height="12" rx="6" fill="url(#paint3_linear_13432_33562)"/>
<path d="M681.36 252.8L677.312 259.408V264H676.192V259.376L672.16 252.8H673.424L676.768 258.288L680.096 252.8H681.36ZM687.922 256H688.978V264H687.922V262.432C687.186 263.605 686.109 264.192 684.69 264.192C683.549 264.192 682.573 263.787 681.762 262.976C680.962 262.165 680.562 261.173 680.562 260C680.562 258.827 680.962 257.835 681.762 257.024C682.573 256.213 683.549 255.808 684.69 255.808C686.109 255.808 687.186 256.395 687.922 257.568V256ZM682.53 262.256C683.138 262.864 683.885 263.168 684.77 263.168C685.655 263.168 686.402 262.864 687.01 262.256C687.618 261.637 687.922 260.885 687.922 260C687.922 259.115 687.618 258.368 687.01 257.76C686.402 257.141 685.655 256.832 684.77 256.832C683.885 256.832 683.138 257.141 682.53 257.76C681.922 258.368 681.618 259.115 681.618 260C681.618 260.885 681.922 261.637 682.53 262.256ZM692.27 257.328C692.76 256.357 693.603 255.872 694.798 255.872V256.896C694.072 256.896 693.47 257.109 692.99 257.536C692.51 257.963 692.27 258.635 692.27 259.552V264H691.214V256H692.27V257.328ZM702.641 252.8H703.697V264H702.641V262.432C701.905 263.605 700.827 264.192 699.409 264.192C698.267 264.192 697.291 263.787 696.481 262.976C695.681 262.165 695.281 261.173 695.281 260C695.281 258.827 695.681 257.835 696.481 257.024C697.291 256.213 698.267 255.808 699.409 255.808C700.827 255.808 701.905 256.395 702.641 257.568V252.8ZM697.249 262.256C697.857 262.864 698.603 263.168 699.489 263.168C700.374 263.168 701.121 262.864 701.729 262.256C702.337 261.637 702.641 260.885 702.641 260C702.641 259.115 702.337 258.368 701.729 257.76C701.121 257.141 700.374 256.832 699.489 256.832C698.603 256.832 697.857 257.141 697.249 257.76C696.641 258.368 696.337 259.115 696.337 260C696.337 260.885 696.641 261.637 697.249 262.256ZM706.765 258.096C706.765 258.459 706.925 258.747 707.245 258.96C707.565 259.173 707.954 259.339 708.413 259.456C708.871 259.573 709.33 259.707 709.789 259.856C710.247 259.995 710.637 260.235 710.957 260.576C711.277 260.907 711.437 261.344 711.437 261.888C711.437 262.571 711.165 263.125 710.621 263.552C710.087 263.979 709.394 264.192 708.541 264.192C707.773 264.192 707.117 264.021 706.573 263.68C706.039 263.339 705.666 262.896 705.453 262.352L706.349 261.824C706.498 262.24 706.765 262.571 707.149 262.816C707.543 263.051 708.007 263.168 708.541 263.168C709.063 263.168 709.501 263.067 709.853 262.864C710.205 262.651 710.381 262.325 710.381 261.888C710.381 261.525 710.221 261.237 709.901 261.024C709.581 260.811 709.191 260.645 708.733 260.528C708.274 260.411 707.815 260.283 707.357 260.144C706.898 259.995 706.509 259.755 706.189 259.424C705.869 259.083 705.709 258.64 705.709 258.096C705.709 257.445 705.965 256.901 706.477 256.464C706.999 256.027 707.655 255.808 708.445 255.808C709.095 255.808 709.666 255.957 710.157 256.256C710.647 256.544 711.01 256.939 711.245 257.44L710.365 257.952C710.055 257.205 709.415 256.832 708.445 256.832C707.986 256.832 707.591 256.944 707.261 257.168C706.93 257.381 706.765 257.691 706.765 258.096ZM724.078 256H725.134V264H724.078V262.432C723.342 263.605 722.265 264.192 720.846 264.192C719.705 264.192 718.729 263.787 717.918 262.976C717.118 262.165 716.718 261.173 716.718 260C716.718 258.827 717.118 257.835 717.918 257.024C718.729 256.213 719.705 255.808 720.846 255.808C722.265 255.808 723.342 256.395 724.078 257.568V256ZM718.686 262.256C719.294 262.864 720.041 263.168 720.926 263.168C721.811 263.168 722.558 262.864 723.166 262.256C723.774 261.637 724.078 260.885 724.078 260C724.078 259.115 723.774 258.368 723.166 257.76C722.558 257.141 721.811 256.832 720.926 256.832C720.041 256.832 719.294 257.141 718.686 257.76C718.078 258.368 717.774 259.115 717.774 260C717.774 260.885 718.078 261.637 718.686 262.256ZM731.37 253.632C730.591 253.568 730.01 253.701 729.626 254.032C729.253 254.363 729.066 254.912 729.066 255.68V256H731.37V257.024H729.066V264H728.01V257.024H726.65V256H728.01V255.68C728.01 254.635 728.298 253.845 728.874 253.312C729.461 252.768 730.293 252.533 731.37 252.608V253.632ZM737.048 257.024H734.744V261.872C734.744 262.309 734.829 262.624 735 262.816C735.17 262.997 735.426 263.093 735.768 263.104C736.109 263.104 736.536 263.093 737.048 263.072V264C735.928 264.171 735.085 264.091 734.52 263.76C733.965 263.429 733.688 262.8 733.688 261.872V257.024H732.008V256H733.688V254.08L734.744 253.76V256H737.048V257.024ZM742.019 255.808C743.203 255.808 744.158 256.229 744.883 257.072C745.619 257.904 745.987 258.891 745.987 260.032C745.987 260.149 745.976 260.315 745.955 260.528H738.931C739.038 261.339 739.379 261.984 739.955 262.464C740.542 262.933 741.262 263.168 742.115 263.168C742.723 263.168 743.246 263.045 743.683 262.8C744.131 262.544 744.467 262.213 744.691 261.808L745.619 262.352C745.267 262.917 744.787 263.365 744.179 263.696C743.571 264.027 742.878 264.192 742.099 264.192C740.84 264.192 739.816 263.797 739.027 263.008C738.238 262.219 737.843 261.216 737.843 260C737.843 258.805 738.232 257.808 739.011 257.008C739.79 256.208 740.792 255.808 742.019 255.808ZM742.019 256.832C741.187 256.832 740.488 257.083 739.923 257.584C739.368 258.075 739.038 258.715 738.931 259.504H744.899C744.792 258.661 744.467 258.005 743.923 257.536C743.379 257.067 742.744 256.832 742.019 256.832ZM748.723 257.328C749.214 256.357 750.056 255.872 751.251 255.872V256.896C750.526 256.896 749.923 257.109 749.443 257.536C748.963 257.963 748.723 258.635 748.723 259.552V264H747.667V256H748.723V257.328ZM760.426 264.192C759.221 264.192 758.218 263.792 757.418 262.992C756.618 262.181 756.218 261.184 756.218 260C756.218 258.816 756.618 257.824 757.418 257.024C758.218 256.213 759.221 255.808 760.426 255.808C761.215 255.808 761.925 256 762.554 256.384C763.183 256.757 763.642 257.264 763.93 257.904L763.066 258.4C762.853 257.92 762.506 257.541 762.026 257.264C761.557 256.976 761.023 256.832 760.426 256.832C759.541 256.832 758.794 257.141 758.186 257.76C757.578 258.368 757.274 259.115 757.274 260C757.274 260.885 757.578 261.637 758.186 262.256C758.794 262.864 759.541 263.168 760.426 263.168C761.023 263.168 761.557 263.029 762.026 262.752C762.495 262.464 762.863 262.08 763.13 261.6L764.01 262.112C763.679 262.752 763.194 263.259 762.554 263.632C761.914 264.005 761.205 264.192 760.426 264.192ZM772.328 256H773.384V264H772.328V262.432C771.592 263.605 770.515 264.192 769.096 264.192C767.955 264.192 766.979 263.787 766.168 262.976C765.368 262.165 764.968 261.173 764.968 260C764.968 258.827 765.368 257.835 766.168 257.024C766.979 256.213 767.955 255.808 769.096 255.808C770.515 255.808 771.592 256.395 772.328 257.568V256ZM766.936 262.256C767.544 262.864 768.291 263.168 769.176 263.168C770.061 263.168 770.808 262.864 771.416 262.256C772.024 261.637 772.328 260.885 772.328 260C772.328 259.115 772.024 258.368 771.416 257.76C770.808 257.141 770.061 256.832 769.176 256.832C768.291 256.832 767.544 257.141 766.936 257.76C766.328 258.368 766.024 259.115 766.024 260C766.024 260.885 766.328 261.637 766.936 262.256ZM779.86 257.024H777.556V261.872C777.556 262.309 777.641 262.624 777.812 262.816C777.983 262.997 778.239 263.093 778.58 263.104C778.921 263.104 779.348 263.093 779.86 263.072V264C778.74 264.171 777.897 264.091 777.332 263.76C776.777 263.429 776.5 262.8 776.5 261.872V257.024H774.82V256H776.5V254.08L777.556 253.76V256H779.86V257.024ZM784.864 264.192C783.658 264.192 782.656 263.792 781.856 262.992C781.056 262.181 780.656 261.184 780.656 260C780.656 258.816 781.056 257.824 781.856 257.024C782.656 256.213 783.658 255.808 784.864 255.808C785.653 255.808 786.362 256 786.992 256.384C787.621 256.757 788.08 257.264 788.368 257.904L787.504 258.4C787.29 257.92 786.944 257.541 786.464 257.264C785.994 256.976 785.461 256.832 784.864 256.832C783.978 256.832 783.232 257.141 782.624 257.76C782.016 258.368 781.712 259.115 781.712 260C781.712 260.885 782.016 261.637 782.624 262.256C783.232 262.864 783.978 263.168 784.864 263.168C785.461 263.168 785.994 263.029 786.464 262.752C786.933 262.464 787.301 262.08 787.568 261.6L788.448 262.112C788.117 262.752 787.632 263.259 786.992 263.632C786.352 264.005 785.642 264.192 784.864 264.192ZM793.708 255.808C794.678 255.808 795.441 256.107 795.996 256.704C796.561 257.291 796.844 258.085 796.844 259.088V264H795.788V259.088C795.788 258.373 795.596 257.819 795.212 257.424C794.838 257.029 794.305 256.832 793.612 256.832C792.844 256.832 792.22 257.077 791.74 257.568C791.26 258.048 791.02 258.795 791.02 259.808V264H789.964V252.8H791.02V257.248C791.617 256.288 792.513 255.808 793.708 255.808ZM804.486 265.6C803.312 263.253 802.726 260.853 802.726 258.4C802.726 255.947 803.312 253.547 804.486 251.2H805.542C804.368 253.547 803.782 255.947 803.782 258.4C803.782 260.853 804.368 263.253 805.542 265.6H804.486ZM815.376 252.8L811.328 259.408V264H810.208V259.376L806.176 252.8H807.44L810.784 258.288L814.112 252.8H815.376ZM822.83 264L821.79 261.248H816.478L815.438 264H814.254L818.558 252.8H819.71L824.014 264H822.83ZM816.878 260.192H821.39L819.134 254.192L816.878 260.192ZM830.278 264.192C828.582 264.192 827.179 263.632 826.07 262.512C824.96 261.392 824.406 260.021 824.406 258.4C824.406 256.779 824.96 255.408 826.07 254.288C827.179 253.168 828.582 252.608 830.278 252.608C831.312 252.608 832.262 252.859 833.126 253.36C833.99 253.851 834.656 254.517 835.126 255.36L834.134 255.936C833.782 255.253 833.259 254.709 832.566 254.304C831.872 253.899 831.11 253.696 830.278 253.696C828.88 253.696 827.739 254.149 826.854 255.056C825.968 255.963 825.526 257.077 825.526 258.4C825.526 259.723 825.968 260.837 826.854 261.744C827.739 262.651 828.88 263.104 830.278 263.104C831.11 263.104 831.872 262.901 832.566 262.496C833.259 262.091 833.782 261.547 834.134 260.864L835.126 261.424C834.667 262.267 834 262.939 833.126 263.44C832.262 263.941 831.312 264.192 830.278 264.192ZM837.224 265.6H836.168C837.341 263.253 837.928 260.853 837.928 258.4C837.928 255.947 837.341 253.547 836.168 251.2H837.224C838.397 253.547 838.984 255.947 838.984 258.4C838.984 260.853 838.397 263.253 837.224 265.6Z" fill="#3B4068"/>
<path d="M1235.12 260.06V262.62H1233.62V265H1230.84V262.62H1224.22V260.06L1228.88 251H1231.84L1227.2 260.06H1230.84V256.74H1233.62V260.06H1235.12ZM1241.7 265.28C1239.96 265.28 1238.58 264.62 1237.58 263.3C1236.6 261.967 1236.1 260.2 1236.1 258C1236.1 255.8 1236.6 254.04 1237.58 252.72C1238.58 251.387 1239.96 250.72 1241.7 250.72C1243.46 250.72 1244.84 251.387 1245.82 252.72C1246.81 254.04 1247.3 255.8 1247.3 258C1247.3 260.2 1246.81 261.967 1245.82 263.3C1244.84 264.62 1243.46 265.28 1241.7 265.28ZM1239.58 261.42C1240.06 262.193 1240.77 262.58 1241.7 262.58C1242.64 262.58 1243.34 262.187 1243.82 261.4C1244.32 260.613 1244.56 259.48 1244.56 258C1244.56 256.507 1244.32 255.367 1243.82 254.58C1243.34 253.793 1242.64 253.4 1241.7 253.4C1240.77 253.4 1240.06 253.793 1239.58 254.58C1239.1 255.367 1238.86 256.507 1238.86 258C1238.86 259.493 1239.1 260.633 1239.58 261.42Z" fill="#3B4068"/>
<rect opacity="0.2" x="672" y="288" width="576" height="12" rx="6" fill="#C3C5D6"/>
<rect x="672" y="288" width="391.052" height="12" rx="6" fill="#6C63F0"/>
<rect x="672" y="288" width="391.052" height="12" rx="6" fill="url(#paint4_linear_13432_33562)"/>
<defs>
<linearGradient id="paint0_linear_13432_33562" x1="1099.86" y1="118" x2="64" y2="118" gradientUnits="userSpaceOnUse">
<stop stop-color="#FF593F"/>
<stop offset="1" stop-color="#FFB3A7"/>
</linearGradient>
<linearGradient id="paint1_linear_13432_33562" x1="455" y1="214" x2="64" y2="214" gradientUnits="userSpaceOnUse">
<stop stop-color="#D96128"/>
<stop offset="1" stop-color="#FFCAB1"/>
</linearGradient>
<linearGradient id="paint2_linear_13432_33562" x1="455.209" y1="294" x2="64" y2="294" gradientUnits="userSpaceOnUse">
<stop stop-color="#2897DD"/>
<stop offset="1" stop-color="#CDECFF"/>
</linearGradient>
<linearGradient id="paint3_linear_13432_33562" x1="1063" y1="214" x2="672" y2="214" gradientUnits="userSpaceOnUse">
<stop stop-color="#1E854B"/>
<stop offset="1" stop-color="#D8F8E6"/>
</linearGradient>
<linearGradient id="paint4_linear_13432_33562" x1="1063" y1="294" x2="672" y2="294" gradientUnits="userSpaceOnUse">
<stop stop-color="#E8A015"/>
<stop offset="1" stop-color="#FFF4DF"/>
</linearGradient>
</defs>
</svg>
