<svg width="25" height="24" viewBox="0 0 25 24" fill="none" xmlns="http://www.w3.org/2000/svg">
<path d="M17.8309 0C20.4147 0.0788277 22.3796 1.10224 23.7843 3.14233C24.7057 4.48105 25.0989 5.99495 24.9801 7.62136C24.8465 9.42159 24.1202 10.9557 22.8543 12.2318C20.9773 14.1236 19.1012 16.0166 17.226 17.9107C15.3184 19.8349 13.4116 21.7598 11.5057 23.6854C11.288 23.905 11.0383 24.0276 10.7278 23.9946C10.5569 23.9833 10.3932 23.9205 10.258 23.8141C10.1229 23.7078 10.0226 23.5629 9.97007 23.3983C9.90598 23.2383 9.89164 23.0624 9.92897 22.8939C9.96629 22.7254 10.0535 22.5724 10.179 22.4551C10.84 21.7814 11.5063 21.1076 12.1706 20.44C15.3308 17.2509 18.4923 14.0599 21.6552 10.8668C22.8096 9.70052 23.3544 8.28634 23.2248 6.64376C23.1027 5.09416 22.4063 3.83022 21.1859 2.87485C20.2937 2.16718 19.1907 1.78445 18.0559 1.78878C16.75 1.7807 15.5596 2.17281 14.6022 3.0763C13.4165 4.19538 12.2841 5.37241 11.1344 6.53057C8.3873 9.2974 5.64172 12.0667 2.8977 14.8385C1.67056 16.0782 1.44089 17.8225 2.30483 19.3162C3.33033 21.0888 5.77258 21.6143 7.40698 20.3941C7.81491 20.0889 8.17277 19.711 8.53396 19.3465C11.7418 16.1152 14.9478 12.8813 18.1521 9.6446C18.566 9.22688 18.789 8.74246 18.7029 8.14486C18.6087 7.4947 18.2495 7.0379 17.6427 6.81422C16.9416 6.5555 16.3354 6.75493 15.8173 7.27775C13.4935 9.62372 11.1698 11.9695 8.84642 14.315C7.91439 15.2555 6.98191 16.1961 6.04898 17.1366C5.66175 17.5267 5.15834 17.5651 4.77445 17.241C4.36117 16.892 4.33914 16.2978 4.73372 15.8848C5.0148 15.589 5.30656 15.304 5.59365 15.0143C8.57669 12.0022 11.5608 8.98928 14.5461 5.97541C15.131 5.38386 15.8146 5.00522 16.6378 4.88058C18.3564 4.62254 20.1003 5.82853 20.4641 7.53242C20.7432 8.84218 20.394 9.95789 19.4627 10.9011C17.1628 13.2242 14.8619 15.5466 12.5599 17.8683C11.4583 18.9795 10.3566 20.0905 9.25502 21.2013C8.06327 22.3972 6.62516 22.9665 4.94804 22.8317C3.40244 22.7071 2.13791 22.0071 1.16382 20.7849C0.641955 20.1297 0.283213 19.3578 0.117619 18.5339C-0.14944 17.2309 0.0508539 15.9939 0.667759 14.8203C1.0176 14.1553 1.5357 13.6305 2.05446 13.1063C5.67354 9.45595 9.29196 5.80473 12.9097 2.1526C13.9135 1.11863 15.2055 0.417621 16.6138 0.142833C17.0538 0.0532252 17.5071 0.036382 17.8309 0Z" fill="#FF593F"/>
</svg>
