<svg width="249" height="150" viewBox="0 0 249 150" fill="none" xmlns="http://www.w3.org/2000/svg">
<path d="M249 50.25L199.16 0.459961H24.8896L74.6796 50.25H174.26L124.47 100L174.26 149.79H249L199.16 100L249 50.25ZM186.71 44L180.49 37.77H192.93L199.16 44H186.71ZM230.28 37.77L236.5 44H224.05L217.83 37.77H230.28ZM217.83 44H205.38L199.16 37.77H211.61L217.83 44ZM199.16 6.68996L205.38 12.91H192.93L186.71 6.68996H199.16ZM180.49 6.68996L186.71 12.91H174.26L168 6.68996H180.49ZM161.82 6.68996L168 12.91H155.59L149.37 6.68996H161.82ZM143.14 6.68996L149.37 12.91H136.92L130.7 6.68996H143.14ZM124.47 6.68996L130.7 12.91H118.25L112 6.68996H124.47ZM105.8 6.68996L112 12.91H99.5797L93.3596 6.68996H105.8ZM87.1297 6.68996L93.3596 12.91H80.9097L74.6796 6.68996H87.1297ZM43.5697 12.91L37.3396 6.68996H49.7896L55.9996 12.91H43.5697ZM55.9996 6.68996H68.4496L74.6696 12.91H62.2397L55.9996 6.68996ZM74.6796 44L68.4597 37.77H80.9097L87.1297 44H74.6796ZM93.3596 44L87.1297 37.77H99.5797L105.8 44H93.3596ZM112 44L105.8 37.8H118.25L124.47 44H112ZM130.67 44L124.44 37.77H136.89L143.14 44H130.67ZM149.34 44L143.11 37.77H155.56L161.82 44H149.34ZM168 44L161.78 37.77H174.22L180.49 44H168Z" fill="#FF593E"/>
<path d="M0 149.83H74.68L124.47 100.04H49.79L0 149.83Z" fill="#FF593E"/>
</svg>
