<svg width="113" height="57" viewBox="0 0 113 57" fill="none" xmlns="http://www.w3.org/2000/svg">
<path d="M70.2849 28.8427H62.3419C62.7149 29.8855 63.6099 30.407 65.027 30.407C65.9378 30.407 66.6538 30.1247 67.1751 29.56L69.8715 31.0952C68.7809 32.6237 67.1549 33.388 64.9933 33.388C63.1283 33.388 61.6214 32.8316 60.4724 31.7187C59.3565 30.6058 58.7977 29.204 58.7962 27.5131C58.7745 26.7406 58.9091 25.9716 59.192 25.2518C59.4749 24.532 59.9004 23.8761 60.4432 23.3231C61.5622 22.1968 62.9943 21.633 64.7394 21.6315C65.4955 21.6131 66.2469 21.7544 66.9441 22.046C67.6412 22.3376 68.2683 22.7728 68.7839 23.3231C69.8715 24.4196 70.416 25.814 70.4175 27.5064C70.4209 27.9552 70.3765 28.4032 70.2849 28.8427ZM62.2745 26.3488H67.0852C66.7572 25.1779 65.9662 24.5924 64.7124 24.5924C63.4167 24.5924 62.604 25.1779 62.2745 26.3488Z" fill="#FF593F"/>
<path d="M82.5909 28.8425H74.6479C75.0209 29.8853 75.916 30.4068 77.3331 30.4068C78.2408 30.4068 78.9569 30.1245 79.4811 29.5598L82.164 31.095C81.0765 32.6235 79.4512 33.3878 77.2881 33.3878C75.4231 33.3878 73.9162 32.8314 72.7672 31.7185C71.6483 30.6056 71.0888 29.2038 71.0888 27.5129C71.0691 26.7409 71.2056 25.9728 71.4901 25.2542C71.7745 24.5356 72.2012 23.8811 72.7448 23.3296C73.8638 22.2033 75.2958 21.6395 77.041 21.638C77.797 21.6196 78.5484 21.7609 79.2456 22.0525C79.9428 22.3441 80.5698 22.7793 81.0855 23.3296C82.173 24.4261 82.7168 25.8205 82.7168 27.5129C82.7219 27.9593 82.6798 28.4049 82.5909 28.8425ZM74.5805 26.3486H79.3913C79.0632 25.1777 78.2723 24.5922 77.0185 24.5922C75.7227 24.5922 74.9101 25.1777 74.5805 26.3486Z" fill="#FF593F"/>
<path d="M87.4221 33.0711H84.0674V16.8252H87.4221V33.0711Z" fill="#FF593F"/>
<path d="M8.73258 42.4607V41.4149H12.0873V52.5413H8.73258V51.4955C7.95813 52.4042 6.84514 52.8586 5.3936 52.8586C4.67783 52.8649 3.96918 52.717 3.31638 52.4249C2.66358 52.1329 2.08212 51.7038 1.61198 51.167C0.563398 50.0407 0.039108 48.6463 0.039108 46.9837C-0.000977825 45.446 0.563258 43.9533 1.61198 42.8228C2.08018 42.2818 2.66063 41.848 3.31343 41.5514C3.96623 41.2547 4.67589 41.1022 5.3936 41.1043C6.84364 41.1043 7.95663 41.5564 8.73258 42.4607ZM3.40729 46.977C3.38873 47.3398 3.44449 47.7026 3.57118 48.0433C3.69787 48.384 3.89285 48.6956 4.1443 48.9591C4.67294 49.4312 5.35835 49.6923 6.06881 49.6923C6.77928 49.6923 7.46469 49.4312 7.99333 48.9591C8.47021 48.4081 8.73247 47.7051 8.73247 46.9781C8.73247 46.2511 8.47021 45.5481 7.99333 44.9971C7.46538 44.5236 6.77971 44.2616 6.06881 44.2616C5.35792 44.2616 4.67225 44.5236 4.1443 44.9971C3.89314 45.2603 3.69831 45.5715 3.57163 45.9119C3.44495 46.2522 3.38904 46.6145 3.40729 46.977Z" fill="white"/>
<path d="M20.5426 41.1047C21.0977 41.0869 21.6502 41.1867 22.1635 41.3974C22.6767 41.6081 23.1391 41.925 23.5199 42.327C24.3243 43.1583 24.7272 44.2861 24.7287 45.7103V52.5417H21.3718V46.1997C21.3883 45.9281 21.3493 45.6559 21.257 45.3997C21.1646 45.1435 21.021 44.9086 20.8348 44.7092C20.649 44.5293 20.4281 44.3891 20.1859 44.2973C19.9436 44.2054 19.685 44.1639 19.4259 44.1751C19.1426 44.1587 18.859 44.2029 18.5943 44.3046C18.3295 44.4064 18.0898 44.5634 17.8912 44.7651C17.5272 45.1584 17.343 45.7237 17.343 46.4656V52.5417H13.9883V41.4153H17.343V42.4611C18.0156 41.5568 19.0821 41.1047 20.5426 41.1047Z" fill="white"/>
<path d="M34.603 42.4621V41.4163H37.96V52.5426H34.603V51.4968C33.8226 52.4055 32.7089 52.8599 31.2618 52.8599C30.546 52.8662 29.8374 52.7183 29.1846 52.4263C28.5318 52.1343 27.9503 51.7051 27.4802 51.1683C26.4701 50.0104 25.9141 48.529 25.9141 46.9962C25.9141 45.4633 26.4701 43.9819 27.4802 42.8241C28.5408 41.6814 29.8013 41.1108 31.2618 41.1123C32.7223 41.1138 33.8361 41.5637 34.603 42.4621ZM29.2778 46.9783C29.2595 47.3413 29.3156 47.7042 29.4427 48.0449C29.5698 48.3856 29.7652 48.6971 30.017 48.9604C30.5453 49.4324 31.2303 49.6934 31.9404 49.6934C32.6505 49.6934 33.3355 49.4324 33.8638 48.9604C34.3407 48.4094 34.6029 47.7065 34.6029 46.9794C34.6029 46.2524 34.3407 45.5495 33.8638 44.9984C33.3362 44.5251 32.6509 44.2631 31.9404 44.2631C31.2299 44.2631 30.5446 44.5251 30.017 44.9984C29.7642 45.2609 29.5678 45.5718 29.4395 45.9122C29.3113 46.2525 29.2539 46.6152 29.271 46.9783H29.2778Z" fill="white"/>
<path d="M43.2105 52.5415H39.8535V36.2978H43.2105V52.5415Z" fill="white"/>
<path d="M50.057 48.2247L52.1601 41.4157H55.7395L51.9197 52.2068C51.292 53.9439 50.4681 55.1938 49.448 55.9566C48.4279 56.7194 47.1262 57.0642 45.5428 56.9912V53.8761C46.3188 53.8761 46.918 53.7391 47.3404 53.4649C47.7628 53.1908 48.0984 52.7126 48.347 52.0303L43.8936 41.4157H47.5853L50.057 48.2247Z" fill="white"/>
<path d="M62.9657 41.4152V44.6197H60.667V48.5572C60.667 48.9885 60.8378 49.2656 61.1816 49.3929C61.5254 49.5203 62.1208 49.5583 62.9791 49.5159V52.5416C60.8625 52.7635 59.3863 52.5632 58.5504 51.9405C57.7145 51.3177 57.2966 50.19 57.2966 48.5572V44.6197H55.499V41.4152H57.2966V39.3012L60.667 38.3001V41.4152H62.9657Z" fill="white"/>
<path d="M67.4099 39.8584C67.2273 40.0455 67.0081 40.1933 66.7657 40.2929C66.5234 40.3924 66.2632 40.4415 66.0011 40.4372C65.7342 40.4417 65.4692 40.3928 65.2218 40.2933C64.9744 40.1939 64.7496 40.0459 64.5609 39.8582C64.3722 39.6706 64.2235 39.447 64.1234 39.201C64.0234 38.9549 63.9742 38.6914 63.9788 38.426C63.9744 38.1653 64.0238 37.9065 64.1239 37.6655C64.224 37.4245 64.3727 37.2065 64.5608 37.0249C64.7459 36.8327 64.9685 36.6803 65.2151 36.5769C65.4616 36.4735 65.7268 36.4214 65.9943 36.4237C66.5272 36.4346 67.0353 36.65 67.4122 37.0248C67.7891 37.3997 68.0057 37.9049 68.0166 38.4349C68.0183 38.7008 67.9654 38.9642 67.8611 39.209C67.7568 39.4538 67.6032 39.6748 67.4099 39.8584ZM67.6773 52.5423H64.3114V41.416H67.6661L67.6773 52.5423Z" fill="white"/>
<path d="M74.9375 52.8578C74.1522 52.8731 73.3717 52.7324 72.6417 52.4441C71.9118 52.1557 71.2469 51.7255 70.6862 51.1785C70.1254 50.6316 69.6799 49.9789 69.3758 49.2587C69.0717 48.5385 68.915 47.7652 68.915 46.984C68.915 46.2029 69.0717 45.4296 69.3758 44.7094C69.6799 43.9892 70.1254 43.3365 70.6862 42.7895C71.2469 42.2426 71.9118 41.8124 72.6417 41.524C73.3717 41.2357 74.1522 41.095 74.9375 41.1102C75.9736 41.1045 76.9926 41.3729 77.89 41.8879C78.7673 42.3744 79.4945 43.0899 79.9931 43.9572L77.0721 45.6488C76.6676 44.8175 75.9441 44.4019 74.9015 44.4019C74.5654 44.3914 74.2307 44.4503 73.9186 44.575C73.6065 44.6996 73.3238 44.8872 73.0882 45.1259C72.6267 45.636 72.3713 46.2979 72.3713 46.984C72.3713 47.6702 72.6267 48.3321 73.0882 48.8422C73.3239 49.0806 73.6067 49.2679 73.9188 49.3921C74.2309 49.5164 74.5655 49.5749 74.9015 49.564C75.9591 49.564 76.6826 49.1491 77.0721 48.3193L79.9931 49.9885C79.5085 50.8712 78.7835 51.6 77.9012 52.0914C76.9987 52.6027 75.9761 52.8671 74.9375 52.8578Z" fill="white"/>
<path d="M83.9545 44.6642C83.9545 44.8564 84.1096 45.024 84.4242 45.1648C84.9036 45.3605 85.397 45.5203 85.9004 45.643C88.2867 46.1614 89.4723 47.348 89.4573 49.2028C89.4573 50.405 89.0079 51.3175 88.1092 51.9403C87.1257 52.5709 85.9736 52.891 84.8039 52.8587C82.4461 52.8587 80.8425 51.976 79.9932 50.2106L82.912 48.557C83.2116 49.433 83.8452 49.871 84.8129 49.871C85.6173 49.871 86.0217 49.6475 86.0217 49.1805C86.0217 48.8542 85.3724 48.5279 84.0736 48.2017C83.6564 48.0881 83.246 47.9508 82.8446 47.7905C82.457 47.6255 82.086 47.4242 81.7368 47.1894C81.352 46.9375 81.0417 46.588 80.838 46.1771C80.6241 45.7332 80.5171 45.2458 80.5257 44.7536C80.5052 44.2397 80.6082 43.7283 80.8263 43.2619C81.0443 42.7955 81.3711 42.3876 81.7795 42.072C82.6124 41.4329 83.6564 41.1141 84.9117 41.1156C86.8666 41.1156 88.3211 41.9089 89.2753 43.4955L86.4105 45.0307C86.0532 44.3782 85.5521 44.0519 84.9117 44.0519C84.2714 44.0519 83.9545 44.2486 83.9545 44.6642Z" fill="white"/>
<path d="M55.9483 11.1264L44.7495 0H5.5918L16.7794 11.1264H39.1546L27.967 22.2438L39.1546 33.3701H55.9483L44.7495 22.2438L55.9483 11.1264ZM41.952 9.72969L40.5544 8.3375H43.3496L44.7495 9.72969H41.952ZM51.742 8.3375L53.1396 9.72969H50.3422L48.9445 8.3375H51.742ZM48.9445 9.72969H46.1471L44.7495 8.3375H47.5469L48.9445 9.72969ZM44.7495 1.39219L46.1471 2.78215H43.3496L41.952 1.39219H44.7495ZM40.5544 1.39219L41.952 2.78215H39.1546L37.748 1.39219H40.5544ZM36.3594 1.39219L37.748 2.78215H34.9595L33.5619 1.39219H36.3594ZM32.162 1.39219L33.5619 2.78215H30.7644L29.3668 1.39219H32.162ZM27.967 1.39219L29.3668 2.78215H26.5694L25.165 1.39219H27.967ZM23.7719 1.39219L25.165 2.78215H22.3743L20.9767 1.39219H23.7719ZM19.5768 1.39219L20.9767 2.78215H18.1792L16.7794 1.39219H19.5768ZM9.78911 2.78215L8.38926 1.39219H11.1867L12.5821 2.78215H9.78911ZM12.5821 1.39219H15.3795L16.7771 2.78215H13.9842L12.5821 1.39219ZM16.7794 9.72969L15.3818 8.3375H18.1792L19.5768 9.72969H16.7794ZM20.9767 9.72969L19.5768 8.3375H22.3743L23.7719 9.72969H20.9767ZM25.165 9.72969L23.7719 8.34421H26.5694L27.967 9.72969H25.165ZM29.3601 9.72969L27.9602 8.3375H30.7577L32.162 9.72969H29.3601ZM33.5552 9.72969L32.1553 8.3375H34.9528L36.3594 9.72969H33.5552ZM37.748 9.72969L36.3504 8.3375H39.1456L40.5544 9.72969H37.748Z" fill="#FF593F"/>
<path d="M0 33.3791H16.7803L27.9678 22.2527H11.1876L0 33.3791Z" fill="#FF593F"/>
</svg>
