<svg width="136" height="69" viewBox="0 0 136 69" fill="none" xmlns="http://www.w3.org/2000/svg">
<path d="M85.082 34.9149H75.4668C75.9184 36.1773 77.0018 36.8085 78.7172 36.8085C79.8197 36.8085 80.6865 36.4667 81.3175 35.7832L84.5815 37.6417C83.2614 39.492 81.2931 40.4171 78.6764 40.4171C76.4188 40.4171 74.5946 39.7435 73.2038 38.3964C71.8529 37.0492 71.1765 35.3522 71.1747 33.3054C71.1484 32.3702 71.3113 31.4393 71.6538 30.568C71.9963 29.6967 72.5114 28.9028 73.1684 28.2333C74.523 26.8699 76.2565 26.1873 78.3691 26.1855C79.2843 26.1633 80.1939 26.3343 81.0379 26.6873C81.8818 27.0403 82.6409 27.5672 83.2651 28.2333C84.5815 29.5606 85.2407 31.2486 85.2425 33.2973C85.2467 33.8406 85.1929 34.3829 85.082 34.9149ZM75.3852 31.896H81.2088C80.8116 30.4785 79.8542 29.7698 78.3364 29.7698C76.7679 29.7698 75.7842 30.4785 75.3852 31.896Z" fill="#FF593F"/>
<path d="M99.9787 34.9146H90.3635C90.815 36.177 91.8984 36.8082 93.6139 36.8082C94.7127 36.8082 95.5795 36.4664 96.2142 35.7829L99.4619 37.6414C98.1454 39.4917 96.1779 40.4168 93.5595 40.4168C91.3019 40.4168 89.4776 39.7432 88.0868 38.3961C86.7323 37.0489 86.055 35.3519 86.055 33.3051C86.0312 32.3705 86.1964 31.4407 86.5407 30.5708C86.8851 29.701 87.4016 28.9087 88.0596 28.2411C89.4142 26.8777 91.1477 26.1951 93.2603 26.1933C94.1755 26.1711 95.0851 26.3421 95.929 26.6951C96.773 27.0481 97.5321 27.575 98.1563 28.2411C99.4727 29.5684 100.131 31.2564 100.131 33.3051C100.137 33.8454 100.086 34.3849 99.9787 34.9146ZM90.2819 31.8957H96.1054C95.7083 30.4782 94.7508 29.7695 93.2331 29.7695C91.6645 29.7695 90.6808 30.4782 90.2819 31.8957Z" fill="#FF593F"/>
<path d="M105.826 40.0333H101.765V20.3672H105.826V40.0333Z" fill="#FF593F"/>
<path d="M10.571 51.3998V50.1338H14.632V63.6026H10.571V62.3366C9.63352 63.4367 8.28622 63.9867 6.5291 63.9867C5.66264 63.9944 4.8048 63.8153 4.01457 63.4618C3.22433 63.1083 2.52046 62.5888 1.95134 61.9389C0.682008 60.5756 0.0473413 58.8876 0.0473413 56.875C-0.00118369 55.0136 0.681839 53.2067 1.95134 51.8381C2.51811 51.1832 3.22077 50.6581 4.011 50.299C4.80123 49.9399 5.66029 49.7553 6.5291 49.7578C8.2844 49.7578 9.63171 50.3052 10.571 51.3998ZM4.12462 56.8669C4.10215 57.3061 4.16965 57.7452 4.32301 58.1577C4.47637 58.5701 4.7124 58.9473 5.01678 59.2663C5.65671 59.8377 6.48642 60.1538 7.34646 60.1538C8.2065 60.1538 9.0362 59.8377 9.67614 59.2663C10.2534 58.5992 10.5709 57.7483 10.5709 56.8682C10.5709 55.9881 10.2534 55.1372 9.67614 54.4701C9.03703 53.897 8.20702 53.5798 7.34646 53.5798C6.4859 53.5798 5.65588 53.897 5.01678 54.4701C4.71274 54.7888 4.47691 55.1655 4.32355 55.5775C4.1702 55.9895 4.10253 56.4281 4.12462 56.8669Z" fill="#3B4068"/>
<path d="M24.8678 49.7583C25.5397 49.7367 26.2085 49.8575 26.8299 50.1126C27.4512 50.3678 28.0109 50.7514 28.4718 51.238C29.4456 52.2443 29.9334 53.6095 29.9352 55.3335V63.6031H25.8715V55.926C25.8915 55.5971 25.8443 55.2677 25.7325 54.9575C25.6208 54.6474 25.4469 54.363 25.2214 54.1217C24.9965 53.9039 24.7292 53.7342 24.4359 53.6231C24.1426 53.5119 23.8296 53.4615 23.516 53.4751C23.173 53.4553 22.8297 53.5087 22.5093 53.6319C22.1888 53.7551 21.8986 53.9452 21.6582 54.1893C21.2176 54.6654 20.9946 55.3498 20.9946 56.2479V63.6031H16.9336V50.1343H20.9946V51.4003C21.8087 50.3056 23.0998 49.7583 24.8678 49.7583Z" fill="#3B4068"/>
<path d="M41.8874 51.4015V50.1355H45.951V63.6042H41.8874V62.3382C40.9426 63.4383 39.5944 63.9883 37.8427 63.9883C36.9763 63.996 36.1184 63.8169 35.3282 63.4634C34.538 63.1099 33.8341 62.5904 33.265 61.9406C32.0423 60.539 31.3691 58.7457 31.3691 56.8901C31.3691 55.0346 32.0423 53.2413 33.265 51.8397C34.5488 50.4565 36.0747 49.7658 37.8427 49.7676C39.6107 49.7694 40.9589 50.314 41.8874 51.4015ZM35.441 56.8685C35.4189 57.3079 35.4868 57.7472 35.6406 58.1596C35.7945 58.5721 36.031 58.9492 36.3359 59.2679C36.9753 59.8392 37.8046 60.1552 38.6642 60.1552C39.5238 60.1552 40.353 59.8392 40.9925 59.2679C41.5698 58.6009 41.8872 57.75 41.8872 56.8699C41.8872 55.9897 41.5698 55.1388 40.9925 54.4718C40.3538 53.8988 39.5243 53.5817 38.6642 53.5817C37.8041 53.5817 36.9745 53.8988 36.3359 54.4718C36.0299 54.7895 35.792 55.1659 35.6368 55.5779C35.4816 55.9899 35.4122 56.429 35.4328 56.8685H35.441Z" fill="#3B4068"/>
<path d="M52.3078 63.6029H48.2441V43.9395H52.3078V63.6029Z" fill="#3B4068"/>
<path d="M60.5957 58.3772L63.1416 50.1348H67.4746L62.8506 63.1977C62.0908 65.3005 61.0935 66.8136 59.8586 67.7369C58.6237 68.6603 57.0479 69.0778 55.1312 68.9894V65.2185C56.0705 65.2185 56.7959 65.0525 57.3072 64.7207C57.8186 64.3889 58.2248 63.81 58.5258 62.984L53.1348 50.1348H57.6037L60.5957 58.3772Z" fill="#3B4068"/>
<path d="M76.2222 50.1342V54.0133H73.4396V58.7797C73.4396 59.3018 73.6463 59.6373 74.0625 59.7914C74.4786 59.9456 75.1994 59.9916 76.2385 59.9402V63.6029C73.6762 63.8717 71.8892 63.6291 70.8773 62.8753C69.8655 62.1215 69.3596 60.7563 69.3596 58.7797V54.0133H67.1836V50.1342H69.3596V47.5752L73.4396 46.3633V50.1342H76.2222Z" fill="#3B4068"/>
<path d="M81.6011 48.2496C81.38 48.4761 81.1146 48.6551 80.8213 48.7756C80.528 48.8961 80.2129 48.9555 79.8956 48.9503C79.5726 48.9558 79.2518 48.8965 78.9523 48.7761C78.6528 48.6557 78.3807 48.4766 78.1523 48.2494C77.9239 48.0222 77.7438 47.7517 77.6227 47.4538C77.5016 47.1559 77.4421 46.8369 77.4476 46.5157C77.4423 46.2001 77.5021 45.8868 77.6232 45.5951C77.7444 45.3033 77.9244 45.0394 78.1521 44.8196C78.3762 44.587 78.6457 44.4025 78.9441 44.2773C79.2426 44.1522 79.5636 44.0891 79.8875 44.0919C80.5326 44.105 81.1476 44.3657 81.6038 44.8195C82.0601 45.2733 82.3223 45.8849 82.3355 46.5265C82.3376 46.8483 82.2735 47.1672 82.1472 47.4635C82.0209 47.7598 81.8351 48.0273 81.6011 48.2496ZM81.9247 63.6038H77.8502V50.1351H81.9111L81.9247 63.6038Z" fill="#3B4068"/>
<path d="M90.7142 63.9858C89.7635 64.0042 88.8188 63.8339 87.9351 63.4849C87.0515 63.1358 86.2467 62.615 85.5678 61.953C84.889 61.2909 84.3497 60.5008 83.9816 59.629C83.6134 58.7571 83.4238 57.821 83.4238 56.8754C83.4238 55.9298 83.6134 54.9937 83.9816 54.1219C84.3497 53.25 84.889 52.4599 85.5678 51.7979C86.2467 51.1358 87.0515 50.615 87.9351 50.2659C88.8188 49.9169 89.7635 49.7466 90.7142 49.765C91.9684 49.7581 93.2019 50.083 94.2882 50.7064C95.3503 51.2954 96.2306 52.1615 96.8342 53.2113L93.2982 55.2591C92.8086 54.2528 91.9327 53.7497 90.6706 53.7497C90.2637 53.737 89.8586 53.8083 89.4808 53.9591C89.103 54.11 88.7607 54.3371 88.4756 54.6261C87.9169 55.2435 87.6078 56.0448 87.6078 56.8754C87.6078 57.706 87.9169 58.5073 88.4756 59.1247C88.7609 59.4134 89.1032 59.6401 89.481 59.7904C89.8588 59.9408 90.2639 60.0117 90.6706 59.9985C91.9509 59.9985 92.8267 59.4962 93.2982 58.4917L96.8342 60.5124C96.2475 61.5809 95.3698 62.4631 94.3018 63.0579C93.2093 63.6769 91.9715 63.9971 90.7142 63.9858Z" fill="#3B4068"/>
<path d="M101.629 54.0672C101.629 54.2998 101.817 54.5027 102.198 54.6732C102.778 54.9101 103.376 55.1036 103.985 55.252C106.873 55.8796 108.309 57.316 108.291 59.5613C108.291 61.0166 107.747 62.1212 106.659 62.875C105.468 63.6385 104.073 64.026 102.658 63.9868C99.8033 63.9868 97.8621 62.9183 96.834 60.7813L100.367 58.7795C100.73 59.8399 101.497 60.3701 102.668 60.3701C103.642 60.3701 104.132 60.0996 104.132 59.5342C104.132 59.1393 103.346 58.7443 101.774 58.3494C101.268 58.2119 100.772 58.0458 100.286 57.8517C99.8165 57.652 99.3675 57.4083 98.9447 57.124C98.4788 56.8191 98.1033 56.3961 97.8567 55.8986C97.5977 55.3612 97.4683 54.7712 97.4786 54.1754C97.4538 53.5533 97.5785 52.9342 97.8425 52.3697C98.1065 51.8051 98.502 51.3113 98.9964 50.9293C100.005 50.1556 101.268 49.7697 102.788 49.7715C105.154 49.7715 106.915 50.7318 108.07 52.6524L104.602 54.5108C104.17 53.721 103.563 53.326 102.788 53.326C102.013 53.326 101.629 53.5641 101.629 54.0672Z" fill="#3B4068"/>
<path d="M114.387 61.419C114.392 62.0163 114.187 62.5964 113.809 63.0604C113.431 63.5244 112.903 63.8435 112.314 63.9631C111.726 64.0827 111.114 63.9954 110.583 63.7162C110.052 63.437 109.636 62.9831 109.404 62.4322C109.172 61.8812 109.14 61.2673 109.313 60.6953C109.486 60.1234 109.853 59.6289 110.351 59.2962C110.85 58.9636 111.45 58.8135 112.047 58.8716C112.645 58.9297 113.204 59.1924 113.628 59.6147C113.872 59.8478 114.066 60.1282 114.196 60.4385C114.327 60.7489 114.392 61.0826 114.387 61.419Z" fill="#3B4068"/>
<path d="M67.7274 13.4687L54.1709 0H6.76953L20.3124 13.4687H47.3982L33.8553 26.9267L47.3982 40.3954H67.7274L54.1709 26.9267L67.7274 13.4687ZM50.7845 11.7781L49.0927 10.0928H52.4764L54.1709 11.7781H50.7845ZM62.6356 10.0928L64.3274 11.7781H60.941L59.2492 10.0928H62.6356ZM59.2492 11.7781H55.8628L54.1709 10.0928H57.5573L59.2492 11.7781ZM54.1709 1.68528L55.8628 3.36786H52.4764L50.7845 1.68528H54.1709ZM49.0927 1.68528L50.7845 3.36786H47.3982L45.6954 1.68528H49.0927ZM44.0145 1.68528L45.6954 3.36786H42.3199L40.6281 1.68528H44.0145ZM38.9335 1.68528L40.6281 3.36786H37.2417L35.5498 1.68528H38.9335ZM33.8553 1.68528L35.5498 3.36786H32.1634L30.4634 1.68528H33.8553ZM28.777 1.68528L30.4634 3.36786H27.0852L25.3934 1.68528H28.777ZM23.6988 1.68528L25.3934 3.36786H22.007L20.3124 1.68528H23.6988ZM11.8505 3.36786L10.1559 1.68528H13.5423L15.2314 3.36786H11.8505ZM15.2314 1.68528H18.6178L20.3097 3.36786H16.9287L15.2314 1.68528ZM20.3124 11.7781L18.6206 10.0928H22.007L23.6988 11.7781H20.3124ZM25.3934 11.7781L23.6988 10.0928H27.0852L28.777 11.7781H25.3934ZM30.4634 11.7781L28.777 10.1009H32.1634L33.8553 11.7781H30.4634ZM35.5417 11.7781L33.8471 10.0928H37.2335L38.9335 11.7781H35.5417ZM40.6199 11.7781L38.9254 10.0928H42.3117L44.0145 11.7781H40.6199ZM45.6954 11.7781L44.0036 10.0928H47.3873L49.0927 11.7781H45.6954Z" fill="#FF593F"/>
<path d="M0 40.4062H20.3129L33.8558 26.9375H13.5429L0 40.4062Z" fill="#FF593F"/>
</svg>
