<svg width="113" height="57" viewBox="0 0 113 57" fill="none" xmlns="http://www.w3.org/2000/svg">
<path d="M70.2852 28.8427H62.3422C62.7152 29.8855 63.6102 30.407 65.0273 30.407C65.9381 30.407 66.6541 30.1247 67.1754 29.56L69.8717 31.0952C68.7812 32.6237 67.1552 33.388 64.9936 33.388C63.1286 33.388 61.6217 32.8316 60.4727 31.7187C59.3567 30.6058 58.798 29.204 58.7965 27.5131C58.7748 26.7406 58.9094 25.9716 59.1923 25.2518C59.4752 24.532 59.9007 23.8761 60.4435 23.3231C61.5625 22.1968 62.9945 21.633 64.7397 21.6315C65.4958 21.6131 66.2472 21.7544 66.9443 22.046C67.6415 22.3376 68.2686 22.7728 68.7842 23.3231C69.8717 24.4196 70.4162 25.814 70.4177 27.5064C70.4212 27.9552 70.3768 28.4032 70.2852 28.8427ZM62.2748 26.3488H67.0855C66.7574 25.1779 65.9665 24.5924 64.7127 24.5924C63.417 24.5924 62.6043 25.1779 62.2748 26.3488Z" fill="#FF593F"/>
<path d="M82.5911 28.8425H74.6481C75.0211 29.8853 75.9161 30.4068 77.3332 30.4068C78.241 30.4068 78.957 30.1244 79.4813 29.5598L82.1641 31.095C81.0766 32.6235 79.4513 33.3878 77.2882 33.3878C75.4233 33.3878 73.9163 32.8314 72.7674 31.7185C71.6484 30.6056 71.0889 29.2038 71.0889 27.5129C71.0693 26.7408 71.2057 25.9728 71.4902 25.2542C71.7746 24.5356 72.2013 23.8811 72.7449 23.3296C73.8639 22.2033 75.2959 21.6395 77.0411 21.638C77.7972 21.6196 78.5486 21.7609 79.2457 22.0525C79.9429 22.3441 80.57 22.7793 81.0856 23.3296C82.1731 24.4261 82.7169 25.8205 82.7169 27.5129C82.7221 27.9593 82.6799 28.4049 82.5911 28.8425ZM74.5807 26.3486H79.3914C79.0633 25.1777 78.2724 24.5922 77.0186 24.5922C75.7229 24.5922 74.9102 25.1777 74.5807 26.3486Z" fill="#FF593F"/>
<path d="M87.4218 33.0711H84.0671V16.8252H87.4218V33.0711Z" fill="#FF593F"/>
<path d="M8.73258 42.4607V41.4149H12.0873V52.5413H8.73258V51.4955C7.95813 52.4042 6.84514 52.8586 5.3936 52.8586C4.67783 52.8649 3.96918 52.717 3.31638 52.4249C2.66358 52.1329 2.08212 51.7038 1.61198 51.167C0.563398 50.0407 0.039108 48.6463 0.039108 46.9837C-0.000977825 45.446 0.563258 43.9533 1.61198 42.8228C2.08018 42.2818 2.66063 41.848 3.31343 41.5514C3.96623 41.2547 4.67589 41.1022 5.3936 41.1043C6.84364 41.1043 7.95663 41.5564 8.73258 42.4607ZM3.40729 46.977C3.38873 47.3398 3.44449 47.7026 3.57118 48.0433C3.69787 48.384 3.89285 48.6956 4.1443 48.9591C4.67294 49.4312 5.35835 49.6923 6.06881 49.6923C6.77928 49.6923 7.46469 49.4312 7.99333 48.9591C8.47021 48.4081 8.73247 47.7051 8.73247 46.9781C8.73247 46.2511 8.47021 45.5481 7.99333 44.9971C7.46538 44.5236 6.77971 44.2616 6.06881 44.2616C5.35792 44.2616 4.67225 44.5236 4.1443 44.9971C3.89314 45.2603 3.69831 45.5715 3.57163 45.9119C3.44495 46.2522 3.38904 46.6145 3.40729 46.977Z" fill="white"/>
<path d="M20.543 41.1047C21.098 41.0869 21.6505 41.1867 22.1638 41.3974C22.6771 41.6081 23.1394 41.925 23.5202 42.327C24.3246 43.1583 24.7276 44.2861 24.7291 45.7103V52.5417H21.3721V46.1997C21.3887 45.9281 21.3496 45.6559 21.2573 45.3997C21.165 45.1435 21.0213 44.9086 20.8351 44.7092C20.6493 44.5293 20.4285 44.3891 20.1862 44.2973C19.9439 44.2054 19.6853 44.1639 19.4263 44.1751C19.1429 44.1587 18.8593 44.2029 18.5946 44.3046C18.3299 44.4064 18.0902 44.5634 17.8916 44.7651C17.5276 45.1584 17.3433 45.7237 17.3433 46.4656V52.5417H13.9886V41.4153H17.3433V42.4611C18.0159 41.5568 19.0825 41.1047 20.543 41.1047Z" fill="white"/>
<path d="M34.6026 42.4621V41.4163H37.9596V52.5426H34.6026V51.4968C33.8222 52.4056 32.7084 52.8599 31.2614 52.8599C30.5456 52.8662 29.837 52.7183 29.1842 52.4263C28.5314 52.1343 27.9499 51.7051 27.4798 51.1683C26.4697 50.0105 25.9136 48.5291 25.9136 46.9962C25.9136 45.4633 26.4697 43.982 27.4798 42.8241C28.5403 41.6814 29.8009 41.1109 31.2614 41.1124C32.7219 41.1138 33.8356 41.5638 34.6026 42.4621ZM29.2773 46.9783C29.2591 47.3413 29.3152 47.7042 29.4423 48.0449C29.5693 48.3856 29.7647 48.6971 30.0166 48.9605C30.5448 49.4324 31.2299 49.6934 31.94 49.6934C32.6501 49.6934 33.3351 49.4324 33.8634 48.9605C34.3402 48.4094 34.6025 47.7065 34.6025 46.9794C34.6025 46.2524 34.3402 45.5495 33.8634 44.9984C33.3358 44.5251 32.6505 44.2632 31.94 44.2632C31.2294 44.2632 30.5442 44.5251 30.0166 44.9984C29.7638 45.2609 29.5673 45.5718 29.4391 45.9122C29.3108 46.2525 29.2535 46.6153 29.2706 46.9783H29.2773Z" fill="white"/>
<path d="M43.2108 52.5415H39.8539V36.2978H43.2108V52.5415Z" fill="white"/>
<path d="M50.0573 48.2247L52.1605 41.4157H55.7399L51.9201 52.2068C51.2924 53.9439 50.4685 55.1938 49.4484 55.9566C48.4283 56.7194 47.1266 57.0642 45.5432 56.9912V53.8761C46.3191 53.8761 46.9183 53.7391 47.3408 53.4649C47.7632 53.1908 48.0987 52.7126 48.3474 52.0303L43.8939 41.4157H47.5857L50.0573 48.2247Z" fill="white"/>
<path d="M62.9661 41.4152V44.6197H60.6675V48.5572C60.6675 48.9885 60.8382 49.2656 61.182 49.3929C61.5258 49.5203 62.1213 49.5583 62.9796 49.5158V52.5416C60.863 52.7635 59.3867 52.5632 58.5508 51.9404C57.715 51.3177 57.297 50.19 57.297 48.5572V44.6197H55.4995V41.4152H57.297V39.3012L60.6675 38.3001V41.4152H62.9661Z" fill="white"/>
<path d="M67.4096 39.8584C67.2269 40.0455 67.0077 40.1933 66.7654 40.2929C66.5231 40.3924 66.2629 40.4415 66.0007 40.4372C65.7339 40.4417 65.4689 40.3928 65.2215 40.2933C64.9741 40.1939 64.7493 40.0459 64.5606 39.8582C64.3719 39.6705 64.2231 39.447 64.1231 39.201C64.0231 38.9549 63.9739 38.6913 63.9785 38.426C63.9741 38.1653 64.0235 37.9065 64.1236 37.6655C64.2236 37.4245 64.3723 37.2065 64.5604 37.0249C64.7455 36.8327 64.9682 36.6803 65.2147 36.5769C65.4613 36.4735 65.7264 36.4214 65.994 36.4237C66.5269 36.4346 67.035 36.65 67.4119 37.0248C67.7888 37.3996 68.0053 37.9049 68.0162 38.4349C68.018 38.7008 67.9651 38.9642 67.8607 39.209C67.7564 39.4538 67.6029 39.6748 67.4096 39.8584ZM67.677 52.5423H64.311V41.416H67.6657L67.677 52.5423Z" fill="white"/>
<path d="M74.9378 52.8578C74.1525 52.8731 73.372 52.7324 72.6421 52.444C71.9121 52.1557 71.2473 51.7255 70.6865 51.1785C70.1257 50.6316 69.6802 49.9789 69.3761 49.2587C69.072 48.5385 68.9153 47.7652 68.9153 46.984C68.9153 46.2029 69.072 45.4296 69.3761 44.7094C69.6802 43.9891 70.1257 43.3365 70.6865 42.7895C71.2473 42.2426 71.9121 41.8124 72.6421 41.524C73.372 41.2357 74.1525 41.095 74.9378 41.1102C75.9739 41.1045 76.9929 41.3729 77.8903 41.8879C78.7677 42.3744 79.4948 43.0899 79.9934 43.9572L77.0724 45.6488C76.668 44.8175 75.9444 44.4019 74.9018 44.4019C74.5657 44.3914 74.231 44.4503 73.9189 44.5749C73.6068 44.6996 73.3241 44.8872 73.0886 45.1259C72.627 45.636 72.3716 46.2978 72.3716 46.984C72.3716 47.6702 72.627 48.3321 73.0886 48.8421C73.3242 49.0806 73.607 49.2679 73.9191 49.3921C74.2312 49.5163 74.5658 49.5749 74.9018 49.5639C75.9594 49.5639 76.6829 49.149 77.0724 48.3192L79.9934 49.9885C79.5088 50.8711 78.7838 51.6 77.9015 52.0913C76.999 52.6027 75.9764 52.8671 74.9378 52.8578Z" fill="white"/>
<path d="M83.9547 44.6642C83.9547 44.8564 84.1097 45.024 84.4243 45.1648C84.9037 45.3605 85.3972 45.5203 85.9005 45.643C88.2868 46.1614 89.4724 47.348 89.4575 49.2028C89.4575 50.405 89.0081 51.3175 88.1093 51.9403C87.1259 52.5709 85.9737 52.891 84.804 52.8587C82.4462 52.8587 80.8426 51.976 79.9933 50.2106L82.9121 48.557C83.2117 49.433 83.8453 49.871 84.813 49.871C85.6174 49.871 86.0219 49.6475 86.0219 49.1805C86.0219 48.8542 85.3725 48.5279 84.0738 48.2017C83.6565 48.0881 83.2461 47.9508 82.8447 47.7905C82.4571 47.6255 82.0862 47.4242 81.7369 47.1894C81.3521 46.9375 81.0418 46.588 80.8381 46.1771C80.6242 45.7332 80.5173 45.2458 80.5258 44.7536C80.5053 44.2397 80.6083 43.7283 80.8264 43.2619C81.0445 42.7955 81.3712 42.3876 81.7796 42.072C82.6125 41.4329 83.6566 41.1141 84.9119 41.1156C86.8667 41.1156 88.3213 41.9089 89.2755 43.4955L86.4106 45.0307C86.0533 44.3782 85.5522 44.0519 84.9119 44.0519C84.2715 44.0519 83.9547 44.2486 83.9547 44.6642Z" fill="white"/>
<path d="M94.4938 50.7375C94.4973 51.2309 94.3285 51.7102 94.0162 52.0935C93.7039 52.4768 93.2674 52.7403 92.7814 52.8392C92.2953 52.938 91.7899 52.8659 91.3514 52.6352C90.9128 52.4046 90.5684 52.0296 90.377 51.5745C90.1856 51.1193 90.159 50.6122 90.3018 50.1397C90.4446 49.6672 90.7479 49.2587 91.1599 48.9839C91.5719 48.7091 92.0671 48.5852 92.5608 48.6331C93.0545 48.6811 93.5162 48.8981 93.8669 49.247C94.0685 49.4395 94.2281 49.6712 94.336 49.9276C94.4438 50.184 94.4975 50.4597 94.4938 50.7375Z" fill="white"/>
<path d="M55.9487 11.1264L44.7499 0H5.59222L16.7798 11.1264H39.155L27.9674 22.2438L39.155 33.3701H55.9487L44.7499 22.2438L55.9487 11.1264ZM41.9524 9.72969L40.5548 8.3375H43.3501L44.7499 9.72969H41.9524ZM51.7424 8.3375L53.14 9.72969H50.3426L48.945 8.3375H51.7424ZM48.945 9.72969H46.1475L44.7499 8.3375H47.5474L48.945 9.72969ZM44.7499 1.39219L46.1475 2.78215H43.3501L41.9524 1.39219H44.7499ZM40.5548 1.39219L41.9524 2.78215H39.155L37.7484 1.39219H40.5548ZM36.3598 1.39219L37.7484 2.78215H34.9599L33.5623 1.39219H36.3598ZM32.1625 1.39219L33.5623 2.78215H30.7649L29.3673 1.39219H32.1625ZM27.9674 1.39219L29.3673 2.78215H26.5698L25.1655 1.39219H27.9674ZM23.7723 1.39219L25.1655 2.78215H22.3747L20.9771 1.39219H23.7723ZM19.5773 1.39219L20.9771 2.78215H18.1797L16.7798 1.39219H19.5773ZM9.78954 2.78215L8.38968 1.39219H11.1871L12.5825 2.78215H9.78954ZM12.5825 1.39219H15.38L16.7776 2.78215H13.9846L12.5825 1.39219ZM16.7798 9.72969L15.3822 8.3375H18.1797L19.5773 9.72969H16.7798ZM20.9771 9.72969L19.5773 8.3375H22.3747L23.7723 9.72969H20.9771ZM25.1655 9.72969L23.7723 8.34421H26.5698L27.9674 9.72969H25.1655ZM29.3605 9.72969L27.9607 8.3375H30.7581L32.1625 9.72969H29.3605ZM33.5556 9.72969L32.1557 8.3375H34.9532L36.3598 9.72969H33.5556ZM37.7484 9.72969L36.3508 8.3375H39.146L40.5548 9.72969H37.7484Z" fill="#FF593F"/>
<path d="M0 33.3791H16.7803L27.9678 22.2527H11.1876L0 33.3791Z" fill="#FF593F"/>
</svg>
