<svg width="32" height="16" viewBox="0 0 32 16" xmlns="http://www.w3.org/2000/svg">
<path d="M31 8.5C31.2761 8.5 31.5 8.27614 31.5 8C31.5 7.72386 31.2761 7.5 31 7.5V8.5ZM0.646444 7.64645C0.451183 7.84171 0.451183 8.15829 0.646444 8.35355L3.82842 11.5355C4.02369 11.7308 4.34027 11.7308 4.53553 11.5355C4.73079 11.3403 4.73079 11.0237 4.53553 10.8284L1.70711 8L4.53553 5.17157C4.73079 4.97631 4.73079 4.65973 4.53553 4.46447C4.34027 4.2692 4.02369 4.2692 3.82842 4.46447L0.646444 7.64645ZM31 7.5L0.999998 7.5V8.5L31 8.5V7.5Z"/>
</svg>
