<svg width="30" height="31" viewBox="0 0 30 31" xmlns="http://www.w3.org/2000/svg">
<path d="M15 0.5C6.729 0.5 0 7.229 0 15.5C0 19.1225 1.291 22.449 3.437 25.044C3.4425 25.0515 3.443 25.061 3.449 25.068C4.9985 26.9365 6.9445 28.369 9.113 29.2945C9.138 29.305 9.1625 29.3165 9.1875 29.327C9.363 29.401 9.5405 29.4695 9.7185 29.5365C9.7885 29.563 9.8585 29.59 9.9295 29.6155C10.083 29.6705 10.2375 29.7225 10.393 29.7725C10.4925 29.8045 10.592 29.836 10.6925 29.866C10.83 29.907 10.968 29.9465 11.107 29.984C11.229 30.017 11.352 30.0475 11.475 30.077C11.5995 30.107 11.7245 30.137 11.85 30.1635C11.99 30.1935 12.1315 30.22 12.2735 30.246C12.3875 30.267 12.501 30.289 12.616 30.3075C12.7735 30.333 12.932 30.353 13.091 30.3735C13.1935 30.3865 13.2955 30.4015 13.3985 30.4125C13.5785 30.4315 13.76 30.445 13.942 30.4575C14.0265 30.4635 14.1105 30.4725 14.1955 30.477C14.461 30.492 14.7295 30.5 15 30.5C15.2705 30.5 15.539 30.492 15.8055 30.478C15.8905 30.4735 15.9745 30.4645 16.059 30.4585C16.241 30.4455 16.4225 30.4325 16.6025 30.4135C16.7055 30.4025 16.8075 30.3875 16.91 30.3745C17.069 30.354 17.2275 30.334 17.385 30.3085C17.4995 30.29 17.6135 30.268 17.7275 30.247C17.869 30.221 18.0105 30.1945 18.151 30.1645C18.2765 30.1375 18.401 30.108 18.526 30.078C18.649 30.048 18.772 30.0175 18.894 29.985C19.033 29.948 19.171 29.908 19.3085 29.867C19.409 29.837 19.5085 29.8055 19.608 29.7735C19.7635 29.7235 19.918 29.6715 20.0715 29.6165C20.142 29.591 20.212 29.564 20.2825 29.5375C20.461 29.4705 20.638 29.4015 20.8135 29.328C20.8385 29.3175 20.863 29.306 20.888 29.2955C23.056 28.37 25.0025 26.9375 26.552 25.069C26.558 25.062 26.5585 25.052 26.564 25.045C28.709 22.449 30 19.1225 30 15.5C30 7.229 23.271 0.5 15 0.5ZM21.0785 28.11C21.071 28.1135 21.064 28.1175 21.0565 28.121C20.878 28.207 20.6965 28.288 20.5135 28.367C20.472 28.3845 20.431 28.4025 20.3895 28.42C20.2295 28.487 20.0675 28.5505 19.9045 28.6115C19.8365 28.637 19.7685 28.662 19.7 28.686C19.5555 28.7375 19.4105 28.787 19.264 28.834C19.173 28.863 19.0815 28.8905 18.99 28.9175C18.86 28.9565 18.7295 28.994 18.5975 29.029C18.4865 29.0585 18.3745 29.0855 18.2625 29.112C18.145 29.14 18.028 29.1685 17.9095 29.1935C17.78 29.221 17.6495 29.2445 17.5195 29.268C17.414 29.2875 17.309 29.308 17.2025 29.325C17.056 29.348 16.908 29.3665 16.7605 29.385C16.667 29.397 16.574 29.411 16.4795 29.421C16.311 29.439 16.141 29.4505 15.9715 29.4625C15.896 29.4675 15.821 29.476 15.7445 29.48C15.497 29.493 15.249 29.5 15 29.5C14.751 29.5 14.503 29.493 14.256 29.48C14.18 29.476 14.105 29.468 14.029 29.4625C13.859 29.451 13.6895 29.439 13.521 29.421C13.4265 29.411 13.3335 29.397 13.24 29.385C13.0925 29.3665 12.9445 29.348 12.798 29.325C12.6915 29.308 12.5865 29.2875 12.481 29.268C12.3505 29.2445 12.22 29.2205 12.091 29.1935C11.9725 29.1685 11.855 29.14 11.738 29.112C11.626 29.085 11.514 29.0585 11.403 29.029C11.2715 28.994 11.1405 28.956 11.0105 28.9175C10.919 28.8905 10.8275 28.863 10.7365 28.834C10.59 28.787 10.4445 28.7375 10.3005 28.686C10.232 28.6615 10.164 28.6365 10.096 28.6115C9.933 28.5505 9.771 28.487 9.611 28.42C9.5695 28.403 9.529 28.385 9.4875 28.3675C9.3045 28.289 9.123 28.2075 8.944 28.1215C8.9365 28.118 8.9295 28.1145 8.922 28.1105C7.1775 27.2665 5.6365 26.0685 4.386 24.6135C5.3525 21.0545 8.0885 18.1855 11.6085 17.044C11.678 17.0865 11.7505 17.1245 11.822 17.1645C11.864 17.188 11.9055 17.213 11.948 17.2355C12.097 17.3145 12.248 17.3885 12.4025 17.455C12.521 17.507 12.6435 17.551 12.7655 17.596C12.7895 17.6045 12.8135 17.614 12.8375 17.6225C13.5155 17.8625 14.241 18 15 18C15.759 18 16.4845 17.8625 17.162 17.6225C17.186 17.614 17.21 17.6045 17.234 17.596C17.356 17.551 17.4785 17.507 17.597 17.455C17.7515 17.3885 17.9025 17.3145 18.0515 17.2355C18.094 17.2125 18.1355 17.188 18.1775 17.1645C18.249 17.1245 18.322 17.0865 18.392 17.0435C21.912 18.1855 24.6475 21.0545 25.6145 24.613C24.364 26.0675 22.823 27.2655 21.0785 28.11ZM9.5 11.5C9.5 8.4675 11.9675 6 15 6C18.0325 6 20.5 8.4675 20.5 11.5C20.5 13.429 19.4995 15.1265 17.992 16.1085C17.795 16.2365 17.59 16.351 17.3795 16.451C17.3545 16.463 17.33 16.4755 17.305 16.487C15.857 17.1455 14.143 17.1455 12.695 16.487C12.67 16.4755 12.645 16.463 12.6205 16.451C12.4095 16.351 12.205 16.2365 12.008 16.1085C10.5005 15.1265 9.5 13.429 9.5 11.5ZM26.3645 23.6615C25.231 20.3145 22.645 17.6095 19.341 16.3245C20.6625 15.134 21.5 13.415 21.5 11.5C21.5 7.916 18.584 5 15 5C11.416 5 8.5 7.916 8.5 11.5C8.5 13.415 9.3375 15.134 10.6595 16.3245C7.3555 17.61 4.7695 20.3145 3.636 23.6615C1.9795 21.362 1 18.544 1 15.5C1 7.7805 7.2805 1.5 15 1.5C22.7195 1.5 29 7.7805 29 15.5C29 18.544 28.0205 21.362 26.3645 23.6615Z"/>
</svg>
