<svg width="20" height="13" viewBox="0 0 20 13" xmlns="http://www.w3.org/2000/svg">
<path d="M19.5812 2.0397C19.468 1.64607 19.2474 1.2897 18.943 1.00847C18.6299 0.718586 18.2462 0.511228 17.8281 0.405965C16.2633 0.00402651 9.99417 0.0040266 9.99417 0.0040266C7.38063 -0.0249514 4.76773 0.102501 2.17022 0.385665C1.7521 0.498705 1.36913 0.710696 1.05537 1.00278C0.74708 1.29185 0.523777 1.64832 0.407126 2.03889C0.126908 3.51002 -0.00924109 5.00377 0.00051425 6.5C-0.0094844 7.99488 0.126331 9.48814 0.407126 10.9611C0.521277 11.35 0.743748 11.7049 1.05287 11.9915C1.362 12.2782 1.74695 12.4852 2.17022 12.5948C3.75584 12.996 9.99417 12.996 9.99417 12.996C12.611 13.025 15.2273 12.8975 17.8281 12.6143C18.2462 12.5091 18.6299 12.3017 18.943 12.0118C19.2513 11.7252 19.4704 11.3687 19.5804 10.9806C19.8679 9.51003 20.0077 8.01566 19.9978 6.51867C20.0194 5.01534 19.8798 3.51393 19.5812 2.03889V2.0397ZM8.0011 9.28027V3.72053L13.2171 6.50081L8.0011 9.28027Z"/>
</svg>
