<svg width="122" height="32" viewBox="0 0 122 32" fill="none" xmlns="http://www.w3.org/2000/svg">
<path fill-rule="evenodd" clip-rule="evenodd" d="M26.3096 0.206145C23.7866 0.579865 21.9104 1.57989 21.2216 2.91809C20.7118 3.90886 20.6432 5.9497 21.085 6.99726C21.6886 8.42968 23.8206 9.54495 27.3704 10.2857C29.1266 10.6522 29.6973 10.9221 29.8308 11.4491C30.1264 12.6165 29.465 13.5814 28.6965 13.1036C28.4381 12.9429 28.3057 12.5433 28.2611 11.7902L28.1969 10.7078H24.4951H20.793V11.6228C20.793 14.7915 22.7809 16.0868 28.007 16.3232C32.9771 16.548 36.0734 15.7438 37.074 13.9676C37.4608 13.2809 37.5484 12.7938 37.5514 11.3172C37.5544 9.78028 37.4822 9.40131 37.0723 8.79856C36.4073 7.8202 34.7265 7.04016 31.8522 6.37537C29.0683 5.73161 28.5858 5.40458 28.6844 4.22874C28.7462 3.49371 28.7892 3.45206 29.4922 3.45206H30.2348L30.2989 4.55619L30.3631 5.66032H33.8528H37.3426V4.5482C37.3426 2.83123 36.6675 1.69871 35.2209 0.989549C33.3813 0.0875301 29.4455 -0.258429 26.3096 0.206145ZM78.5455 7.53817C78.607 13.299 78.6338 13.6538 79.0486 14.2155C79.9062 15.3773 80.8287 15.6425 84.2861 15.722L87.4156 15.7937V13.9869V12.1799H86.4868C85.9508 12.1799 85.4541 12.0558 85.3122 11.8863C85.1513 11.6941 85.0875 10.8402 85.1271 9.41519L85.1878 7.23764L86.1956 7.1735L87.2035 7.10935V5.12298V3.1366H86.1426H85.0817V2.29536V1.45412H81.7812H78.4804L78.5455 7.53817ZM57.8174 3.15763C55.2172 3.52567 53.7337 4.51497 53.2762 6.18609C52.9856 7.24773 52.9752 11.8224 53.261 12.8428C53.5599 13.9093 54.8743 15.0237 56.3765 15.4839C57.3169 15.772 58.2772 15.8561 60.4696 15.8427C63.5355 15.824 64.7794 15.5657 66.0892 14.6761C67.3591 13.8136 67.5659 13.2233 67.6508 10.2188C67.7499 6.70682 67.6075 5.82877 66.7889 4.90467C65.9173 3.92085 65.1673 3.56521 63.2452 3.22535C61.4551 2.90884 59.7282 2.88738 57.8174 3.15763ZM92.1688 3.12167C88.7379 3.66595 87.4973 4.7808 87.6711 7.1634C87.8141 9.12201 88.942 9.94348 93.0049 11.0476C94.6646 11.4987 95.1388 11.7137 95.3138 12.0945C95.6151 12.7501 95.3828 13.2315 94.7649 13.2315C94.2192 13.2315 93.993 12.8874 93.993 12.0575V11.549H90.8104H87.6278V12.4643C87.6278 14.9127 89.739 15.9655 94.648 15.9655C98.1973 15.9655 100.126 15.4111 101.099 14.111C101.602 13.4386 101.821 10.8205 101.433 10.1031C101.082 9.45241 99.4266 8.69467 96.8258 7.99391C94.5861 7.39053 93.9075 6.98211 94.0399 6.31796C94.0724 6.15454 94.2583 5.92152 94.4526 5.80017C94.9499 5.48976 95.4783 5.97263 95.4783 6.73752V7.34279H98.4756H101.473L101.367 6.25171C101.167 4.18857 99.3296 3.20369 95.3722 3.0386C94.2052 2.9898 92.7637 3.02724 92.1688 3.12167ZM38.1913 10.4751V17.8583H41.48H44.7687V16.8332V15.8082L47.1862 15.7165C50.2264 15.601 51.394 15.1152 52.1417 13.6544C52.5761 12.8058 52.6191 12.4264 52.6191 9.44589C52.6191 6.46706 52.5758 6.08493 52.1417 5.23171C51.776 4.51287 51.4163 4.17069 50.6035 3.76879C49.5659 3.25564 49.4172 3.24239 43.867 3.16794L38.1913 3.0918V10.4751ZM68.32 9.44589V15.7552H71.5026H74.6852L74.7064 12.4428C74.7181 10.6209 74.7924 8.89383 74.8715 8.60465C75.0508 7.95059 76.2118 7.34364 77.2843 7.34321L78.08 7.34279V5.2397V3.1366H77.4193C76.7505 3.1366 75.1096 3.91117 75.1096 4.22685C75.1096 4.32127 75.0141 4.39846 74.8974 4.39846C74.7807 4.39846 74.6852 4.11454 74.6852 3.76753V3.1366H71.5026H68.32V9.44589ZM60.8462 5.83698C61.052 5.96632 61.1027 6.85971 61.0583 9.56661L61 13.1263L60.4935 13.1972C60.215 13.2363 59.9062 13.1417 59.8072 12.9869C59.5483 12.582 59.5774 6.55455 59.8405 6.06706C60.0739 5.63466 60.4044 5.55916 60.8462 5.83698ZM45.9942 9.31256C46.0551 12.7848 45.9609 13.2315 45.1672 13.2315C44.7925 13.2315 44.7687 13.0109 44.7687 9.53717V5.84266L45.3522 5.90932L45.9356 5.97578L45.9942 9.31256ZM0 22.3799V31.3181H3.60696H7.21391V22.3799V13.4418H3.60696H0V22.3799ZM115.423 17.017V18.6995H113.431C110.327 18.6995 108.284 19.6114 107.834 21.1986C107.748 21.5013 107.678 23.2632 107.678 25.114C107.678 28.8078 107.835 29.4127 109.001 30.2178C110.228 31.0645 110.927 31.1618 116.537 31.2662L122 31.3679V23.3514V15.3346H118.711H115.423V17.017ZM8.06261 23.6418V31.3181H11.3513H14.64V23.6418V15.9655H11.3513H8.06261V23.6418ZM15.5392 23.5892L15.5948 31.2129L18.8304 31.271L22.0661 31.329V23.6473V15.9655H18.7748H15.4834L15.5392 23.5892ZM52.1956 22.8531C52.1963 28.5515 52.2211 28.9397 52.6255 29.5973C53.349 30.7736 54.4493 31.103 57.8518 31.1621L60.7878 31.2129V29.4253V27.6377L59.833 27.5325L58.8783 27.4274L58.8184 24.9562L58.7588 22.4851H59.8262H60.8939V20.5923V18.6995H59.833H58.7722V17.7531V16.8067H55.4835H52.1948L52.1956 22.8531ZM84.0217 22.8531C84.0224 28.5515 84.0472 28.9397 84.4516 29.5973C85.1407 30.7177 86.25 31.0708 89.6044 31.2378L92.5078 31.382V29.4573V27.5325H91.553H90.5983V25.0088V22.4851H91.553H92.5078V20.5923V18.6995H91.553H90.5983V17.7531V16.8067H87.3096H84.0209L84.0217 22.8531ZM41.2052 18.8101C38.6532 19.3595 37.767 20.2966 37.767 22.4462C37.767 24.4809 38.8005 25.311 42.6962 26.4059C45.343 27.1498 45.4436 27.2105 45.3645 28.0196C45.3102 28.5763 45.2098 28.6892 44.7687 28.6892C44.3089 28.6892 44.2296 28.5843 44.1725 27.9006L44.1065 27.1119H40.8066H37.5066L37.6488 28.1109C37.7269 28.6604 37.9575 29.3464 38.1612 29.6356C39.165 31.0605 42.9281 31.8189 46.779 31.3722C50.3879 30.9534 51.5933 30.0083 51.7371 27.4839C51.8695 25.1625 51.2797 24.6624 47.0718 23.5284C45.7557 23.1736 44.5512 22.7783 44.3948 22.6498C44.2387 22.5211 44.1394 22.1713 44.1744 21.8723C44.2234 21.4548 44.3738 21.3128 44.8217 21.2619C45.3736 21.1988 45.4052 21.2415 45.4052 22.0506V22.9057H48.5878H51.7704V22.1137C51.7704 20.3566 50.4382 19.1586 47.9755 18.7014C46.392 18.4074 42.8088 18.465 41.2052 18.8101ZM70.2743 18.7178C69.8907 18.8324 69.1984 19.301 68.7361 19.7593L67.8957 20.5923V19.6459V18.6995H64.607H61.3183V25.0088V31.3181H64.607H67.8957V27.7527C67.8957 25.5876 67.9882 23.9861 68.1312 23.6748C68.512 22.8464 69.1804 22.6954 72.4674 22.6954H75.5339V21.749C75.5339 20.9778 75.6046 20.8026 75.9158 20.8026C76.5286 20.8026 76.807 21.2428 76.807 22.2117V23.116H75.2445C72.2053 23.116 69.9554 23.8521 69.1768 25.1011C68.5786 26.0602 68.5702 28.4034 69.1613 29.3643C70.1133 30.912 72.0602 31.3017 78.889 31.3116L83.4113 31.3181L83.3447 26.0753C83.2685 20.0712 83.2706 20.0781 81.3577 19.1201C80.3422 18.6116 80.1553 18.5929 75.64 18.5521C73.033 18.5283 70.6641 18.6017 70.2743 18.7178ZM96.327 18.7782C94.3047 19.3584 93.3591 20.1483 92.9107 21.6317C92.7716 22.0924 92.7075 23.5861 92.7518 25.3361C92.835 28.6203 93.0728 29.3218 94.4038 30.211C95.5145 30.953 96.4449 31.1478 99.4134 31.2598C104.641 31.4571 107.148 30.1545 107.148 27.241V26.2707H103.859H100.57V27.4413C100.57 28.5944 100.562 28.611 99.987 28.5454C99.4219 28.481 99.4016 28.4339 99.3407 27.0593L99.2781 25.6397H103.232H107.186L107.114 23.4462C107.054 21.6211 106.967 21.153 106.598 20.6596C106.038 19.912 104.983 19.1942 103.99 18.8867C102.821 18.5245 97.4746 18.4488 96.327 18.7782ZM22.9148 23.4702C22.9148 27.865 22.9494 28.3117 23.354 29.1403C23.7043 29.8577 24.0338 30.1564 24.9814 30.6159C26.1668 31.1909 26.181 31.1921 31.7559 31.2815L37.3426 31.3711V25.0353V18.6995H34.0539H30.7652V23.5366V28.3738H30.1287H29.4922V23.5366V18.6995H26.2035H22.9148V23.4702ZM100.57 21.9593C100.57 22.8706 100.547 22.9057 99.9339 22.9057C99.3373 22.9057 99.2974 22.855 99.2974 22.0996C99.2974 21.161 99.4035 21.0129 100.075 21.0129C100.521 21.0129 100.57 21.108 100.57 21.9593ZM115.423 24.9175V28.612L114.839 28.5454L114.256 28.4789L114.197 25.1421C114.136 21.6699 114.23 21.2232 115.024 21.2232C115.399 21.2232 115.423 21.4439 115.423 24.9175ZM76.807 27.1258V28.612L76.2235 28.5454C75.678 28.4833 75.6358 28.4059 75.5753 27.3578C75.5059 26.1556 75.7561 25.6397 76.4085 25.6397C76.7607 25.6397 76.807 25.8122 76.807 27.1258Z" fill="#C3C5D6"/>
</svg>
