<svg width="82" height="20" viewBox="0 0 82 20" fill="none" xmlns="http://www.w3.org/2000/svg">
<path d="M2.58376 0.00885339H20.2195L19.4715 5.56787H1.86644L2.58376 0.00885339ZM1.54877 7.61177H19.2052L18.6619 12.134H7.62558L7.33855 14.2964H18.3955L17.7089 19.4605H0.0116577L1.54877 7.61177ZM20.5065 5.56787C20.5065 5.56787 20.6294 3.67208 21.1213 2.68469C21.5824 1.75654 22.1973 1.08511 23.2324 0.522297C23.8472 0.206332 24.9437 0.00885339 24.9437 0.00885339H56.7107C56.7107 0.00885339 58.0428 0.0286012 58.6167 0.255701C59.2315 0.502549 60.123 0.867884 60.5944 1.97376C61.0556 3.03027 60.9634 3.37586 60.9634 4.43237C60.9634 5.46913 60.9326 5.56787 60.9326 5.56787H20.5065ZM20.2195 7.66114H36.472C36.472 7.66114 37.9169 7.66114 38.583 8.04622C39.2798 8.49055 39.5975 9.03361 39.8024 9.89264C39.997 10.7517 39.454 15.0863 39.1364 16.1428C38.7879 17.1796 38.378 18.1571 36.6974 18.9668C35.1911 19.7073 32.9058 19.4605 32.9058 19.4605H18.8669L19.697 14.2964H32.8445L33.1109 12.1044H24.0419C24.0419 12.1044 22.5664 12.3019 21.183 11.1467C20.3427 10.4556 20.2504 9.39905 20.1992 8.93497C20.1376 8.66828 20.2195 7.66114 20.2195 7.66114ZM41.3599 7.66114H60.5328C60.5328 7.66114 60.3586 9.79391 59.836 10.5542C59.3133 11.3441 58.8522 11.7687 57.9811 11.9562C57.0896 12.1537 55.7575 12.1537 55.7575 12.1537H47.4162L46.5451 19.4604H39.8536L41.3599 7.66114ZM61.8344 5.61724H81.7552C81.7552 5.61724 82.1344 3.93867 81.9294 2.88216C81.7245 1.82565 81.2326 1.11473 80.4231 0.601288C79.3574 -0.119508 77.4104 0.00885339 77.4411 0.00885339H62.6438L61.8344 5.61724ZM61.5782 7.66114H68.1774L66.671 19.4605H60.1229L61.5782 7.66114ZM74.8382 7.71051H81.3761L79.8698 19.4605H73.3627L74.8382 7.71051Z" fill="#C3C5D6"/>
</svg>
