<svg width="87" height="54" viewBox="0 0 87 54" fill="none" xmlns="http://www.w3.org/2000/svg">
<path fill-rule="evenodd" clip-rule="evenodd" d="M0 27.0082V54.0166H43.5H87V27.0082V0H43.5H0V27.0082ZM47.4291 2.48437C47.5649 2.69878 47.5642 51.7999 47.4285 51.9326C47.36 51.9992 2.08561 52.019 2.01731 51.9523C1.8829 51.8211 1.91248 2.67097 2.04711 2.51261C2.16673 2.37165 47.34 2.34363 47.4291 2.48437ZM84.6145 2.45444C84.6832 2.49562 84.7041 21.6573 84.639 24.8388L84.6023 26.6301H66.7442H48.8864L48.8496 24.5958C48.7789 20.6717 48.8055 2.62321 48.8823 2.52216C48.946 2.43767 49.314 2.42939 53.6555 2.41283C61.3809 2.38354 84.5488 2.41474 84.6145 2.45444ZM65.3607 4.05677C61.5729 4.28519 59.0771 6.80713 59.0847 10.3981C59.0928 14.1038 61.1223 15.7293 67.2423 16.9319C70.9992 17.67 71.9225 18.1907 72.4177 19.851C73.122 22.2122 71.3924 24.1875 68.4727 24.3569C64.3991 24.5934 62.0449 22.9637 60.4028 18.7707C60.298 18.5034 60.169 18.1778 60.1161 18.0474L60.02 17.8101L59.4667 17.8209C59.1622 17.8271 58.8903 17.8538 58.8625 17.8808C58.7959 17.9453 58.7552 23.4819 58.8131 24.6045L58.8579 25.4689L59.1622 25.4861C59.8021 25.5226 60.1396 25.2921 60.748 24.403C61.1112 23.8723 61.4925 23.5159 61.6182 23.59C61.6523 23.6101 61.8422 23.7381 62.0401 23.8744C64.0762 25.2766 65.4806 25.7402 67.6851 25.7376C72.0121 25.7326 75.2702 23.397 75.7067 19.9875C76.2588 15.6747 73.965 13.7019 66.8826 12.3981C63.4445 11.7653 62.0451 10.7386 62.0412 8.84719C62.0375 7.03385 63.5431 5.68011 65.8109 5.457C68.8896 5.15449 71.539 7.15337 72.9978 10.8796L73.2536 11.5326L73.5555 11.5596C73.7216 11.5744 74.0011 11.5782 74.1764 11.568L74.4955 11.5494L74.48 7.9938C74.4716 6.03823 74.4439 4.41808 74.4187 4.39324C74.3933 4.36861 74.169 4.34208 73.9204 4.33443L73.4685 4.32042L73.204 4.63142C73.0587 4.80252 72.8262 5.10482 72.6876 5.30309C72.5491 5.50158 72.3531 5.75674 72.252 5.87032L72.0682 6.07687L71.9105 5.95735C70.9561 5.2341 69.322 4.5221 67.9618 4.23636C67.3922 4.11684 67.132 4.08606 66.2461 4.0332C66.1091 4.02492 65.7107 4.03554 65.3607 4.05677ZM19.5698 6.13525C19.525 6.24946 19.528 8.58014 19.5733 8.74508L19.6087 8.87457L21.7448 8.83891C25.3736 8.7782 25.9282 9.00364 26.2109 10.655C26.4215 11.8844 26.4436 37.0845 26.2359 39.1933C25.9119 42.4852 24.591 44.6353 22.165 45.8194C18.6245 47.5476 12.424 45.8767 11.6563 42.9875C11.5623 42.6338 11.4973 42.6661 12.1967 42.7194C14.0079 42.8574 15.4679 42.3339 17.0587 40.9763C18.9682 39.3472 19.5204 37.9128 19.1735 35.4851C18.7274 32.3626 15.9101 30.4916 12.4247 31.0027C6.76969 31.8321 4.78544 39.3322 8.91446 44.271C12.0019 47.9637 17.3052 49.7825 23.1083 49.1389C29.9965 48.3749 34.4326 44.6367 35.2805 38.8821C35.4736 37.5702 35.4784 35.642 35.3477 12.0187C35.3331 9.42206 35.8325 8.91045 38.4914 8.79688C40.4456 8.71345 40.4955 8.70793 40.5331 8.57101C40.5759 8.41477 40.5761 6.24436 40.5333 6.13525C40.4818 6.00427 19.6213 6.00427 19.5698 6.13525ZM83.8038 28.1783L84.6756 28.2135V38.2656C84.6754 43.7944 84.659 49.1017 84.6388 50.0598L84.6023 51.8018L69.1013 51.7941C60.5757 51.7899 52.5169 51.7716 51.1928 51.7536L48.7853 51.7209L48.7713 40.0049C48.7611 31.3897 48.7739 28.2696 48.8196 28.2159C48.8864 28.1373 81.9175 28.1019 83.8038 28.1783ZM71.4762 29.6949C70.5459 29.7142 70.5629 29.7023 70.5629 30.3362C70.5629 30.8828 70.5877 30.9516 70.7841 30.9516C72.2426 30.9516 73.2164 31.8111 73.599 33.4362L73.7453 34.0575L73.7436 38.9188C73.7416 44.8174 73.7214 45.0329 73.0502 46.2919C71.9153 48.4212 69.1796 49.3374 66.4676 48.4965C64.644 47.9312 63.8028 46.936 63.4128 44.8834L63.2853 44.2126V38.1357C63.2853 30.3937 63.0935 31.0412 65.3766 31.0728C66.2018 31.0843 66.3693 31.0734 66.4134 31.0055C66.5008 30.8705 66.4806 29.9456 66.3882 29.8556C66.2461 29.7167 56.8462 29.6615 55.9693 29.7942C55.7442 29.8282 55.7074 29.9328 55.7174 30.5138C55.7274 31.1059 55.6646 31.0749 56.9341 31.1108C58.9325 31.1668 58.8048 30.7442 58.7396 37.0824C58.6639 44.4344 58.6909 45.3006 59.031 46.4465C59.8984 49.3673 62.8073 51.014 67.104 51.0163C71.6328 51.0189 74.7508 48.9703 75.4453 45.536C75.5001 45.2647 75.5169 43.9313 75.5188 39.6752C75.5212 34.2116 75.5223 34.1605 75.6439 33.5584C75.9995 31.7963 76.756 31.0594 78.2095 31.0594H78.6382L78.6743 30.8718C78.715 30.6595 78.6876 29.8424 78.638 29.7942C78.5408 29.6993 74.1747 29.6388 71.4762 29.6949Z" fill="#C3C5D6"/>
<path fill-rule="evenodd" clip-rule="evenodd" d="M2.56193 2.47082C2.76877 2.48122 3.09241 2.48122 3.28142 2.47082C3.47043 2.4602 3.30121 2.45171 2.90558 2.45171C2.50973 2.45193 2.35531 2.46042 2.56193 2.47082ZM42.8221 2.47082C43.0124 2.48122 43.3236 2.48122 43.5139 2.47082C43.704 2.4602 43.5485 2.4515 43.1679 2.4515C42.7875 2.4515 42.6317 2.4602 42.8221 2.47082ZM49.2437 2.47061C49.4045 2.48165 49.6535 2.48143 49.7973 2.47039C49.9408 2.45936 49.8092 2.45044 49.5047 2.45044C49.2005 2.45065 49.083 2.45978 49.2437 2.47061ZM81.0109 2.47061C81.1717 2.48165 81.4207 2.48143 81.5645 2.47039C81.708 2.45936 81.5764 2.45044 81.2719 2.45044C80.9676 2.45065 80.8502 2.45978 81.0109 2.47061ZM2.01448 4.56437C2.01448 5.01017 2.02318 5.1851 2.03362 4.95349C2.04385 4.72189 2.04385 4.3574 2.03341 4.14341C2.02297 3.92922 2.01448 4.11879 2.01448 4.56437ZM74.5075 5.94189C74.5075 6.07563 74.5183 6.13019 74.5314 6.06332C74.5446 5.99645 74.5446 5.88712 74.5314 5.82025C74.5183 5.75338 74.5075 5.80815 74.5075 5.94189ZM27.1616 6.03572C27.3226 6.04676 27.5716 6.04655 27.7152 6.03551C27.8587 6.02447 27.7271 6.01555 27.4226 6.01555C27.1183 6.01577 27.0009 6.02489 27.1616 6.03572ZM38.1177 6.03402C38.1863 6.04697 38.2985 6.04697 38.3668 6.03402C38.4353 6.02107 38.3794 6.01067 38.2424 6.01067C38.1053 6.01067 38.0494 6.02107 38.1177 6.03402ZM47.452 9.53397C47.452 10.039 47.4602 10.253 47.4705 10.0093C47.4807 9.76557 47.4809 9.35246 47.4707 9.09093C47.4605 8.82961 47.4522 9.02894 47.452 9.53397ZM23.1198 8.84277C23.1883 8.85572 23.3003 8.85572 23.3689 8.84277C23.4374 8.83003 23.3812 8.81941 23.2442 8.81941C23.1072 8.81941 23.0513 8.83003 23.1198 8.84277ZM26.3088 14.4494C26.309 14.7763 26.3182 14.9031 26.329 14.7311C26.3401 14.5592 26.3401 14.2917 26.3288 14.1369C26.3177 13.982 26.3088 14.1227 26.3088 14.4494ZM1.96294 19.3921C1.96294 21.13 1.9699 21.841 1.9786 20.9719C1.98708 20.103 1.98708 18.6809 1.9786 17.812C1.9699 16.9429 1.96294 17.6541 1.96294 19.3921ZM75.784 19.0138C75.784 19.2367 75.7937 19.3277 75.8055 19.2165C75.8175 19.105 75.8175 18.9227 75.8055 18.8112C75.7937 18.6998 75.784 18.7911 75.784 19.0138ZM58.7324 19.6621C58.7324 19.7661 58.7437 19.8086 58.7576 19.7566C58.7715 19.7045 58.7715 19.6194 58.7576 19.5676C58.7437 19.5156 58.7324 19.5581 58.7324 19.6621ZM48.832 21.3636C48.8322 21.6013 48.8418 21.6917 48.8535 21.5648C48.8653 21.4376 48.8651 21.2432 48.8531 21.1326C48.8414 21.022 48.8318 21.126 48.832 21.3636ZM84.6395 21.7147C84.6395 21.9673 84.649 22.0705 84.6608 21.9444C84.6723 21.8181 84.6723 21.6113 84.6608 21.4852C84.649 21.3589 84.6395 21.4623 84.6395 21.7147ZM58.7324 23.6592C58.7324 23.7632 58.7437 23.8059 58.7576 23.7539C58.7715 23.7019 58.7715 23.6167 58.7576 23.5647C58.7437 23.5127 58.7324 23.5554 58.7324 23.6592ZM26.3123 25.7659C26.3123 26.5533 26.3201 26.8753 26.3295 26.4817C26.339 26.088 26.339 25.4439 26.3295 25.0503C26.3201 24.6565 26.3123 24.9786 26.3123 25.7659ZM57.8478 26.6168C62.7409 26.6244 70.7477 26.6244 75.6408 26.6168C80.5337 26.6091 76.5304 26.603 66.7442 26.603C56.9582 26.603 52.9547 26.6091 57.8478 26.6168ZM81.1482 28.1815C81.2323 28.1938 81.3567 28.1934 81.4248 28.1807C81.4929 28.1679 81.4242 28.1577 81.2719 28.1582C81.1197 28.1586 81.064 28.169 81.1482 28.1815ZM60.1433 29.694C60.2416 29.7061 60.4158 29.7061 60.5307 29.6945C60.6455 29.6828 60.5653 29.673 60.3521 29.6728C60.139 29.6726 60.045 29.6822 60.1433 29.694ZM61.693 29.694C61.7911 29.7061 61.9655 29.7061 62.0804 29.6945C62.1952 29.6828 62.1147 29.673 61.9018 29.6728C61.6887 29.6726 61.5947 29.6822 61.693 29.694ZM56.3812 29.7473C56.4497 29.7601 56.5617 29.7601 56.6303 29.7473C56.6988 29.7344 56.6427 29.7238 56.5056 29.7238C56.3688 29.7238 56.3127 29.7344 56.3812 29.7473ZM65.6237 29.7473C65.692 29.7601 65.8042 29.7601 65.8727 29.7473C65.941 29.7344 65.8851 29.7238 65.7481 29.7238C65.6111 29.7238 65.5551 29.7344 65.6237 29.7473ZM70.5215 30.3303C70.5222 30.4491 70.5335 30.4914 70.5468 30.4243C70.56 30.357 70.5596 30.2598 70.5457 30.2082C70.5318 30.1566 70.5209 30.2116 70.5215 30.3303ZM35.4358 30.8705C35.4362 31.0191 35.4468 31.0735 35.4595 30.9913C35.4723 30.9092 35.4719 30.7877 35.4588 30.7213C35.4458 30.6548 35.4353 30.7219 35.4358 30.8705ZM64.5444 31.0983C64.6282 31.1106 64.765 31.1106 64.8487 31.0983C64.9324 31.0858 64.8639 31.0758 64.6965 31.0758C64.5292 31.0758 64.4607 31.0858 64.5444 31.0983ZM1.96294 35.1107C1.96294 36.819 1.9699 37.5178 1.9786 36.6638C1.98708 35.8095 1.98708 34.4119 1.9786 33.5578C1.9699 32.7036 1.96294 33.4024 1.96294 35.1107ZM26.3081 33.3281C26.3081 33.6105 26.3175 33.726 26.3288 33.5848C26.3403 33.4436 26.3403 33.2129 26.3288 33.0717C26.3175 32.9305 26.3081 33.046 26.3081 33.3281ZM63.2705 34.4087C63.2705 34.5125 63.2818 34.5552 63.2958 34.5031C63.3097 34.4511 63.3097 34.366 63.2958 34.314C63.2818 34.262 63.2705 34.3047 63.2705 34.4087ZM35.496 35.624C35.496 35.9507 35.5051 36.0774 35.5162 35.9055C35.5271 35.7335 35.5271 35.4663 35.516 35.3113C35.5047 35.1566 35.4958 35.2971 35.496 35.624ZM73.7347 36.5963C73.7351 36.7746 73.7453 36.8408 73.7577 36.7438C73.7699 36.6468 73.7697 36.501 73.7571 36.4197C73.7445 36.3386 73.7345 36.418 73.7347 36.5963ZM26.301 37.4335C26.301 37.5375 26.3125 37.58 26.3264 37.528C26.3403 37.476 26.3403 37.3909 26.3264 37.3391C26.3125 37.2871 26.301 37.3295 26.301 37.4335ZM75.5639 39.1619C75.5639 39.4443 75.5732 39.5598 75.5845 39.4186C75.596 39.2774 75.596 39.0465 75.5845 38.9055C75.5732 38.7643 75.5639 38.8798 75.5639 39.1619ZM63.2812 42.079C63.2812 42.7177 63.2892 42.979 63.299 42.6596C63.3088 42.3403 63.3088 41.8176 63.299 41.4981C63.2892 41.1789 63.2812 41.4402 63.2812 42.079ZM47.452 44.8607C47.452 45.3658 47.4602 45.5798 47.4705 45.336C47.4807 45.0923 47.4809 44.6792 47.4707 44.4177C47.4605 44.1564 47.4522 44.3557 47.452 44.8607ZM84.6393 47.0214C84.6395 47.2591 84.649 47.3496 84.6608 47.2226C84.6725 47.0955 84.6723 46.901 84.6604 46.7904C84.6486 46.6798 84.639 46.7838 84.6393 47.0214ZM2.01427 49.9114C2.01427 50.3422 2.02297 50.5183 2.03341 50.3029C2.04406 50.0876 2.04406 49.735 2.03341 49.5198C2.02297 49.3043 2.01427 49.4805 2.01427 49.9114ZM50.7915 51.7335C50.9209 51.7447 51.1325 51.7447 51.2619 51.7335C51.3913 51.722 51.2854 51.7127 51.0268 51.7127C50.768 51.7127 50.6621 51.722 50.7915 51.7335ZM11.7744 52.0035C11.9038 52.015 12.1154 52.015 12.2448 52.0035C12.374 51.992 12.2683 51.9829 12.0095 51.9829C11.7509 51.9829 11.6449 51.992 11.7744 52.0035ZM37.2064 52.0037C37.3519 52.015 37.576 52.0147 37.7045 52.0035C37.8328 51.992 37.7138 51.9829 37.4398 51.9831C37.166 51.9833 37.0609 51.9925 37.2064 52.0037Z" fill="#C3C5D6"/>
<path fill-rule="evenodd" clip-rule="evenodd" d="M8.70718 2.47125C11.5327 2.4791 16.1402 2.4791 18.9458 2.47125C21.7513 2.46361 19.4395 2.45724 13.8082 2.45724C8.17692 2.45724 5.88164 2.46361 8.70718 2.47125ZM35.6591 2.47125C36.9324 2.47932 38.9993 2.47932 40.2527 2.47125C41.506 2.46318 40.4644 2.4566 37.9379 2.4566C35.4116 2.4566 34.3861 2.46318 35.6591 2.47125ZM54.0568 2.47125C56.2864 2.4791 59.935 2.4791 62.1646 2.47125C64.3944 2.46339 62.57 2.45703 58.1108 2.45703C53.6514 2.45703 51.8272 2.46339 54.0568 2.47125ZM75.3957 2.47125C76.3947 2.47953 78.0136 2.47953 78.993 2.47125C79.9726 2.46297 79.155 2.45618 77.1766 2.45618C75.198 2.45618 74.3965 2.46297 75.3957 2.47125ZM46.5024 2.52474C46.6775 2.53536 46.9639 2.53536 47.1388 2.52474C47.3139 2.51392 47.1708 2.50521 46.8206 2.50521C46.4706 2.50521 46.3273 2.51392 46.5024 2.52474ZM84.1357 2.5239L84.6199 2.543L84.634 11.8993L84.6484 21.2555L84.6482 11.8838L84.648 2.5118L84.1499 2.50819L83.6518 2.50479L84.1357 2.5239ZM48.8401 11.7757C48.8401 16.841 48.8466 18.9134 48.8544 16.3806C48.8625 13.8478 48.8625 9.70337 48.8544 7.17081C48.8466 4.63804 48.8401 6.71016 48.8401 11.7757ZM65.7912 3.98293C65.9212 3.99418 66.1204 3.99418 66.2338 3.98251C66.3471 3.97083 66.2407 3.96149 65.9971 3.9617C65.7537 3.96191 65.6609 3.97147 65.7912 3.98293ZM73.6494 4.30645C73.7488 4.31855 73.8982 4.31834 73.9815 4.30603C74.0646 4.29372 73.9833 4.28374 73.8006 4.28416C73.6179 4.28438 73.5498 4.29456 73.6494 4.30645ZM73.2436 4.49687L73.0811 4.67243L73.261 4.51386C73.4287 4.36589 73.4663 4.32131 73.4234 4.32131C73.4141 4.32131 73.333 4.40028 73.2436 4.49687ZM74.5101 5.40163C74.5101 5.59481 74.5201 5.67378 74.5325 5.57719C74.5447 5.4806 74.5447 5.32266 74.5325 5.22607C74.5201 5.12948 74.5101 5.20866 74.5101 5.40163ZM2.01753 7.34637C2.01753 8.46045 2.02471 8.91622 2.03385 8.35919C2.04276 7.80215 2.04276 6.8906 2.03385 6.33356C2.02471 5.77653 2.01753 6.2323 2.01753 7.34637ZM31.0616 5.98244C32.2107 5.99051 34.091 5.99051 35.24 5.98244C36.3891 5.97416 35.4488 5.96758 33.1507 5.96758C30.8526 5.96758 29.9126 5.97416 31.0616 5.98244ZM19.5291 6.0905C19.4619 6.17414 19.4634 6.17732 19.5415 6.11788C19.6092 6.0663 20.4731 6.0474 23.2771 6.03636L26.9245 6.02214L23.2649 6.00898C19.836 5.99667 19.6005 6.00176 19.5291 6.0905ZM38.9786 6.03615C39.2768 6.04592 39.7501 6.04592 40.03 6.03615C40.3102 6.02639 40.0659 6.01832 39.4876 6.01832C38.9092 6.01853 38.6802 6.02639 38.9786 6.03615ZM40.5807 6.34694C40.5814 6.46582 40.5927 6.50806 40.6059 6.44098C40.6192 6.37368 40.6188 6.27646 40.6049 6.22487C40.5909 6.17308 40.5801 6.22806 40.5807 6.34694ZM40.6429 7.37333C40.6429 7.70004 40.6521 7.82678 40.6632 7.65482C40.674 7.48309 40.674 7.21561 40.6629 7.06064C40.6516 6.90588 40.6427 7.04642 40.6429 7.37333ZM19.4458 7.64336C19.446 7.94056 19.4552 8.05519 19.4665 7.8981C19.4776 7.74122 19.4776 7.49816 19.4663 7.35805C19.4547 7.21794 19.4456 7.34637 19.4458 7.64336ZM70.8398 7.48139C70.9428 7.58541 71.0399 7.67032 71.0551 7.67032C71.0703 7.67032 70.9983 7.58541 70.895 7.48139C70.7917 7.37737 70.6949 7.29224 70.6797 7.29224C70.6644 7.29224 70.7364 7.37737 70.8398 7.48139ZM74.566 8.02144C74.5662 8.22948 74.5762 8.30781 74.5882 8.19594C74.6001 8.08385 74.5999 7.9136 74.5877 7.81765C74.5755 7.72191 74.5655 7.81361 74.566 8.02144ZM40.5807 8.3456C40.5814 8.46448 40.5927 8.50672 40.6059 8.43943C40.6192 8.37235 40.6188 8.27512 40.6049 8.22332C40.5909 8.17174 40.5801 8.22672 40.5807 8.3456ZM62.0591 8.83173C62.0593 9.06949 62.0691 9.15992 62.0806 9.03298C62.0923 8.90582 62.0921 8.71137 62.0804 8.60077C62.0684 8.49017 62.0589 8.59397 62.0591 8.83173ZM39.7238 8.78991C39.8232 8.8018 39.9728 8.80159 40.0559 8.78928C40.139 8.77696 40.0576 8.7672 39.8749 8.76741C39.6924 8.76783 39.6244 8.77781 39.7238 8.78991ZM38.369 8.84468C38.5451 8.85551 38.819 8.8553 38.9777 8.84447C39.1363 8.83364 38.9923 8.82473 38.6574 8.82494C38.3226 8.82515 38.1928 8.83386 38.369 8.84468ZM22.0669 8.89775C22.1652 8.90964 22.3396 8.90985 22.4545 8.89818C22.5693 8.8865 22.4889 8.87674 22.2757 8.87652C22.0628 8.87631 21.9688 8.88587 22.0669 8.89775ZM20.3541 8.95231C20.4842 8.96377 20.6834 8.96356 20.7967 8.9521C20.9102 8.94042 20.8037 8.93108 20.5601 8.93129C20.3167 8.93151 20.2238 8.94106 20.3541 8.95231ZM35.9704 9.49343L35.7796 9.69594L35.9871 9.50977C36.1803 9.33655 36.2201 9.2909 36.1779 9.2909C36.1685 9.2909 36.0752 9.38198 35.9704 9.49343ZM74.5699 10.7223C74.5699 11.1679 74.5786 11.3431 74.5888 11.1115C74.5992 10.8799 74.5992 10.5154 74.5888 10.3012C74.5784 10.0872 74.5699 10.2768 74.5699 10.7223ZM47.4552 13.288C47.4552 14.8776 47.4622 15.5278 47.4709 14.733C47.4794 13.9382 47.4794 12.6378 47.4709 11.8432C47.4622 11.0484 47.4552 11.6986 47.4552 13.288ZM62.7873 10.7493C62.906 10.8682 63.0159 10.9654 63.0311 10.9654C63.0463 10.9654 62.9615 10.8682 62.8425 10.7493C62.7237 10.6304 62.6139 10.5332 62.5987 10.5332C62.5835 10.5332 62.6683 10.6304 62.7873 10.7493ZM59.0091 10.9654C59.0091 11.0694 59.0204 11.1119 59.0343 11.0599C59.0482 11.0079 59.0482 10.923 59.0343 10.8709C59.0204 10.8189 59.0091 10.8614 59.0091 10.9654ZM26.2457 11.5596C26.2457 11.6636 26.257 11.7061 26.271 11.6541C26.2849 11.6021 26.2849 11.5171 26.271 11.4651C26.257 11.4131 26.2457 11.4556 26.2457 11.5596ZM35.3786 13.0991C35.379 13.218 35.3905 13.2602 35.4036 13.1929C35.4168 13.1258 35.4164 13.0286 35.4025 12.9768C35.3888 12.9252 35.3779 12.9802 35.3786 13.0991ZM60.4905 14.3414C60.6558 14.5048 60.8034 14.6386 60.8187 14.6386C60.8339 14.6386 60.7112 14.5048 60.5459 14.3414C60.3804 14.1781 60.2327 14.0444 60.2175 14.0444C60.2023 14.0444 60.3252 14.1781 60.4905 14.3414ZM35.4468 22.5789C35.4468 27.0205 35.4534 28.8375 35.4614 26.6168C35.4693 24.3958 35.4693 20.7619 35.4614 18.5412C35.4534 16.3205 35.4468 18.1375 35.4468 22.5789ZM74.3817 15.2056C74.547 15.369 74.6947 15.5028 74.71 15.5028C74.7252 15.5028 74.6023 15.369 74.437 15.2056C74.2717 15.0423 74.124 14.9086 74.1088 14.9086C74.0936 14.9086 74.2164 15.0423 74.3817 15.2056ZM26.3147 19.6891C26.3147 22.2738 26.3214 23.3391 26.3297 22.0565C26.3379 20.7736 26.3379 18.6588 26.3297 17.3569C26.3214 16.0549 26.3147 17.1045 26.3147 19.6891ZM75.7811 18.3926C75.7816 18.5412 75.7922 18.5956 75.8051 18.5134C75.8177 18.4313 75.8175 18.3098 75.8042 18.2434C75.7911 18.1769 75.7807 18.244 75.7811 18.3926ZM58.7381 19.1218C58.7381 19.3447 58.7478 19.4358 58.7598 19.3246C58.7718 19.2131 58.7718 19.0308 58.7598 18.9193C58.7478 18.8079 58.7381 18.8991 58.7381 19.1218ZM75.7811 19.6351C75.7816 19.7835 75.7922 19.8379 75.8051 19.7559C75.8177 19.6738 75.8175 19.5521 75.8042 19.4857C75.7911 19.4192 75.7807 19.4865 75.7811 19.6351ZM72.5167 20.9044C72.5167 21.0678 72.5269 21.1347 72.5397 21.053C72.5523 20.9713 72.5523 20.8375 72.5397 20.756C72.5269 20.6743 72.5167 20.7411 72.5167 20.9044ZM62.5913 22.4305C62.8205 22.6689 62.8703 22.7118 62.8703 22.6712C62.8703 22.6625 62.752 22.547 62.6074 22.4146L62.3444 22.1738L62.5913 22.4305ZM1.96359 27.2785C1.96359 29.9076 1.97034 30.9832 1.9786 29.6686C1.98687 28.3541 1.98687 26.2028 1.9786 24.8881C1.97034 23.5734 1.96359 24.6491 1.96359 27.2785ZM74.0481 23.4297L73.6899 23.7944L74.0635 23.4448C74.2689 23.2525 74.437 23.0884 74.437 23.0801C74.437 23.0404 74.3807 23.0911 74.0481 23.4297ZM61.1788 23.8889L61.0161 24.0645L61.196 23.9057C61.3637 23.7579 61.4013 23.7133 61.3587 23.7133C61.3491 23.7133 61.2682 23.7923 61.1788 23.8889ZM58.7381 24.1995C58.7381 24.4224 58.7478 24.5134 58.7598 24.402C58.7718 24.2905 58.7718 24.1084 58.7598 23.997C58.7478 23.8855 58.7381 23.9766 58.7381 24.1995ZM66.5367 24.2908C66.59 24.3043 66.6772 24.3043 66.7305 24.2908C66.7838 24.2772 66.7401 24.2659 66.6335 24.2659C66.5272 24.2659 66.4835 24.2772 66.5367 24.2908ZM68.8612 24.2908C68.9145 24.3043 69.0017 24.3043 69.055 24.2908C69.1082 24.2772 69.0645 24.2659 68.958 24.2659C68.8516 24.2659 68.8079 24.2772 68.8612 24.2908ZM48.8892 25.8198C48.8892 26.1616 48.8981 26.3013 48.9092 26.1306C48.9201 25.9597 48.9201 25.6802 48.9092 25.5093C48.8981 25.3386 48.8892 25.4783 48.8892 25.8198ZM84.5845 26.0631C84.5845 26.3304 84.5938 26.4465 84.6053 26.3213C84.6169 26.1958 84.6171 25.9771 84.6056 25.8351C84.5942 25.6931 84.5847 25.7956 84.5845 26.0631ZM56.3258 28.183C56.8815 28.1919 57.7904 28.1919 58.3459 28.183C58.9014 28.1743 58.4468 28.1671 57.3358 28.1671C56.2248 28.1671 55.7703 28.1743 56.3258 28.183ZM78.6017 28.183C79.0506 28.1921 79.7853 28.1921 80.2342 28.183C80.6832 28.1739 80.3158 28.1667 79.418 28.1667C78.5199 28.1667 78.1528 28.1739 78.6017 28.183ZM84.6064 34.0979C84.614 37.3437 84.6266 41.4941 84.6345 43.3213C84.6423 45.1484 84.6547 42.4929 84.6621 37.4199C84.6695 32.3472 84.6569 28.1966 84.634 28.1966C84.6112 28.1966 84.5988 30.8523 84.6064 34.0979ZM73.6733 29.6412C73.938 29.6512 74.3863 29.6512 74.6695 29.6414C74.9525 29.6316 74.7358 29.6236 74.188 29.6234C73.6401 29.6234 73.4084 29.6314 73.6733 29.6412ZM58.3766 29.6955C58.6902 29.7051 59.1883 29.7051 59.4834 29.6953C59.7786 29.6858 59.5219 29.6777 58.9131 29.6779C58.3044 29.6779 58.0629 29.6858 58.3766 29.6955ZM62.804 29.6955C63.1176 29.7051 63.6157 29.7051 63.9109 29.6953C64.206 29.6858 63.9494 29.6777 63.3406 29.6779C62.7318 29.6779 62.4904 29.6858 62.804 29.6955ZM77.8554 29.6943C77.955 29.7064 78.1045 29.7061 78.1876 29.6936C78.2707 29.6813 78.1893 29.6715 78.0066 29.672C77.8241 29.6722 77.756 29.6822 77.8554 29.6943ZM55.9116 29.748C55.9956 29.7603 56.1202 29.7601 56.1883 29.7471C56.2564 29.7344 56.1874 29.7242 56.0354 29.7246C55.8832 29.725 55.8275 29.7354 55.9116 29.748ZM65.9971 29.7365C66.1237 29.7796 66.4578 29.7913 66.4328 29.7518C66.4178 29.7284 66.3014 29.711 66.1737 29.7134C66.0463 29.7157 65.9667 29.7261 65.9971 29.7365ZM78.7124 30.1144C78.713 30.233 78.7243 30.2753 78.7376 30.2082C78.7509 30.1409 78.7505 30.0437 78.7365 29.9921C78.7226 29.9405 78.7117 29.9955 78.7124 30.1144ZM66.4804 30.1413C66.4804 30.2453 66.4917 30.2878 66.5056 30.2358C66.5196 30.1838 66.5196 30.0987 66.5056 30.0466C66.4917 29.9948 66.4804 30.0373 66.4804 30.1413ZM70.5205 30.6814C70.5205 30.7854 70.5318 30.8279 70.5457 30.7761C70.5596 30.724 70.5596 30.6389 70.5457 30.5869C70.5318 30.5349 70.5205 30.5774 70.5205 30.6814ZM78.7124 30.7083C78.713 30.8272 78.7243 30.8695 78.7376 30.8024C78.7509 30.7351 78.7505 30.6379 78.7365 30.5863C78.7226 30.5347 78.7117 30.5897 78.7124 30.7083ZM66.4804 30.7355C66.4804 30.8395 66.4917 30.882 66.5056 30.83C66.5196 30.778 66.5196 30.6928 66.5056 30.6408C66.4917 30.589 66.4804 30.6315 66.4804 30.7355ZM13.3241 30.8833C13.4837 30.8943 13.7454 30.8943 13.905 30.8833C14.0649 30.8724 13.9341 30.8635 13.6144 30.8635C13.2949 30.8635 13.1642 30.8724 13.3241 30.8833ZM78.2835 31.0595L77.8959 31.0945L78.2663 31.104C78.4699 31.1093 78.6519 31.0892 78.6708 31.0595C78.6896 31.0297 78.6974 31.0098 78.6878 31.0151C78.6785 31.0204 78.4964 31.0404 78.2835 31.0595ZM56.4919 31.1537C56.7125 31.1639 57.0737 31.1639 57.2943 31.1537C57.5151 31.1435 57.3345 31.135 56.8932 31.135C56.4517 31.135 56.2712 31.1435 56.4919 31.1537ZM65.513 31.1526C65.6117 31.1645 65.7738 31.1645 65.8727 31.1526C65.9715 31.1408 65.8905 31.1308 65.6928 31.1308C65.4949 31.1308 65.414 31.1408 65.513 31.1526ZM17.7376 32.5181C17.8874 32.6665 18.0227 32.7881 18.0379 32.7881C18.0529 32.7881 17.9429 32.6665 17.793 32.5181C17.643 32.3695 17.5079 32.2478 17.4927 32.2478C17.4774 32.2478 17.5877 32.3695 17.7376 32.5181ZM58.7402 33.2473C58.7402 33.574 58.7494 33.7007 58.7605 33.5288C58.7716 33.357 58.7713 33.0895 58.7602 32.9346C58.7491 32.7798 58.74 32.9203 58.7402 33.2473ZM63.2797 33.4634C63.2799 33.909 63.2884 34.0841 63.2988 33.8525C63.3092 33.6209 63.3093 33.2562 63.2986 33.0422C63.2882 32.8282 63.2797 33.0176 63.2797 33.4634ZM35.4977 34.1654C35.4977 34.6706 35.506 34.8844 35.5162 34.6407C35.5265 34.3972 35.5267 33.9839 35.5165 33.7226C35.5062 33.461 35.498 33.6604 35.4977 34.1654ZM26.3129 35.5429C26.3129 36.5084 26.3203 36.9035 26.3297 36.4207C26.3388 35.938 26.3388 35.1479 26.3297 34.6651C26.3203 34.1824 26.3129 34.5774 26.3129 35.5429ZM73.6751 34.5707C73.6751 34.6747 73.6864 34.7171 73.7003 34.6651C73.7142 34.6131 73.7142 34.528 73.7003 34.4762C73.6864 34.4242 73.6751 34.4666 73.6751 34.5707ZM75.5591 34.7326C75.5591 34.8664 75.5697 34.9211 75.583 34.8543C75.596 34.7874 75.596 34.6781 75.583 34.6112C75.5697 34.5443 75.5591 34.5989 75.5591 34.7326ZM63.3384 37.4066C63.3384 38.7433 63.3456 39.2825 63.3545 38.6047C63.3632 37.9267 63.3632 36.833 63.3545 36.1738C63.3456 35.5149 63.3384 36.0696 63.3384 37.4066ZM73.7377 35.786C73.7379 36.0832 73.7473 36.1978 73.7584 36.0407C73.7697 35.8838 73.7695 35.6408 73.7582 35.5007C73.7469 35.3606 73.7377 35.489 73.7377 35.786ZM7.00481 35.7898C6.98458 35.869 6.97849 35.9441 6.99154 35.9569C7.00459 35.9696 7.032 35.9153 7.05244 35.8361C7.07267 35.7569 7.07876 35.6818 7.06571 35.669C7.05266 35.6563 7.02525 35.7106 7.00481 35.7898ZM35.4923 36.4882C35.4927 36.6665 35.503 36.7328 35.5154 36.6358C35.5275 36.5387 35.5273 36.3929 35.5147 36.3116C35.5021 36.2305 35.4921 36.3099 35.4923 36.4882ZM75.5665 37.7847C75.5665 38.2897 75.5747 38.5034 75.585 38.26C75.5952 38.0163 75.5954 37.6031 75.5852 37.3416C75.575 37.0803 75.5667 37.2796 75.5665 37.7847ZM6.71053 37.3524C6.71118 37.4713 6.72249 37.5136 6.73576 37.4465C6.74903 37.3792 6.74838 37.282 6.73467 37.2304C6.72075 37.1786 6.70988 37.2336 6.71053 37.3524ZM73.6879 40.3234C73.6879 41.8979 73.6951 42.5343 73.7038 41.7376C73.7123 40.9407 73.7123 39.6523 73.7036 38.8747C73.6951 38.0969 73.6879 38.7488 73.6879 40.3234ZM6.66225 38.3788C6.66246 38.7353 6.67138 38.8741 6.68226 38.6873C6.69313 38.5005 6.69291 38.2088 6.68204 38.0392C6.67116 37.8693 6.66225 38.0222 6.66225 38.3788ZM26.2457 38.3519C26.2457 38.4557 26.257 38.4983 26.271 38.4463C26.2849 38.3943 26.2849 38.3092 26.271 38.2572C26.257 38.2052 26.2457 38.2479 26.2457 38.3519ZM47.4552 41.1337C47.4552 42.7082 47.4622 43.3446 47.4709 42.5477C47.4796 41.751 47.4794 40.4626 47.4709 39.6848C47.4622 38.9072 47.4552 39.5591 47.4552 41.1337ZM6.71053 39.405C6.71118 39.5239 6.72249 39.5661 6.73576 39.4991C6.74903 39.4318 6.74838 39.3345 6.73467 39.283C6.72075 39.2314 6.70988 39.2864 6.71053 39.405ZM58.6824 40.3234C58.6826 40.5314 58.6926 40.6097 58.7046 40.4977C58.7165 40.3856 58.7163 40.2155 58.7041 40.1196C58.6919 40.0238 58.6819 40.1153 58.6824 40.3234ZM12.5232 42.8209C12.6687 42.8322 12.8928 42.8319 13.0213 42.8207C13.1496 42.8092 13.0306 42.8001 12.7566 42.8003C12.4828 42.8005 12.3777 42.8097 12.5232 42.8209ZM63.328 43.6993C63.328 43.8331 63.3388 43.8878 63.3521 43.821C63.3651 43.7541 63.3651 43.6448 63.3521 43.5779C63.3388 43.511 63.328 43.5658 63.328 43.6993ZM23.9085 44.5366C23.7741 44.6703 23.6764 44.7797 23.6916 44.7797C23.7069 44.7797 23.8293 44.6703 23.9637 44.5366C24.0981 44.4031 24.1958 44.2935 24.1806 44.2935C24.1653 44.2935 24.0429 44.4031 23.9085 44.5366ZM12.6737 44.4725C12.6737 44.4818 12.7546 44.5608 12.8536 44.648L13.0335 44.8068L12.8708 44.6313C12.7194 44.4676 12.6737 44.4309 12.6737 44.4725ZM9.65744 45.1579C9.86885 45.3658 10.0544 45.536 10.0696 45.536C10.0848 45.536 9.92431 45.3658 9.71268 45.1579C9.50127 44.9499 9.31596 44.7797 9.30074 44.7797C9.28551 44.7797 9.44603 44.9499 9.65744 45.1579ZM32.1248 45.3335L31.8503 45.6169L32.1409 45.349C32.3005 45.2015 32.4312 45.0739 32.4312 45.0654C32.4312 45.0251 32.3801 45.0698 32.1248 45.3335ZM2.01753 47.1564C2.01753 48.2705 2.02471 48.7262 2.03385 48.1692C2.04276 47.6122 2.04276 46.7006 2.03385 46.1436C2.02471 45.5865 2.01753 46.0423 2.01753 47.1564ZM73.1731 45.8895C73.0804 46.088 73.0981 46.1304 73.1983 45.9498C73.2451 45.8655 73.2731 45.7863 73.2605 45.774C73.2479 45.7617 73.2086 45.8137 73.1731 45.8895ZM18.0005 46.4915C18.0538 46.5051 18.1408 46.5051 18.1941 46.4915C18.2474 46.4779 18.2039 46.4669 18.0973 46.4669C17.9907 46.4669 17.9472 46.4779 18.0005 46.4915ZM72.1095 47.4672L71.919 47.6697L72.1265 47.4835C72.3196 47.3103 72.3594 47.2644 72.3172 47.2644C72.3079 47.2644 72.2146 47.3557 72.1095 47.4672ZM27.9485 47.9936C27.8724 48.0361 27.835 48.0709 27.8655 48.0709C27.8959 48.0709 27.9831 48.0361 28.0592 47.9936C28.1354 47.9512 28.1726 47.9166 28.1421 47.9166C28.1117 47.9166 28.0247 47.9512 27.9485 47.9936ZM60.4328 48.8986C60.6621 49.137 60.7119 49.1799 60.7119 49.1393C60.7119 49.1306 60.5936 49.0152 60.4489 48.8827L60.1862 48.642L60.4328 48.8986ZM67.5329 48.7061C67.5862 48.7197 67.6734 48.7197 67.7267 48.7061C67.78 48.6925 67.7363 48.6815 67.6297 48.6815C67.5233 48.6815 67.4796 48.6925 67.5329 48.7061ZM69.1933 48.7061C69.2466 48.7197 69.3336 48.7197 69.3869 48.7061C69.4401 48.6925 69.3966 48.6815 69.2901 48.6815C69.1835 48.6815 69.14 48.6925 69.1933 48.7061ZM68.0592 48.7613C68.1282 48.774 68.2278 48.7736 68.2807 48.76C68.3337 48.7466 68.2774 48.736 68.1556 48.7366C68.0338 48.7373 67.9905 48.7483 68.0592 48.7613ZM68.6952 48.7602C68.7485 48.7738 68.8355 48.7738 68.8888 48.7602C68.9421 48.7466 68.8986 48.7356 68.792 48.7356C68.6854 48.7356 68.6419 48.7466 68.6952 48.7602ZM18.3879 49.1924C18.4412 49.206 18.5284 49.206 18.5817 49.1924C18.6348 49.1788 18.5913 49.1676 18.4847 49.1676C18.3781 49.1676 18.3346 49.1788 18.3879 49.1924ZM23.0367 49.1924C23.09 49.206 23.1772 49.206 23.2305 49.1924C23.2838 49.1788 23.2401 49.1676 23.1335 49.1676C23.0272 49.1676 22.9834 49.1788 23.0367 49.1924ZM18.886 49.2463C18.9393 49.2599 19.0265 49.2599 19.0798 49.2463C19.133 49.2328 19.0893 49.2217 18.9828 49.2217C18.8764 49.2217 18.8327 49.2328 18.886 49.2463ZM22.5387 49.2463C22.5919 49.2599 22.6792 49.2599 22.7325 49.2463C22.7855 49.2328 22.742 49.2217 22.6354 49.2217C22.5289 49.2217 22.4854 49.2328 22.5387 49.2463ZM19.7438 49.3013C19.8123 49.3141 19.9243 49.3141 19.9928 49.3013C20.0613 49.2884 20.0052 49.2778 19.8684 49.2778C19.7314 49.2778 19.6753 49.2884 19.7438 49.3013ZM21.5986 49.302C21.6828 49.3143 21.8072 49.3141 21.8753 49.3011C21.9434 49.2884 21.8746 49.2782 21.7224 49.2786C21.5701 49.279 21.5145 49.2894 21.5986 49.302ZM84.5845 51.2887C84.5845 51.5562 84.5938 51.6723 84.6053 51.5469C84.6169 51.4216 84.6171 51.2028 84.6056 51.0607C84.5942 50.9187 84.5847 51.0215 84.5845 51.2887ZM66.2601 51.0828C66.3134 51.0964 66.4004 51.0964 66.4537 51.0828C66.5069 51.0692 66.4634 51.0582 66.3569 51.0582C66.2503 51.0582 66.2068 51.0692 66.2601 51.0828ZM52.0397 51.7341C52.3686 51.7439 52.8917 51.7437 53.202 51.7341C53.5124 51.7246 53.2431 51.7167 52.6041 51.7167C51.9649 51.7167 51.7108 51.7246 52.0397 51.7341ZM46.5163 51.9099L45.6306 51.9411L46.53 51.9526C47.1005 51.9598 47.4294 51.9443 47.4294 51.9099C47.4294 51.8802 47.4233 51.8611 47.4157 51.8674C47.408 51.8736 47.0033 51.8927 46.5163 51.9099ZM2.47929 51.9502C2.7318 51.9602 3.13026 51.9602 3.36473 51.95C3.59919 51.94 3.39257 51.9317 2.90559 51.9317C2.4186 51.932 2.22677 51.9402 2.47929 51.9502ZM14.6245 52.0043C15.8344 52.0126 17.8143 52.0126 19.0243 52.0043C20.2342 51.9963 19.2444 51.9897 16.8245 51.9897C14.4046 51.9897 13.4145 51.9963 14.6245 52.0043ZM30.3974 52.0043C31.6073 52.0126 33.5872 52.0126 34.7972 52.0043C36.0071 51.9963 35.0173 51.9897 32.5974 51.9897C30.1775 51.9897 29.1874 51.9963 30.3974 52.0043Z" fill="#C3C5D6"/>
<path fill-rule="evenodd" clip-rule="evenodd" d="M20.4311 2.4173C23.952 2.42494 29.7299 2.42494 33.2708 2.4173C36.8119 2.40966 33.9311 2.40329 26.8693 2.40329C19.8075 2.40329 16.9102 2.40966 20.4311 2.4173ZM63.3821 2.4173C66.175 2.42494 70.7449 2.42494 73.5376 2.4173C76.3305 2.40944 74.0455 2.40308 68.4599 2.40308C62.8745 2.40308 60.5894 2.40944 63.3821 2.4173ZM2.05254 2.50603C2.00991 2.55613 1.99447 2.78604 2.00643 3.19469L2.02405 3.80819L2.03579 3.17622C2.04602 2.63892 2.06233 2.53597 2.14454 2.48905C2.19783 2.45891 2.21327 2.43322 2.17891 2.43237C2.14476 2.43152 2.08778 2.46464 2.05254 2.50603ZM44.735 2.47122C45.2467 2.48014 46.0685 2.48014 46.5613 2.47122C47.0539 2.4623 46.6353 2.45487 45.6306 2.45487C44.6262 2.45487 44.2232 2.4623 44.735 2.47122ZM82.4723 2.47101C82.8588 2.48035 83.5063 2.48035 83.9113 2.47122C84.3165 2.46188 84.0005 2.45424 83.209 2.45424C82.4175 2.45424 82.086 2.46188 82.4723 2.47101ZM47.4552 5.59075C47.4552 7.28415 47.4622 7.96919 47.4709 7.11283C47.4794 6.25669 47.4794 4.8711 47.4709 4.03385C47.4622 3.19681 47.4552 3.89735 47.4552 5.59075ZM65.5406 4.03597C65.6243 4.04828 65.7613 4.04828 65.8449 4.03597C65.9286 4.02345 65.8601 4.01347 65.6928 4.01347C65.5253 4.01347 65.4568 4.02345 65.5406 4.03597ZM66.2607 4.03597C66.3449 4.0485 66.4695 4.04807 66.5376 4.03534C66.6055 4.02239 66.5367 4.0122 66.3845 4.01262C66.2324 4.01305 66.1765 4.02366 66.2607 4.03597ZM73.2436 4.55098L73.0811 4.72654L73.2609 4.56775C73.4286 4.42 73.4663 4.37542 73.4234 4.37542C73.4141 4.37542 73.3329 4.45439 73.2436 4.55098ZM62.5243 4.73036C62.3174 4.8399 62.3301 4.88554 62.5382 4.78046C62.6296 4.73439 62.7042 4.68514 62.7042 4.67113C62.7042 4.63631 62.6983 4.63823 62.5243 4.73036ZM66.2607 5.44045C66.3449 5.45276 66.4695 5.45255 66.5376 5.4396C66.6055 5.42686 66.5367 5.41667 66.3845 5.4171C66.2324 5.41752 66.1765 5.42793 66.2607 5.44045ZM60.7369 6.00937L60.5181 6.23885L60.7534 6.0253C60.8826 5.9079 60.9885 5.80473 60.9885 5.79582C60.9885 5.75506 60.9404 5.79582 60.7369 6.00937ZM30.4528 6.03633C31.8453 6.0444 34.124 6.0444 35.5167 6.03633C36.9093 6.02827 35.7698 6.02169 32.9847 6.02169C30.1997 6.02169 29.0602 6.02827 30.4528 6.03633ZM74.5181 8.85866C74.5181 10.3591 74.5251 10.9728 74.5338 10.2226C74.5425 9.47259 74.5425 8.24495 74.5338 7.49473C74.5251 6.74473 74.5181 7.35845 74.5181 8.85866ZM19.5043 7.31917C19.5043 7.94308 19.5124 8.19103 19.5221 7.87005C19.5321 7.54908 19.5319 7.03853 19.5221 6.7356C19.5124 6.43267 19.5043 6.69527 19.5043 7.31917ZM40.5885 7.34634C40.5885 7.74735 40.5972 7.91145 40.6079 7.71084C40.6186 7.51023 40.6186 7.18225 40.6079 6.98164C40.5972 6.78103 40.5885 6.94513 40.5885 7.34634ZM70.646 7.23829C70.7958 7.38668 70.9311 7.50832 70.9463 7.50832C70.9613 7.50832 70.8513 7.38668 70.7014 7.23829C70.5513 7.08969 70.4163 6.96805 70.401 6.96805C70.3858 6.96805 70.4961 7.08969 70.646 7.23829ZM1.96337 11.9646C1.96337 14.3413 1.97011 15.3058 1.97859 14.1078C1.98686 12.9097 1.98686 10.9652 1.97859 9.78656C1.97011 8.60774 1.96337 9.58786 1.96337 11.9646ZM38.8096 8.7901C38.9238 8.80177 39.1106 8.80177 39.2248 8.7901C39.3388 8.77842 39.2455 8.76887 39.0171 8.76887C38.7889 8.76887 38.6954 8.77842 38.8096 8.7901ZM22.319 8.84444C22.4645 8.85569 22.6885 8.85548 22.817 8.84423C22.9454 8.83276 22.8264 8.82364 22.5526 8.82385C22.2785 8.82406 22.1735 8.8334 22.319 8.84444ZM23.5903 8.84338C23.6738 8.85569 23.8108 8.85569 23.8945 8.84338C23.9783 8.83107 23.9098 8.82088 23.7423 8.82088C23.575 8.82088 23.5065 8.83107 23.5903 8.84338ZM37.6475 8.84189C37.7008 8.85548 37.7878 8.85548 37.8411 8.84189C37.8944 8.82831 37.8509 8.81727 37.7443 8.81727C37.6377 8.81727 37.5942 8.82831 37.6475 8.84189ZM20.2171 8.899C20.5155 8.90876 20.9885 8.90876 21.2687 8.899C21.5486 8.88923 21.3046 8.88117 20.7262 8.88117C20.1479 8.88138 19.9186 8.88923 20.2171 8.899ZM59.0643 9.5609C59.0643 9.66492 59.0758 9.70738 59.0897 9.65537C59.1037 9.60357 59.1037 9.51845 59.0897 9.46643C59.0758 9.41443 59.0643 9.45688 59.0643 9.5609ZM59.0127 10.4251C59.0127 10.5886 59.0232 10.6554 59.0358 10.5737C59.0484 10.492 59.0484 10.3585 59.0358 10.2767C59.0232 10.195 59.0127 10.2619 59.0127 10.4251ZM62.7596 10.7762C62.8627 10.8803 62.9597 10.9654 62.9749 10.9654C62.9902 10.9654 62.9182 10.8803 62.8149 10.7762C62.7115 10.6724 62.6148 10.5873 62.5995 10.5873C62.5843 10.5873 62.6563 10.6724 62.7596 10.7762ZM59.0643 11.2354C59.0643 11.3394 59.0758 11.3819 59.0897 11.3301C59.1037 11.2781 59.1037 11.1929 59.0897 11.1409C59.0758 11.0889 59.0643 11.1314 59.0643 11.2354ZM35.3322 12.0996C35.3322 12.6494 35.3403 12.8742 35.3505 12.5993C35.3605 12.3246 35.3605 11.8748 35.3505 11.6001C35.3403 11.3252 35.3322 11.55 35.3322 12.0996ZM73.5655 11.5967C73.6185 11.6103 73.7057 11.6103 73.759 11.5967C73.8123 11.5831 73.7688 11.5721 73.6622 11.5721C73.5557 11.5721 73.5122 11.5831 73.5655 11.5967ZM74.0081 11.5967C74.0613 11.6103 74.1486 11.6103 74.2019 11.5967C74.2551 11.5831 74.2114 11.5721 74.1049 11.5721C73.9985 11.5721 73.9548 11.5831 74.0081 11.5967ZM26.3116 12.7479C26.3116 13.3867 26.3197 13.648 26.3295 13.3285C26.3392 13.0093 26.3392 12.4866 26.3295 12.1673C26.3197 11.8478 26.3116 12.1092 26.3116 12.7479ZM47.5116 19.4729C47.5116 23.6917 47.5183 25.4095 47.5261 23.2904C47.5342 21.1714 47.5342 17.7197 47.5261 15.6202C47.5183 13.5204 47.5116 15.2544 47.5116 19.4729ZM35.3796 13.6663C35.3796 13.7998 35.3903 13.8546 35.4036 13.7877C35.4168 13.7208 35.4168 13.6115 35.4036 13.5446C35.3903 13.4778 35.3796 13.5325 35.3796 13.6663ZM60.5459 14.3314C60.5459 14.3405 60.6268 14.4197 60.7256 14.5069L60.9054 14.6655L60.743 14.4899C60.5914 14.3263 60.5459 14.2896 60.5459 14.3314ZM74.3541 15.2327C74.5346 15.4108 74.6951 15.5567 74.7104 15.5567C74.7254 15.5567 74.5901 15.4108 74.4094 15.2327C74.2286 15.0544 74.0683 14.9086 74.0531 14.9086C74.0379 14.9086 74.1734 15.0544 74.3541 15.2327ZM26.3693 19.554C26.3693 21.1434 26.3764 21.7936 26.3849 20.999C26.3936 20.2042 26.3936 18.9038 26.3849 18.109C26.3764 17.3144 26.3693 17.9646 26.3693 19.554ZM59.1761 17.8111C59.3207 17.8222 59.5571 17.8222 59.7018 17.8111C59.8464 17.8001 59.7281 17.791 59.4388 17.791C59.1498 17.791 59.0314 17.8001 59.1761 17.8111ZM58.7952 18.5276C58.7952 18.8397 58.8044 18.9673 58.8157 18.8112C58.8268 18.6552 58.8268 18.4 58.8157 18.244C58.8044 18.0882 58.7952 18.2158 58.7952 18.5276ZM58.7443 21.6607C58.7443 22.6856 58.7517 23.1049 58.7609 22.5924C58.77 22.08 58.77 21.2412 58.7609 20.7288C58.7517 20.2163 58.7443 20.6356 58.7443 21.6607ZM48.8364 22.8491C48.8364 23.4581 48.8444 23.7071 48.8542 23.4027C48.8642 23.0981 48.8642 22.5999 48.8542 22.2952C48.8444 21.9908 48.8364 22.24 48.8364 22.8491ZM84.6434 23.2002C84.6434 23.7944 84.6514 24.0447 84.6614 23.7566C84.6714 23.4685 84.6714 22.9824 84.6614 22.6763C84.6516 22.3702 84.6436 22.606 84.6434 23.2002ZM58.7952 24.7936C58.7952 25.1055 58.8044 25.2333 58.8157 25.0772C58.8268 24.9212 58.8268 24.666 58.8157 24.51C58.8044 24.354 58.7952 24.4816 58.7952 24.7936ZM60.2107 25.1042L60.02 25.3067L60.2275 25.1205C60.3417 25.0182 60.4352 24.9272 60.4352 24.918C60.4352 24.8768 60.3882 24.9157 60.2107 25.1042ZM59.1491 25.5341C59.2178 25.547 59.3175 25.5464 59.3703 25.533C59.4234 25.5194 59.3671 25.5088 59.2453 25.5095C59.1235 25.5101 59.0802 25.5211 59.1491 25.5341ZM66.5367 25.7491C66.59 25.7627 66.6772 25.7627 66.7305 25.7491C66.7838 25.7355 66.7401 25.7245 66.6335 25.7245C66.5272 25.7245 66.4834 25.7355 66.5367 25.7491ZM68.5845 25.7491C68.6378 25.7627 68.7248 25.7627 68.7781 25.7491C68.8313 25.7355 68.7878 25.7245 68.6813 25.7245C68.5747 25.7245 68.5312 25.7355 68.5845 25.7491ZM67.3965 25.8058C67.5572 25.8166 67.8063 25.8166 67.9498 25.8056C68.0934 25.7945 67.9618 25.7854 67.6575 25.7856C67.353 25.7858 67.2355 25.7948 67.3965 25.8058ZM1.9016 27.2243C1.9016 27.5066 1.91095 27.6221 1.92226 27.4809C1.93379 27.3398 1.93379 27.1088 1.92226 26.9678C1.91095 26.8267 1.9016 26.9422 1.9016 27.2243ZM26.314 30.0063C26.314 31.5808 26.321 32.2172 26.3297 31.4203C26.3384 30.6236 26.3382 29.3353 26.3297 28.5574C26.321 27.7796 26.314 28.4316 26.314 30.0063ZM47.5116 34.9487C47.5116 39.1526 47.5183 40.8723 47.5261 38.7705C47.5342 36.6684 47.5342 33.229 47.5261 31.1269C47.5183 29.0251 47.5116 30.7448 47.5116 34.9487ZM82.0053 28.183C82.2868 28.1927 82.7474 28.1927 83.0291 28.183C83.3108 28.173 83.0802 28.1651 82.5171 28.1651C81.954 28.1651 81.7237 28.173 82.0053 28.183ZM48.785 39.9992L48.7852 51.7209L49.6846 51.7228L50.584 51.725L49.6987 51.7082L48.8133 51.6912L48.7992 39.9843L48.785 28.2776V39.9992ZM60.9209 29.6947C61.0509 29.7061 61.2502 29.7059 61.3635 29.6944C61.477 29.6828 61.3704 29.6734 61.1268 29.6736C60.8835 29.6738 60.7906 29.6834 60.9209 29.6947ZM71.2132 29.6951C71.4035 29.7057 71.7147 29.7057 71.9051 29.6951C72.0954 29.6845 71.9396 29.676 71.5592 29.676C71.1786 29.676 71.0231 29.6845 71.2132 29.6951ZM76.3901 29.6953C76.597 29.7057 76.9206 29.7055 77.1096 29.6951C77.2986 29.6845 77.1294 29.676 76.7338 29.6762C76.3381 29.6762 76.1835 29.6847 76.3901 29.6953ZM57.2419 29.7494C57.5403 29.7592 58.0135 29.7592 58.2935 29.7494C58.5734 29.7394 58.3294 29.7316 57.751 29.7316C57.1727 29.7316 56.9435 29.7397 57.2419 29.7494ZM63.9937 29.7494C64.2921 29.7592 64.7654 29.7592 65.0453 29.7494C65.3252 29.7394 65.0812 29.7316 64.5029 29.7316C63.9245 29.7316 63.6955 29.7397 63.9937 29.7494ZM78.0747 29.7481C78.173 29.76 78.3472 29.7602 78.462 29.7486C78.5769 29.7369 78.4964 29.7271 78.2835 29.7269C78.0703 29.7265 77.9763 29.7363 78.0747 29.7481ZM12.9643 30.9361C13.0478 30.9486 13.1848 30.9486 13.2686 30.9361C13.3523 30.9238 13.2838 30.9136 13.1163 30.9136C12.9491 30.9136 12.8806 30.9238 12.9643 30.9361ZM14.0166 30.9363C14.1005 30.9486 14.2251 30.9484 14.2932 30.9355C14.3613 30.9227 14.2924 30.9125 14.1403 30.913C13.9881 30.9134 13.9324 30.9238 14.0166 30.9363ZM70.7151 30.9896C70.7836 31.0025 70.8956 31.0025 70.9641 30.9896C71.0327 30.9766 70.9768 30.9662 70.8397 30.9662C70.7027 30.9662 70.6466 30.9766 70.7151 30.9896ZM65.0701 31.0976C65.1386 31.1106 65.2506 31.1106 65.3192 31.0976C65.3877 31.0847 65.3316 31.0743 65.1947 31.0743C65.0577 31.0743 65.0016 31.0847 65.0701 31.0976ZM35.4408 31.7078C35.4408 32.0493 35.4497 32.1892 35.4608 32.0183C35.4716 31.8474 35.4716 31.5679 35.4608 31.3972C35.4497 31.2263 35.4408 31.366 35.4408 31.7078ZM17.7099 32.545C17.9061 32.7382 18.0788 32.8961 18.094 32.8961C18.1093 32.8961 17.9614 32.7382 17.7652 32.545C17.5692 32.3518 17.3963 32.1939 17.3811 32.1939C17.3658 32.1939 17.5137 32.3518 17.7099 32.545ZM58.7324 32.4639C58.7324 32.5679 58.7437 32.6104 58.7576 32.5586C58.7715 32.5066 58.7715 32.4215 58.7576 32.3694C58.7437 32.3174 58.7324 32.3599 58.7324 32.4639ZM73.6762 34.1115C73.6768 34.2303 73.6881 34.2726 73.7014 34.2053C73.7147 34.1382 73.714 34.041 73.7003 33.9894C73.6864 33.9376 73.6755 33.9926 73.6762 34.1115ZM75.5567 34.1925C75.5567 34.2966 75.5682 34.339 75.5821 34.287C75.596 34.235 75.596 34.1499 75.5821 34.0979C75.5682 34.0459 75.5567 34.0885 75.5567 34.1925ZM58.745 36.5962C58.745 37.9924 58.7522 38.5716 58.7609 37.8829C58.7696 37.194 58.7696 36.0517 58.7609 35.344C58.7522 34.6364 58.745 35.1998 58.745 36.5962ZM26.3675 35.7049C26.3675 36.4328 26.3753 36.7306 26.3849 36.3666C26.3945 36.0027 26.3945 35.4072 26.3849 35.0432C26.3753 34.6793 26.3675 34.9771 26.3675 35.7049ZM73.7342 34.7326C73.7342 34.8961 73.7445 34.9629 73.7573 34.8812C73.7699 34.7995 73.7699 34.6657 73.7573 34.584C73.7445 34.5025 73.7342 34.5694 73.7342 34.7326ZM63.2836 37.7577C63.2836 39.5254 63.2905 40.2484 63.299 39.3647C63.3077 38.4807 63.3077 37.0344 63.299 36.1507C63.2905 35.2667 63.2836 35.99 63.2836 37.7577ZM75.5132 36.3532C75.5132 37.3187 75.5208 37.7137 75.5299 37.231C75.539 36.7482 75.539 35.9581 75.5299 35.4754C75.5208 34.9926 75.5132 35.3875 75.5132 36.3532ZM19.217 35.759C19.217 35.863 19.2285 35.9055 19.2424 35.8535C19.2564 35.8015 19.2564 35.7163 19.2424 35.6645C19.2285 35.6125 19.217 35.655 19.217 35.759ZM19.2805 36.6773C19.2805 37.0189 19.2894 37.1586 19.3005 36.9879C19.3114 36.817 19.3114 36.5374 19.3005 36.3666C19.2894 36.1959 19.2805 36.3356 19.2805 36.6773ZM73.7401 37.7577C73.7401 38.2478 73.7484 38.4482 73.7588 38.2032C73.769 37.9581 73.769 37.557 73.7588 37.3119C73.7484 37.0669 73.7401 37.2673 73.7401 37.7577ZM35.4327 37.2174C35.4327 37.3214 35.444 37.3639 35.4579 37.3119C35.4719 37.2598 35.4719 37.1749 35.4579 37.1229C35.444 37.0709 35.4327 37.1134 35.4327 37.2174ZM26.3068 37.9736C26.3068 38.1965 26.3166 38.2875 26.3286 38.1763C26.3403 38.0648 26.3403 37.8825 26.3286 37.771C26.3166 37.6596 26.3068 37.7509 26.3068 37.9736ZM6.71378 37.9466C6.714 38.1249 6.72444 38.1914 6.73662 38.0941C6.74902 37.9971 6.7488 37.8513 6.73619 37.7702C6.72357 37.6889 6.71335 37.7683 6.71378 37.9466ZM1.96337 42.5109C1.96337 44.9025 1.97011 45.881 1.97859 44.6852C1.98686 43.4894 1.98686 41.5327 1.97859 40.3369C1.97011 39.1411 1.96337 40.1195 1.96337 42.5109ZM6.71465 38.7569C6.71487 38.9649 6.72488 39.0433 6.73706 38.9312C6.74902 38.8191 6.7488 38.649 6.7364 38.5531C6.72422 38.4571 6.71444 38.5488 6.71465 38.7569ZM35.322 38.6219C35.322 38.7259 35.3333 38.7683 35.3472 38.7163C35.3611 38.6643 35.3611 38.5792 35.3472 38.5274C35.3333 38.4754 35.322 38.5179 35.322 38.6219ZM73.7425 41.0795C73.7425 42.0898 73.7499 42.4952 73.759 41.9809C73.7682 41.4665 73.7682 40.6401 73.759 40.1444C73.7499 39.6487 73.7423 40.0694 73.7425 41.0795ZM75.5693 42.052C75.5693 43.3887 75.5765 43.9279 75.5854 43.2501C75.5941 42.5721 75.5941 41.4784 75.5854 40.8192C75.5765 40.1603 75.5693 40.715 75.5693 42.052ZM58.683 41.3497C58.6832 41.5873 58.693 41.6779 58.7048 41.5508C58.7163 41.4238 58.7163 41.2294 58.7043 41.1188C58.6924 41.008 58.6828 41.112 58.683 41.3497ZM12.3277 42.7652C12.3962 42.778 12.5084 42.778 12.5767 42.7652C12.6452 42.7523 12.5893 42.7419 12.4523 42.7419C12.3153 42.7419 12.2594 42.7523 12.3277 42.7652ZM12.9926 42.7652C13.0613 42.7782 13.1609 42.7778 13.214 42.7642C13.2668 42.7506 13.2105 42.7402 13.0887 42.7406C12.9669 42.7413 12.9236 42.7523 12.9926 42.7652ZM63.2753 43.5373C63.2753 43.7305 63.2853 43.8095 63.2977 43.7129C63.3099 43.6163 63.3099 43.4584 63.2977 43.3618C63.2853 43.2652 63.2753 43.3442 63.2753 43.5373ZM73.6799 43.6993C73.6799 43.8925 73.6899 43.9715 73.7023 43.8749C73.7144 43.7785 73.7144 43.6203 73.7023 43.5237C73.6899 43.4274 73.6799 43.5063 73.6799 43.6993ZM58.6819 43.8615C58.6819 44.0545 58.6919 44.1336 58.7041 44.037C58.7165 43.9405 58.7165 43.7825 58.7041 43.6859C58.6919 43.5893 58.6819 43.6683 58.6819 43.8615ZM63.3269 44.2126C63.3275 44.3315 63.3388 44.3737 63.3521 44.3064C63.3654 44.2394 63.3649 44.1421 63.351 44.0903C63.3371 44.0387 63.3262 44.0937 63.3269 44.2126ZM9.18698 44.6346C9.18698 44.644 9.26789 44.7229 9.36685 44.8102L9.54672 44.9688L9.38425 44.7932C9.23265 44.6295 9.18698 44.5928 9.18698 44.6346ZM75.5025 44.9688C75.5032 45.0876 75.5145 45.1299 75.5277 45.0626C75.541 44.9955 75.5404 44.8983 75.5266 44.8467C75.5127 44.7949 75.5019 44.8499 75.5025 44.9688ZM32.3729 45.0363L32.1822 45.2388L32.3899 45.0526C32.583 44.8794 32.6228 44.8338 32.5804 44.8338C32.5713 44.8338 32.478 44.9248 32.3729 45.0363ZM10.1003 45.536C10.219 45.6549 10.3289 45.7521 10.3441 45.7521C10.3593 45.7521 10.2745 45.6549 10.1555 45.536C10.0365 45.4171 9.92691 45.3199 9.91169 45.3199C9.89646 45.3199 9.98129 45.4171 10.1003 45.536ZM47.4552 48.8309C47.4552 50.5393 47.4622 51.2382 47.4709 50.3839C47.4794 49.5297 47.4794 48.132 47.4709 47.278C47.4622 46.4238 47.4552 47.1226 47.4552 48.8309ZM64.5836 47.44C64.8128 47.6786 64.8626 47.7215 64.8626 47.6809C64.8626 47.6722 64.7443 47.5567 64.5997 47.4243L64.3369 47.1835L64.5836 47.44ZM84.6434 48.4528C84.6434 49.0321 84.6514 49.2692 84.6614 48.9795C84.6714 48.6899 84.6714 48.2159 84.6614 47.9261C84.6514 47.6366 84.6434 47.8735 84.6434 48.4528ZM60.4074 48.8309C60.5574 48.9795 60.6925 49.1011 60.7077 49.1011C60.7229 49.1011 60.6127 48.9795 60.4628 48.8309C60.313 48.6825 60.1777 48.5608 60.1625 48.5608C60.1472 48.5608 60.2575 48.6825 60.4074 48.8309ZM19.4127 49.2482C19.5121 49.2603 19.6616 49.2599 19.7449 49.2476C19.8279 49.2353 19.7466 49.2255 19.5639 49.2257C19.3812 49.2261 19.3133 49.2361 19.4127 49.2482ZM21.9031 49.2482C22.0027 49.2603 22.1522 49.2599 22.2352 49.2476C22.3183 49.2353 22.237 49.2255 22.0543 49.2257C21.8718 49.2261 21.8037 49.2361 21.9031 49.2482ZM20.5479 49.3028C20.6934 49.314 20.9176 49.3138 21.0459 49.3026C21.1745 49.2913 21.0555 49.2822 20.7815 49.2822C20.5076 49.2824 20.4024 49.2917 20.5479 49.3028ZM2.01361 51.3157C2.01361 51.6872 2.02253 51.839 2.0334 51.6534C2.04406 51.4677 2.04406 51.1639 2.0334 50.9781C2.02253 50.7924 2.01361 50.9444 2.01361 51.3157ZM65.901 51.0299C65.9697 51.0427 66.0693 51.0422 66.1224 51.0287C66.1752 51.0153 66.1189 51.0047 65.9971 51.0053C65.8753 51.0059 65.832 51.017 65.901 51.0299ZM68.1147 51.0299C68.1834 51.0427 68.283 51.0422 68.3361 51.0287C68.389 51.0153 68.3326 51.0047 68.2108 51.0053C68.089 51.0059 68.0457 51.017 68.1147 51.0299ZM66.8704 51.0853C67.0159 51.0966 67.2401 51.0964 67.3687 51.0851C67.497 51.0739 67.378 51.0647 67.104 51.0647C66.8301 51.065 66.7249 51.0743 66.8704 51.0853ZM60.947 51.7884C65.2922 51.7961 72.4025 51.7961 76.7477 51.7884C81.0927 51.7808 77.5377 51.7744 68.8472 51.7744C60.157 51.7744 56.602 51.7808 60.947 51.7884ZM8.95534 52.0043C9.45189 52.0132 10.2488 52.0132 10.7262 52.0043C11.2039 51.9954 10.7976 51.988 9.82338 51.988C8.84942 51.988 8.45879 51.9954 8.95534 52.0043ZM38.7855 52.0043C39.282 52.0132 40.0789 52.0132 40.5564 52.0043C41.034 51.9954 40.6277 51.988 39.6537 51.988C38.6795 51.988 38.2889 51.9954 38.7855 52.0043Z" fill="#C3C5D6"/>
</svg>
