<svg width="180" height="33" viewBox="0 0 180 33" fill="none" xmlns="http://www.w3.org/2000/svg">
<path fill-rule="evenodd" clip-rule="evenodd" d="M14.0579 1.06486C13.667 1.24197 0.750313 14.3908 0.564489 14.8006C0.340483 15.2948 0.340483 18.6231 0.564489 19.1173C0.760759 19.55 13.6764 32.6826 14.0771 32.8567C14.4259 33.0083 17.8128 33.0323 18.1997 32.886C18.5695 32.746 31.5476 19.5822 31.7522 19.1395C31.8962 18.8277 31.9167 18.5566 31.9167 16.959C31.9167 15.3613 31.8962 15.0902 31.7522 14.7784C31.5476 14.3357 18.5695 1.17193 18.1997 1.03193C17.8203 0.888456 14.3869 0.91569 14.0579 1.06486ZM22.9885 9.99521L28.7606 15.8479V16.9548V18.0616L27.2025 19.6477L25.6445 21.2339L24.0664 19.6315L22.4885 18.0291L22.9473 17.558C23.1997 17.2989 23.4062 17.0282 23.4062 16.9566C23.4062 16.8135 16.3066 9.57173 16.1664 9.57173C16.025 9.57173 14.1896 11.4703 14.1896 11.6165C14.1896 11.6904 15.0088 12.5822 16.0102 13.5983L17.8307 15.4459H14.6708H11.5109L9.62439 13.5316L7.73797 11.6171L11.4268 7.87988L15.1155 4.14257H16.166H17.2164L22.9885 9.99521ZM9.38212 16.3596C9.12959 16.6189 8.92296 16.8897 8.92296 16.9614C8.92296 17.1044 16.0225 24.3462 16.1627 24.3462C16.3041 24.3462 18.1395 22.4477 18.1395 22.3014C18.1395 22.2276 17.3203 21.3358 16.319 20.3196L14.4984 18.472H17.6584H20.8182L22.7047 20.3864L24.5912 22.3008L20.9023 26.038L17.2136 29.7753H16.1639H15.1144L9.42031 24.0124C6.13885 20.6913 3.67425 18.1282 3.6035 17.9631C3.4585 17.6246 3.43883 16.3728 3.57278 16.008C3.62343 15.8702 4.34399 15.0664 5.1741 14.2218L6.68342 12.6862L8.26235 14.2872L9.84128 15.8882L9.38212 16.3596Z" fill="#C3C5D6"/>
<path fill-rule="evenodd" clip-rule="evenodd" d="M41.593 9.12859C39.0054 9.81587 37.6739 12.3107 38.5503 14.8294C38.7562 15.4211 39.1755 16.0256 39.7355 16.5381C40.4056 17.1512 40.984 17.4962 42.3404 18.0915C44.4129 19.0012 44.8258 19.4266 44.822 20.6488C44.8182 21.8693 44.3417 22.3883 43.2255 22.3872C42.4114 22.3865 42.0255 22.2484 41.6071 21.8078C41.2313 21.4122 41.0495 20.889 41.0495 20.2028V19.8957H39.4696C37.6587 19.8957 37.8212 19.7833 38.0176 20.9003C38.3368 22.7158 39.5187 24.0806 41.2984 24.6883C41.8963 24.8925 42.1128 24.9184 43.244 24.9212C44.356 24.924 44.5943 24.8977 45.1312 24.7137C45.4691 24.5978 45.9293 24.3859 46.154 24.2428C46.6301 23.9393 47.2869 23.253 47.4987 22.8377C47.9383 21.9757 48.0877 20.6183 47.8616 19.5418C47.4864 17.7562 46.5116 16.777 44.034 15.6969C41.8449 14.7425 41.2614 14.1169 41.4391 12.9149C41.5611 12.09 42.24 11.5276 43.109 11.5314C44.0779 11.5357 44.6657 12.0899 44.8413 13.1649L44.9377 13.7545H46.4608H47.9839V13.4127C47.9839 12.91 47.6723 11.7614 47.3934 11.2358C46.8509 10.2141 45.7249 9.38661 44.4682 9.08623C43.6834 8.8987 42.3866 8.91774 41.593 9.12859ZM65.9343 9.08195C64.3192 9.53053 63.3233 10.3413 62.5999 11.7964C61.9154 13.1732 61.7316 14.4781 61.7867 17.5685C61.824 19.6651 61.8458 19.9219 62.0541 20.718C62.3359 21.7947 62.803 22.7099 63.4103 23.3749C64.3623 24.4176 65.421 24.875 67.0457 24.9457C68.8676 25.0249 70.0217 24.6176 71.1224 23.5067C71.6015 23.0232 71.829 22.7019 72.1039 22.1208C72.7398 20.7762 72.7608 20.636 72.8026 17.4481C72.8435 14.3323 72.7929 13.734 72.3913 12.5832C71.5577 10.1945 69.78 8.9375 67.2589 8.95423C66.7718 8.95744 66.1757 9.01493 65.9343 9.08195ZM121.046 9.12467C120.128 9.3689 119.551 9.70123 118.898 10.3641C117.516 11.7648 117.068 13.695 117.178 17.7596C117.266 20.9933 117.676 22.302 119.01 23.6004C119.573 24.1494 120.063 24.4415 120.883 24.7174C121.427 24.9008 121.657 24.9237 122.902 24.9186C124.174 24.9135 124.38 24.89 125.094 24.6685C126.029 24.3781 126.67 24.045 127.357 23.4911L127.863 23.0837L127.84 19.8208L127.817 16.5581H125.228H122.638L122.614 17.7346L122.589 18.9111L123.667 18.9362L124.745 18.9612L124.769 20.3548L124.793 21.7484L124.56 21.9342C124.071 22.3244 122.866 22.4623 122.049 22.2215C121.193 21.9692 120.604 21.1348 120.406 19.8957C120.289 19.162 120.287 14.8013 120.403 13.9842C120.514 13.2048 120.867 12.4017 121.247 12.0635C122.128 11.2792 123.906 11.4479 124.406 12.3633C124.509 12.5528 124.642 12.9533 124.7 13.2533C124.759 13.5534 124.825 13.8691 124.848 13.9548C124.884 14.0954 125.034 14.1105 126.385 14.1105H127.881L127.819 13.6063C127.429 10.4419 125.748 8.93706 122.621 8.95325C121.99 8.95655 121.463 9.01395 121.046 9.12467ZM49.915 16.9509V24.7908H51.4499H52.9847L53.0079 22.054L53.0311 19.3172L54.6989 19.2586C55.7431 19.222 56.537 19.1506 56.8222 19.0679C58.4412 18.5978 59.5459 17.4495 59.9822 15.7831C60.2163 14.8885 60.176 13.4411 59.892 12.553C59.4975 11.3189 58.7566 10.3547 57.7707 9.79219C56.7729 9.22293 56.5317 9.19 53.053 9.14844L49.915 9.11097V16.9509ZM74.7994 9.2297C74.7747 9.2952 74.7647 12.8133 74.7771 17.0476L74.7998 24.7463L76.3578 24.7706L77.9159 24.7949V21.9448V19.0947H78.69H79.4642L79.9152 20.2294C80.7188 22.2514 81.6776 24.6089 81.7336 24.701C81.7922 24.7971 85.1136 24.8328 85.1136 24.7373C85.1136 24.6904 83.8981 21.7707 82.7831 19.1392L82.4059 18.2491L82.5968 18.1169C83.0451 17.8059 83.7862 17.0157 83.9962 16.6244C84.8071 15.1138 84.7911 12.4724 83.9631 11.1599C83.3997 10.2669 82.4993 9.62442 81.4067 9.3357C80.6475 9.13509 74.8698 9.04235 74.7994 9.2297ZM86.2547 10.4614V11.7964H88.098H89.9413V18.2936V24.7908H91.4768H93.0124L93.0348 18.3159L93.0574 11.8409L94.9446 11.7964L96.8318 11.7519L96.8561 10.4392L96.8803 9.12637H91.5676H86.2547V10.4614ZM99.1579 16.9586V24.7908H100.694H102.23V16.9586V9.12637H100.694H99.1579V16.9586ZM104.512 16.9566V24.7908H106.048H107.584V19.6999C107.584 16.8999 107.617 14.647 107.657 14.6935C107.724 14.7707 108.058 15.5127 109.721 19.2727C110.035 19.9825 110.709 21.5044 111.218 22.6548L112.145 24.7463H113.705H115.265V16.9586V9.17087L113.708 9.14657L112.15 9.12227L112.128 14.1792L112.105 19.2363L111.407 17.6746C110.691 16.0755 110.127 14.8074 108.532 11.2179L107.622 9.17087L106.067 9.14657L104.512 9.12227V16.9566ZM68.3105 11.7869C68.8202 12.0216 69.1941 12.5296 69.4644 13.354C69.6914 14.0467 69.6987 14.1366 69.7331 16.6696C69.7792 20.0667 69.6151 20.9957 68.8299 21.784C68.4491 22.1662 68.0671 22.3165 67.4359 22.332C66.1167 22.3647 65.3779 21.6819 65.0637 20.1397C64.865 19.1645 64.8649 14.8423 65.0636 13.8673C65.2929 12.7414 65.729 12.0626 66.4171 11.7603C66.8566 11.5674 67.8644 11.5814 68.3105 11.7869ZM55.7684 11.8911C56.574 12.1997 57.1219 13.4451 56.9863 14.6598C56.8779 15.6318 56.6104 16.1396 56.0555 16.4266C55.7598 16.5795 55.5369 16.6026 54.3513 16.6026H52.9872V14.1995V11.7964H54.2543C54.9511 11.7964 55.6325 11.8391 55.7684 11.8911ZM80.4903 11.9178C80.8433 12.0675 81.1983 12.4834 81.353 12.929C81.5045 13.3654 81.5034 14.7697 81.3512 15.2085C81.199 15.6473 80.7618 16.151 80.3998 16.3043C80.2126 16.3836 79.7412 16.4246 79.0159 16.4246H77.9159V14.1105V11.7964H79.0598C79.8274 11.7964 80.298 11.8364 80.4903 11.9178Z" fill="#C3C5D6"/>
<path fill-rule="evenodd" clip-rule="evenodd" d="M173.597 9.13085C172.432 9.44022 171.404 10.2054 170.848 11.1781C170.452 11.8694 170.318 12.521 170.363 13.536C170.399 14.3523 170.435 14.5127 170.724 15.1295C171.322 16.4066 172.333 17.2151 174.517 18.1621C176.414 18.9848 176.874 19.4688 176.881 20.6484C176.885 21.4257 176.67 21.8957 176.174 22.1907C175.876 22.368 175.737 22.391 175.125 22.3634C173.848 22.3059 173.341 21.8154 173.13 20.43L173.034 19.8017L171.492 19.826L169.95 19.8502L169.981 20.3843C170.028 21.2082 170.371 22.1813 170.86 22.8833C171.817 24.2553 173.349 24.9679 175.344 24.9679C177.412 24.9679 178.894 24.1753 179.623 22.6796C179.94 22.0283 179.952 21.9718 179.986 20.8675C180.015 19.9003 179.993 19.636 179.839 19.1215C179.388 17.622 178.268 16.5869 176.138 15.7013C174.056 14.8355 173.312 14.0814 173.475 13.0004C173.575 12.3375 173.893 11.9193 174.491 11.6663C175.08 11.4166 175.893 11.5433 176.342 11.9546C176.613 12.2034 176.852 12.7647 176.904 13.2754L176.953 13.7536H178.476H180V13.2357C180 11.8332 179.091 10.3054 177.806 9.54756C176.794 8.95098 174.959 8.76923 173.597 9.13085ZM130.143 16.9577V24.7899H131.679H133.215V19.756C133.215 16.9874 133.248 14.7427 133.288 14.7679C133.328 14.7931 133.57 15.2861 133.825 15.8635C134.08 16.4407 134.537 17.4739 134.842 18.1592C135.146 18.8445 135.757 20.2263 136.2 21.2298C136.643 22.2333 137.176 23.4348 137.384 23.8999L137.763 24.7454H139.329H140.896V16.9577V9.16992L139.338 9.14562L137.781 9.12133L137.758 14.1722L137.736 19.2232L137.261 18.1571C136.999 17.5709 136.678 16.8509 136.548 16.5571C136.417 16.2634 136.052 15.4424 135.738 14.7326C135.423 14.0228 134.792 12.601 134.336 11.573C133.88 10.545 133.456 9.57382 133.394 9.41468L133.282 9.12542H131.712H130.143V16.9577ZM143.134 16.9577V24.7899H147.569H152.004L151.98 23.4771L151.956 22.1643L149.125 22.1408L146.294 22.1173V20.0715V18.0257H148.708H151.122V16.7351V15.4446H148.708H146.294V13.6213V11.798L149.125 11.7745L151.956 11.751L151.98 10.4382L152.004 9.12542H147.569H143.134V16.9577ZM153.757 9.23667C153.76 9.34846 153.906 10.1984 154.502 13.5756C154.849 15.5385 155.158 17.3104 155.595 19.8502C155.747 20.7314 155.906 21.6125 155.948 21.8083C155.99 22.0041 156.108 22.685 156.211 23.3213C156.314 23.9577 156.418 24.5485 156.443 24.6341C156.484 24.7749 156.638 24.7899 158.055 24.7899H159.622L159.67 24.5451C159.697 24.4106 159.978 22.9386 160.296 21.2743C161.102 17.046 161.337 15.8896 161.39 15.8897C161.415 15.8898 161.727 17.4018 162.083 19.2496C162.44 21.0974 162.832 23.0999 162.954 23.6996L163.176 24.7899H164.731H166.287L166.48 23.7441C166.586 23.169 166.791 22.0175 166.935 21.1853C167.08 20.3531 167.317 18.9914 167.462 18.1592C168.043 14.8273 168.232 13.7415 168.452 12.463C168.579 11.7287 168.76 10.7155 168.855 10.2112C168.95 9.70696 169.028 9.25634 169.028 9.20988C169.028 9.15986 168.405 9.12542 167.499 9.12542H165.97L165.923 9.37018C165.897 9.50475 165.776 10.2758 165.655 11.0835C165.17 14.3253 164.908 16.087 164.719 17.3796C164.61 18.1257 164.506 18.7208 164.487 18.7021C164.45 18.6646 163.997 16.2508 163.584 13.8871C163.438 13.0549 163.301 12.3225 163.278 12.2596C163.256 12.1966 163.156 11.6559 163.055 11.058C162.955 10.4601 162.832 9.78075 162.783 9.54818L162.694 9.12542H161.386C160.101 9.12542 160.078 9.1288 160.037 9.32568C160.014 9.43586 159.878 10.1668 159.734 10.95C159.207 13.8239 158.826 15.8808 158.55 17.3483L158.268 18.8515L158.072 17.4818C157.964 16.7285 157.759 15.3311 157.617 14.3766C157.474 13.422 157.258 11.9401 157.136 11.0835C157.013 10.2268 156.893 9.43586 156.869 9.32568C156.824 9.12738 156.809 9.12542 155.289 9.12542C154.119 9.12542 153.755 9.15185 153.757 9.23667Z" fill="#C3C5D6"/>
</svg>
