<svg width="341" height="35" viewBox="0 0 341 35" fill="none" xmlns="http://www.w3.org/2000/svg">
<path fill-rule="evenodd" clip-rule="evenodd" d="M59.25 0.599383C59.0994 0.693521 59.1701 0.932111 59.6201 1.85032C60.5331 3.71349 61.9494 4.84818 63.6251 5.0587L64.3288 5.14728V7.31484V9.4824L63.7591 9.48319C62.8392 9.48439 62.2494 9.7149 61.5286 10.3549C60.8011 11.0011 60.1153 12.2221 59.9922 13.0904C59.9293 13.5343 59.9531 13.5869 60.2159 13.5869C60.4127 13.5869 60.568 13.4574 60.6855 13.1951C60.7821 12.9795 61.0697 12.6759 61.3248 12.5202C61.8373 12.2074 63.0768 12.0428 63.8464 12.1854L64.3288 12.2749V13.7914V15.3081H63.6339C62.7569 15.3081 61.9565 15.681 61.3058 16.3922C60.7373 17.0137 60.2373 18.0384 60.1063 18.8499C60.026 19.3477 60.0453 19.4126 60.2731 19.4126C60.4235 19.4126 60.665 19.2063 60.8544 18.9161C61.3423 18.1689 61.9066 17.9442 63.1894 17.9867L64.2618 18.0224L64.2971 22.5814C64.3345 27.4069 64.3414 27.3501 63.7135 27.3548C63.1686 27.3586 61.819 28.1529 61.124 28.8787C59.9343 30.1212 58.9931 32.6188 59.6631 32.7555C59.8269 32.7889 59.9718 32.615 60.1819 32.1326C60.7776 30.7648 62.1816 30.0245 63.8824 30.1814C65.098 30.2934 66.1008 30.8087 67.1913 31.8815C67.6967 32.3785 68.1536 32.7852 68.207 32.7852C68.2603 32.7852 69.5058 31.9941 70.9748 31.0271C72.4437 30.0601 74.1123 29.0026 74.6828 28.6769C75.2532 28.3513 75.7208 28.0113 75.7217 27.9212C75.7225 27.8311 75.5122 27.6704 75.2542 27.5638L74.785 27.3702V16.4989C74.785 8.9557 74.8307 5.44849 74.9342 5.04241C75.0676 4.51929 75.6042 3.78909 75.8553 3.78909C75.9078 3.78909 76.0655 4.04066 76.2057 4.3481C76.3459 4.6554 76.6566 5.2287 76.8963 5.62194L77.332 6.33678V12.2772V18.2174L76.8293 18.4249C75.2424 19.0796 75.0129 20.5857 76.3191 21.7748C76.8855 22.2906 77.4183 22.5398 77.7329 22.4361C77.8135 22.4097 77.8996 21.9289 77.9279 21.3459C78.0044 19.7727 78.4051 19.0988 80.0844 17.719C81.9688 16.171 82.7495 15.3849 83.5042 14.2762C84.79 12.387 85.1116 10.1959 84.373 8.35698C83.8696 7.10379 82.864 5.65001 81.0758 3.59049C80.2538 2.64381 79.4532 1.61173 79.2967 1.29701C79.0739 0.849359 78.9512 0.736287 78.733 0.777465C78.3453 0.850683 72.7588 4.7596 71.8213 5.6136C70.548 6.77371 70.6293 5.86702 70.6293 18.8987C70.6293 25.5044 70.5788 30.2848 70.5084 30.3277C70.4419 30.3684 70.0815 30.0293 69.7073 29.5743C69.3332 29.1193 68.905 28.672 68.7558 28.5804C68.4868 28.415 68.4845 28.3169 68.4845 16.7038C68.4845 8.84356 68.437 4.77536 68.3402 4.32929C68.2212 3.78115 68.0731 3.55395 67.4944 3.03188C67.1084 2.68366 66.4518 2.16716 66.0352 1.88382L65.2775 1.36891L64.5685 1.68323C63.9932 1.93837 63.6323 1.99782 62.6532 1.99914C61.274 2.00086 60.9057 1.85893 60.0944 1.01327C59.5384 0.434012 59.525 0.427392 59.25 0.599383ZM229.506 0.59422C229.364 0.682929 229.401 0.875178 229.688 1.54911C230.139 2.60674 230.627 3.31271 231.389 4.00597C232.038 4.59688 233.245 5.11312 233.978 5.11312H234.442V7.09915V9.08519H233.998C232.577 9.08519 231.267 10.0035 230.549 11.5025C229.903 12.8511 230.116 14.0126 230.799 12.8685C230.948 12.6189 231.215 12.3212 231.392 12.2068C231.839 11.917 232.792 11.7633 233.686 11.8365L234.442 11.8985V13.4047V14.9109H233.814C233.455 14.9109 232.943 15.0272 232.619 15.1823C231.531 15.7025 230.459 17.1978 230.228 18.5189C230.151 18.9571 230.172 19.0154 230.411 19.0154C230.574 19.0154 230.762 18.8627 230.883 18.631C231.19 18.0443 231.917 17.6698 232.897 17.5921C233.366 17.5548 233.905 17.5632 234.096 17.6105L234.442 17.6964V20.3385V22.9807L234.04 23.1861C233.819 23.299 233.638 23.4709 233.638 23.5679C233.638 23.665 233.985 23.9708 234.409 24.2477C235.759 25.1291 239 27.873 239 28.1343C239 28.1803 238.731 28.3588 238.402 28.5311L237.804 28.8444L236.588 27.8027C234.404 25.9316 233.104 25.3338 231.231 25.3384C228.514 25.3451 226.554 27.3321 226.182 30.4565C226.102 31.1321 226.117 31.1964 226.356 31.1964C226.557 31.1964 226.673 31.0239 226.852 30.4648C227.163 29.4904 227.787 28.884 228.768 28.6022C230.5 28.1051 232.163 28.7525 234.323 30.7649C234.829 31.2369 235.32 31.5934 235.413 31.5572C235.506 31.5211 237.422 30.2761 239.67 28.7907C241.919 27.3052 244.226 25.8238 244.796 25.4986C245.367 25.1734 245.833 24.8179 245.832 24.7087C245.832 24.5995 245.636 24.4207 245.398 24.3115L244.965 24.1129L244.931 13.3042L244.897 2.49539L245.501 1.83192C246.109 1.16382 246.208 0.954884 245.982 0.816788C245.824 0.720399 240.019 4.54418 239.964 4.78079C239.942 4.87877 240.092 5.0391 240.299 5.13708L240.676 5.3153L240.708 16.1704L240.741 27.0257L240.293 27.3116L239.845 27.5974L239.499 27.3116C239.309 27.1544 239.028 26.8172 238.876 26.5623C238.602 26.1046 238.599 25.9686 238.593 15.5729C238.589 9.78362 238.536 4.78727 238.473 4.46991C238.411 4.15254 238.244 3.73547 238.102 3.54309C237.818 3.15806 235.532 1.40558 235.315 1.40638C235.241 1.40664 234.883 1.55559 234.52 1.73738C233.983 2.00656 233.665 2.06786 232.806 2.06786C231.546 2.06786 230.92 1.80623 230.271 1.00943C229.809 0.441295 229.777 0.424215 229.506 0.59422ZM33.7501 1.27331C33.1069 1.94234 32.5106 2.19814 31.5914 2.19947C30.9591 2.20053 29.7205 1.74612 29.219 1.32932C29.0068 1.15296 28.8 1.00864 28.7597 1.00864C28.7192 1.00864 27.9778 1.51945 27.1119 2.14373C26.2459 2.76787 24.9762 3.61697 24.2902 4.03046C23.0124 4.80038 22.7579 5.14675 23.3596 5.29597C23.5374 5.34005 23.7146 5.50754 23.7599 5.67437C23.8046 5.83908 23.842 10.1596 23.8429 15.2759L23.8448 24.578L23.5096 24.8659C23.3253 25.0241 23.1745 25.2269 23.1745 25.3164C23.1745 25.4059 23.8832 26.0319 24.7496 26.7074C25.616 27.383 26.4328 28.0254 26.5648 28.135C26.7864 28.319 26.9124 28.2283 28.207 26.9542C28.9781 26.195 29.6091 25.4711 29.6091 25.345C29.6091 25.1904 29.4371 25.0703 29.0789 24.9751C28.7873 24.8976 28.365 24.6814 28.1405 24.4949L27.7323 24.1555V19.3545V14.5534L28.5514 13.8497C29.4932 13.0407 29.4192 13.0303 30.7398 14.1573L31.4858 14.7937V19.8695C31.4858 24.2591 31.4586 24.9555 31.2847 25.0214C30.8604 25.1822 31.1386 25.5275 32.7798 26.8766C34.078 27.9438 34.5264 28.2436 34.6901 28.1537C34.8079 28.0891 35.6838 27.2614 36.6367 26.3145C38.1259 24.8345 38.3449 24.5638 38.1962 24.387C38.0427 24.2042 37.9663 24.2257 37.5169 24.5773C36.899 25.0606 36.6526 25.0705 36.0077 24.6377L35.5074 24.3019V18.9811V13.6602L36.3191 12.8514C37.0411 12.1319 37.1069 12.0231 36.9156 11.8662C36.7294 11.7135 36.6128 11.7753 36.0447 12.328L35.3889 12.966L33.5848 11.4228C32.5925 10.5741 31.7436 9.87961 31.698 9.87961C31.6526 9.87961 30.7567 10.6825 29.7073 11.6637L27.7993 13.4479L27.7641 8.86302C27.7446 6.34128 27.755 4.2521 27.787 4.22046C27.819 4.18882 28.016 4.28666 28.2244 4.43786C28.433 4.58907 28.9354 4.77496 29.341 4.85083C30.3553 5.04069 31.167 4.82885 32.1425 4.11944C32.8875 3.57791 34.2407 2.0284 34.6476 1.25147C34.8197 0.92271 34.815 0.873854 34.6011 0.760782C34.4099 0.659759 34.2435 0.759988 33.7501 1.27331ZM96.621 1.27331C95.9778 1.94234 95.3816 2.19814 94.4624 2.19947C93.8301 2.20053 92.5914 1.74612 92.0899 1.32932C91.8777 1.15296 91.6683 1.00864 91.6246 1.00864C91.581 1.00864 90.7735 1.55983 89.8302 2.23336C88.8867 2.90703 87.6191 3.75586 87.0132 4.11983C85.8798 4.80051 85.6883 5.08611 86.213 5.31344L86.5146 5.44412L86.549 15.1198L86.5834 24.7954L86.2473 24.9731C86.0626 25.0707 85.9114 25.1988 85.9114 25.2579C85.9114 25.3736 89.5389 28.2836 89.6833 28.2836C89.8522 28.2836 92.48 25.4786 92.48 25.2984C92.48 25.198 92.2415 25.0527 91.9498 24.9751C91.6582 24.8976 91.236 24.6814 91.0114 24.4949L90.6033 24.1555V19.3545V14.5534L91.397 13.8715C91.8336 13.4964 92.2446 13.1897 92.3104 13.1897C92.3764 13.1897 92.8637 13.5501 93.3934 13.9904L94.3567 14.7913V19.8C94.3567 24.0906 94.3279 24.8324 94.1557 24.9735C94.0451 25.0642 93.9546 25.2157 93.9546 25.3103C93.9546 25.4049 94.7179 26.1098 95.6508 26.8766C96.9489 27.9438 97.3973 28.2436 97.561 28.1537C97.6788 28.0891 98.5578 27.2584 99.5144 26.3076C101.066 24.7652 101.232 24.5576 101.051 24.379C100.87 24.2004 100.799 24.221 100.384 24.5707C99.8111 25.0545 99.5191 25.0676 98.8786 24.6377L98.3783 24.3019V18.9734V13.6447L99.1784 12.8629C99.793 12.2621 99.9445 12.0408 99.8321 11.9071C99.5859 11.6139 99.3619 11.7082 98.7966 12.3424L98.2535 12.9517L97.7961 12.5741C97.5447 12.3665 96.7354 11.6754 95.998 11.0381C95.2604 10.4009 94.6143 9.87961 94.5621 9.87961C94.5098 9.87961 93.6129 10.6824 92.5687 11.6636L90.6703 13.4476L90.635 8.86276C90.6156 6.34115 90.6259 4.2521 90.658 4.22046C90.69 4.18882 90.8869 4.28706 91.0954 4.43866C91.6344 4.83044 92.8622 5.03195 93.5677 4.84421C94.6873 4.54643 95.9984 3.44485 97.0298 1.93546C97.7451 0.888418 97.7398 0.90232 97.475 0.762371C97.28 0.659229 97.1182 0.756148 96.621 1.27331ZM193.853 1.27252C193.263 1.92301 192.617 2.20026 191.692 2.20026C191.14 2.20026 189.883 1.72004 189.413 1.32932C189.2 1.15296 188.982 1.00864 188.927 1.00864C188.873 1.00864 188.308 1.38903 187.673 1.85403C186.712 2.55788 184.688 3.89263 183.402 4.67182C183.004 4.91226 183.021 5.06135 183.469 5.27319L183.837 5.4477L183.872 15.0746L183.906 24.7014L183.57 24.9189C183.385 25.0385 183.237 25.204 183.24 25.2866C183.246 25.4182 184.978 26.8344 186.473 27.9292L186.983 28.3033L188.359 26.8896C189.116 26.1122 189.754 25.3961 189.778 25.2983C189.804 25.188 189.615 25.0662 189.281 24.9773C188.985 24.8986 188.559 24.6814 188.334 24.4949L187.926 24.1555V19.3456V14.5357L188.697 13.8645C189.121 13.4954 189.528 13.1938 189.602 13.194C189.675 13.1944 190.173 13.5559 190.707 13.9972L191.679 14.7996V19.8041C191.679 24.091 191.651 24.8324 191.478 24.9735C191.368 25.0642 191.277 25.2183 191.277 25.316C191.277 25.4139 192.037 26.1225 192.966 26.8909L194.654 28.2881L196.585 26.482C197.647 25.4887 198.516 24.631 198.516 24.5762C198.516 24.5212 198.426 24.4027 198.316 24.3127C198.152 24.1782 198.032 24.2224 197.642 24.5613C197.38 24.788 197.074 24.9735 196.961 24.9735C196.69 24.9735 196.242 24.7398 195.869 24.4043L195.567 24.1329V18.955V13.7771L196.371 12.9911C197.2 12.181 197.33 11.9157 196.964 11.7772C196.825 11.7246 196.536 11.9083 196.12 12.3122L195.488 12.9272L193.72 11.4034C192.748 10.5653 191.913 9.87961 191.865 9.87961C191.818 9.87961 190.912 10.6903 189.852 11.6812L187.926 13.4828V8.84091V4.19901L188.608 4.54842C189.514 5.01276 190.675 5.02904 191.539 4.58947C192.343 4.18061 193.58 2.99905 194.384 1.8723C194.991 1.02294 195.025 0.934891 194.811 0.77998C194.498 0.554234 194.509 0.548673 193.853 1.27252ZM114.934 1.61041C114.27 2.08256 112.898 3.01268 111.884 3.67748C110.87 4.34227 110.041 4.9635 110.041 5.05804C110.041 5.37249 110.294 5.39076 110.841 5.11537L111.382 4.84288V14.8373C111.382 24.6962 111.378 24.8337 111.113 24.9735C110.966 25.0515 110.845 25.1921 110.845 25.2862C110.845 25.4245 111.874 26.2569 114.415 28.1753C114.515 28.2505 115.134 27.7199 116.225 26.6234C117.137 25.707 117.904 24.8992 117.929 24.8285C117.955 24.7577 117.905 24.616 117.819 24.5135C117.686 24.355 117.599 24.3655 117.237 24.5837C116.664 24.9286 116.478 24.9097 115.822 24.4403L115.261 24.0395L115.299 13.3402L115.336 2.6409L115.728 2.08163C115.944 1.77406 116.232 1.46384 116.367 1.39234C116.563 1.28894 116.584 1.20936 116.473 1.00308C116.395 0.860481 116.289 0.745688 116.236 0.747939C116.184 0.75019 115.597 1.13839 114.934 1.61041ZM164.131 1.61041C163.468 2.08256 162.096 3.01268 161.082 3.67748C160.068 4.34227 159.238 4.9635 159.238 5.05804C159.238 5.37249 159.492 5.39076 160.038 5.11537L160.579 4.84288V14.8373C160.579 24.6962 160.575 24.8337 160.311 24.9735C160.163 25.0515 160.043 25.1921 160.043 25.2862C160.043 25.4245 161.071 26.2569 163.613 28.1753C163.712 28.2505 164.331 27.7199 165.422 26.6234C166.334 25.707 167.101 24.8992 167.127 24.8285C167.152 24.7577 167.103 24.616 167.016 24.5135C166.883 24.355 166.796 24.3655 166.434 24.5837C165.862 24.9282 165.675 24.9097 165.023 24.4431L164.467 24.045L164.467 13.6192C164.468 6.98383 164.518 3.01758 164.604 2.71014C164.679 2.44441 164.972 1.9908 165.255 1.70216C165.648 1.30297 165.742 1.12529 165.649 0.960577C165.581 0.841415 165.483 0.745688 165.432 0.747939C165.38 0.75019 164.795 1.13839 164.131 1.61041ZM134.061 1.52316C133.718 2.12572 133.685 2.84824 133.974 3.40089C134.136 3.71005 134.143 3.80379 134.008 3.84073C132.157 4.34412 131.221 4.74133 131.221 5.02308C131.221 5.12358 131.547 5.25889 132.021 5.35568C132.532 5.46001 133.026 5.67384 133.392 5.94924C134.11 6.49037 138.092 10.7735 138.034 10.9427C138.01 11.0116 136.876 11.7102 135.513 12.4951C134.149 13.28 133.016 14.0148 132.994 14.1281C132.971 14.2445 133.102 14.4008 133.294 14.4872L133.634 14.6404V19.1237V23.607L133.299 23.7578C133.115 23.8408 132.967 23.9843 132.971 24.077C132.981 24.316 138.144 28.2174 138.451 28.2174C138.775 28.2174 145.958 23.505 145.963 23.2888C145.965 23.1996 145.786 23.0342 145.565 22.9213L145.163 22.7159V18.1218V13.5278L145.996 12.6971C146.784 11.9123 146.817 11.854 146.6 11.6392C146.382 11.4245 146.334 11.4469 145.717 12.0464L145.065 12.6808L141.789 9.12862C138.316 5.36389 136.23 3.01851 135.244 1.76995C134.914 1.35116 134.578 1.00864 134.499 1.00864C134.419 1.00864 134.222 1.24021 134.061 1.52316ZM23.4426 1.26272C23.4426 1.5736 22.056 2.85036 21.401 3.1427C20.7703 3.42432 20.515 3.4565 19.0189 3.44392C17.4975 3.43094 17.1519 3.37864 15.2654 2.87604C11.5167 1.8772 10.157 1.64073 8.49568 1.69872C7.29255 1.74069 6.86613 1.81338 6.17938 2.09368C4.2411 2.88505 2.43862 4.33155 1.22893 6.06642C0.566033 7.01693 -0.0766175 8.1499 0.00743386 8.21941C0.0310272 8.23901 0.174464 8.31845 0.326078 8.39617C0.5722 8.52235 0.64794 8.46131 1.03026 7.83015C1.67613 6.76365 2.5582 5.94262 3.55167 5.48345C4.42958 5.07777 4.43762 5.07671 6.19587 5.14992C7.66308 5.21109 10.0803 5.57388 10.8242 5.84464C10.9253 5.88132 10.2315 6.2968 9.28257 6.76788C4.28266 9.2499 1.69543 12.8241 1.37558 17.6914C1.12021 21.5767 3.00714 25.3385 6.25123 27.4112C8.28347 28.7098 9.97536 29.1481 12.5523 29.0441C14.3671 28.9707 15.4883 28.7092 16.807 28.0516C18.939 26.9884 20.9913 24.9661 22.3352 22.6045C22.7878 21.8091 22.8024 21.7478 22.5774 21.5853C22.364 21.4312 22.2765 21.4953 21.7686 22.1766C20.8948 23.349 19.8607 24.2671 18.7843 24.8261L18.4826 24.9828V15.7906V6.59828L19.0524 6.37597C20.6158 5.7656 22.1599 4.40887 23.4653 2.49817C24.1097 1.55493 24.1357 1.48502 23.9048 1.31833C23.6189 1.11178 23.4426 1.0906 23.4426 1.26272ZM104.08 3.09398C103.733 3.51277 103.15 4.11573 102.784 4.43402C102.418 4.75232 102.137 5.08359 102.159 5.17018C102.181 5.25677 102.812 5.90766 103.562 6.61668L104.926 7.90588L106.276 6.54253C107.019 5.79274 107.627 5.14847 107.627 5.11073C107.628 5.01395 104.893 2.33266 104.793 2.33266C104.749 2.33266 104.428 2.67519 104.08 3.09398ZM200.761 3.71601C200.043 4.46885 199.456 5.13589 199.457 5.19838C199.46 5.32867 202.116 7.82816 202.249 7.82591C202.297 7.82512 202.933 7.21752 203.662 6.47567L204.987 5.12689L203.566 3.72978C202.784 2.96131 202.127 2.33597 202.106 2.33995C202.086 2.34392 201.48 2.96317 200.761 3.71601ZM297.674 3.10894C297.331 3.53991 296.745 4.14525 296.371 4.45415C295.998 4.76318 295.71 5.08253 295.732 5.16383C295.754 5.24512 296.385 5.89641 297.134 6.61099L298.496 7.91038L299.848 6.56213C300.592 5.82068 301.201 5.16965 301.201 5.1155C301.201 5.00825 298.571 2.4219 298.401 2.36219C298.344 2.34207 298.017 2.6781 297.674 3.10894ZM13.1715 6.45184C13.7701 6.60556 14.3405 6.75464 14.4389 6.78298C14.5373 6.81144 14.1151 7.19925 13.5006 7.64492C12.0513 8.69593 11.5534 9.16503 11.1985 9.81341C10.9153 10.3307 10.907 10.4946 10.8416 16.8969C10.7916 21.7887 10.7321 23.5241 10.6073 23.7395C10.5153 23.8984 10.2535 24.1595 10.0255 24.3197L9.61114 24.6112L8.56552 23.5604C7.39095 22.3799 6.74173 21.2624 6.25512 19.5835C6.00176 18.7095 5.95805 18.2486 5.96864 16.5659C5.97937 14.8793 6.03353 14.3842 6.32764 13.2818C6.89106 11.1711 8.00009 9.23189 9.38553 7.93501C9.8767 7.47518 11.7748 6.18041 11.965 6.17551C12.0299 6.17379 12.5728 6.29812 13.1715 6.45184ZM17.5443 16.0396V25.2449L17.1998 25.3741C17.0103 25.4454 16.1929 25.561 15.3832 25.6311C13.6732 25.7793 12.1458 25.6346 11.0166 25.2172L10.2716 24.942L10.7242 24.6744C13.015 23.3202 14.222 22.3751 14.6349 21.6127C14.9251 21.0769 14.9314 20.9535 14.9999 14.3813C15.0491 9.64962 15.116 7.5905 15.2285 7.33761C15.3706 7.01852 15.4706 6.97523 16.1643 6.93233C16.5916 6.90598 17.0767 6.87314 17.2427 6.85937L17.5443 6.83435V16.0396ZM79.2087 8.55227C81.285 11.3723 81.7559 13.2204 80.9442 15.3629C80.7995 15.7449 80.4708 16.2999 80.2139 16.5965C79.7214 17.1648 78.6158 17.9562 78.3145 17.9562C78.1693 17.9562 78.1363 16.9757 78.1363 12.6601C78.1363 9.7472 78.1815 7.36502 78.2368 7.36634C78.2922 7.36767 78.7295 7.90125 79.2087 8.55227ZM42.3597 12.1941C40.4881 13.5331 38.8902 14.6944 38.8089 14.7748C38.7008 14.8815 38.7783 15.0118 39.0949 15.2566L39.529 15.5921V19.6657V23.7394L39.1939 23.8902C39.0095 23.9732 38.8587 24.117 38.8587 24.2099C38.8587 24.4931 43.9175 28.3172 44.1278 28.193C44.4431 28.0066 49.583 23.4724 49.583 23.3806C49.583 23.3326 49.4773 23.2001 49.3484 23.0864C49.1314 22.8948 49.0084 22.9673 47.7062 24.0534C46.9321 24.6992 46.2471 25.2298 46.1839 25.2329C46.052 25.2391 45.2984 24.6763 44.1873 23.7419L43.4165 23.0936V21.7311V20.3687L46.9039 18.2198C48.822 17.0378 50.4232 16.0198 50.4622 15.9574C50.5012 15.8951 49.5804 14.4744 48.4159 12.8004C46.84 10.535 46.2302 9.75714 46.0306 9.75833C45.8831 9.75912 44.2312 10.8553 42.3597 12.1941ZM151.091 12.2239C149.062 13.6629 147.581 14.801 147.579 14.9227C147.577 15.0385 147.727 15.2011 147.911 15.284L148.246 15.4348V19.6116V23.7885L147.911 23.9143C147.727 23.9835 147.578 24.1161 147.581 24.2089C147.585 24.3482 152 27.8367 152.622 28.1926C152.756 28.2689 153.403 27.7816 154.851 26.516C158.658 23.1888 158.379 23.4747 158.142 23.1404C157.935 22.8484 157.929 22.8516 156.48 24.0428C155.681 24.7003 154.981 25.2383 154.925 25.2383C154.869 25.2383 154.218 24.7574 153.479 24.1697L152.134 23.1012V21.7439V20.3867L155.685 18.2116C157.638 17.0152 159.237 15.9733 159.237 15.8962C159.24 15.613 155.071 9.81261 154.837 9.77448C154.7 9.7521 153.12 10.785 151.091 12.2239ZM318.663 12.2298C316.656 13.6498 315.152 14.8023 315.148 14.9227C315.145 15.0385 315.293 15.2011 315.477 15.284L315.813 15.4348V19.6112V23.7876L315.474 23.94C315.288 24.0238 315.156 24.1566 315.181 24.235C315.229 24.3852 320.217 28.2851 320.356 28.2814C320.401 28.2802 321.688 27.1829 323.216 25.843C325.957 23.44 325.992 23.4029 325.763 23.1248C325.532 22.8431 325.529 22.845 324.057 24.0412C323.246 24.7005 322.508 25.2122 322.418 25.1783C322.328 25.1444 321.707 24.6847 321.04 24.1567L319.826 23.1968L319.864 21.7378L319.901 20.2788L323.353 18.1594C325.252 16.9937 326.805 15.9693 326.805 15.8827C326.805 15.572 322.616 9.7472 322.393 9.7472C322.272 9.7472 320.593 10.8644 318.663 12.2298ZM101.894 11.5048C100.345 13.0386 100.265 13.1429 100.482 13.3566C100.698 13.5705 100.727 13.5685 100.992 13.3221L101.274 13.061L102.172 13.7974L103.07 14.5337V19.6182V24.7026L102.729 24.9234C102.541 25.0449 102.406 25.2199 102.427 25.3123C102.449 25.4049 103.307 26.1238 104.335 26.9101L106.203 28.3398L107.989 26.4968C109.528 24.9084 109.748 24.6278 109.585 24.4665C109.422 24.3051 109.329 24.3292 108.916 24.6402C108.487 24.9637 108.393 24.9857 108.005 24.8522C107.767 24.7704 107.434 24.575 107.265 24.4182L106.958 24.1329V18.7381V13.3433L107.789 12.6116C108.615 11.885 108.619 11.878 108.368 11.6038L108.115 11.3277L107.473 11.9518L106.832 12.576L106.527 12.3201C106.36 12.1794 105.672 11.5726 104.999 10.9719C104.327 10.3712 103.722 9.87961 103.656 9.87961C103.59 9.87961 102.797 10.611 101.894 11.5048ZM119.913 11.5489C119.014 12.8199 118.751 13.2894 118.808 13.516C118.936 14.0186 119.988 14.8697 120.609 14.9734C121.559 15.132 121.957 14.9555 123.025 13.9001C123.568 13.3638 124.043 12.9249 124.079 12.9249C124.116 12.9249 124.533 13.206 125.007 13.5495L125.868 14.1743L125.83 15.3701L125.792 16.5659L124.962 16.667C122.323 16.988 120.068 18.4246 119.069 20.4208C118.658 21.2425 118.578 21.5534 118.52 22.5564C118.383 24.9217 119.425 26.8192 121.397 27.7983C122.595 28.3928 122.465 28.4348 124.191 26.8947C125.737 25.5161 125.766 25.4981 126.045 25.7304C126.201 25.8603 126.916 26.4937 127.634 27.1381L128.939 28.3096L130.81 26.5615C132.433 25.0455 132.661 24.782 132.531 24.5762C132.389 24.3521 132.352 24.3573 131.877 24.6678C131.275 25.0613 131.007 25.0081 130.268 24.3487L129.747 23.8834V18.6139V13.3443L130.551 12.6255C131.349 11.9119 131.353 11.9048 131.084 11.664C130.818 11.4265 130.801 11.432 130.286 11.9289L129.76 12.4366L128.345 11.1581C127.567 10.4549 126.885 9.88159 126.83 9.88398C126.775 9.88636 126.494 10.122 126.204 10.4076C125.914 10.6934 125.32 11.1155 124.882 11.3457C124.23 11.6889 123.98 11.7526 123.496 11.6986C122.695 11.6094 121.919 11.0776 121.623 10.4156C121.492 10.1207 121.318 9.87961 121.238 9.87961C121.159 9.87961 120.562 10.6309 119.913 11.5489ZM168.548 11.4384C166.452 13.665 166.543 13.5452 166.748 13.7887C166.902 13.9722 166.969 13.9501 167.343 13.5926C167.92 13.0395 168.372 13.0818 169.125 13.7589L169.427 14.0303V19.1682V24.3061L168.909 24.567C167.783 25.1344 166.745 26.7055 166.745 27.8437C166.745 28.4161 166.997 28.4077 167.381 27.8227C167.715 27.3121 168.175 27.039 168.924 26.905L169.427 26.8151V29.9412C169.427 33.149 169.398 33.3493 168.859 33.934C168.604 34.211 168.628 34.5065 168.905 34.5065C168.978 34.5065 169.806 33.9852 170.744 33.348C171.683 32.7108 172.945 31.8617 173.548 31.4612C174.152 31.0607 174.647 30.7032 174.648 30.6668C174.65 30.6304 174.595 30.5133 174.526 30.4069C174.419 30.2387 174.337 30.2439 173.909 30.4456C173.637 30.5735 173.39 30.6538 173.36 30.624C173.33 30.5942 173.322 29.8778 173.343 29.0319L173.381 27.494L174.285 27.9093L175.19 28.3245L176.296 27.5732C179.966 25.0814 181.545 23.9611 181.593 23.8168C181.622 23.7269 181.491 23.5833 181.301 23.4977L180.955 23.3422V18.5597V13.7771L181.756 12.994C182.515 12.2528 182.546 12.1978 182.335 11.9679C182.122 11.7348 182.087 11.7501 181.479 12.341C180.734 13.0661 180.987 13.1684 178.828 11.2698C177.999 10.5416 177.273 9.92886 177.214 9.90821C177.155 9.88742 176.332 10.5877 175.385 11.4643C174.438 12.341 173.627 13.0133 173.583 12.9584C173.538 12.9035 173.277 12.5785 173.002 12.2362C172.486 11.5936 170.421 9.87961 170.162 9.87961C170.082 9.87961 169.355 10.5811 168.548 11.4384ZM199.225 11.5015C197.706 13.0096 197.605 13.1415 197.785 13.3791C197.975 13.6303 197.983 13.6296 198.292 13.3435L198.606 13.0522L199.499 13.861L200.393 14.6695V19.6292V24.5889L200.058 24.8956C199.873 25.0645 199.723 25.2603 199.723 25.3308C199.723 25.4451 203.197 28.162 203.461 28.2543C203.519 28.2747 204.36 27.4623 205.33 26.449C206.802 24.9103 207.061 24.5804 206.899 24.4477C206.744 24.3202 206.612 24.3593 206.232 24.6459C205.681 25.0607 205.329 25.027 204.693 24.4983L204.28 24.1555V18.7678V13.3799L205.082 12.5968C205.84 11.8556 205.871 11.8006 205.66 11.5707C205.447 11.3376 205.411 11.3531 204.799 11.9493C204.057 12.6708 204.316 12.7677 202.37 11.0401C201.651 10.4018 201.016 9.87961 200.96 9.87961C200.904 9.87961 200.123 10.6095 199.225 11.5015ZM209.744 10.5085C209.492 10.8544 208.937 11.6341 208.509 12.2411L207.731 13.3447L208.119 13.8962C208.569 14.5357 209.481 15.0433 210.181 15.0433C210.815 15.0433 211.699 14.4817 212.438 13.6098C212.757 13.2331 213.079 12.9249 213.152 12.9249C213.225 12.9249 213.641 13.2017 214.077 13.5403L214.871 14.1555V15.3318C214.871 16.1614 214.821 16.5208 214.703 16.5514C214.611 16.5752 214.023 16.6908 213.396 16.8081C211.881 17.0917 210.273 17.8804 209.303 18.8152C207.523 20.5321 207.047 23.31 208.16 25.4885C208.679 26.5039 209.929 27.6427 210.931 28.0128C211.672 28.2866 211.699 28.2877 211.974 28.0499C212.129 27.9155 212.845 27.2802 213.564 26.6381L214.871 25.4705L216.027 26.5129C216.663 27.0862 217.39 27.7263 217.643 27.9353L218.103 28.3152L219.931 26.5233C221.516 24.9698 221.736 24.7035 221.584 24.5225C221.426 24.335 221.367 24.3475 221.011 24.6435C220.488 25.0785 220.234 25.0601 219.539 24.5364L218.959 24.0995L218.924 18.7493L218.889 13.399L219.657 12.6327C220.369 11.9218 220.409 11.8504 220.205 11.6486C220 11.4469 219.943 11.4658 219.419 11.9092L218.853 12.3872L218.357 11.999C218.084 11.7855 217.783 11.5177 217.687 11.4038C217.591 11.2901 217.161 10.8953 216.73 10.5265L215.946 9.85617L215.26 10.4493C214.222 11.3461 213.262 11.7826 212.512 11.6991C211.786 11.6182 211.056 11.0895 210.678 10.3691C210.536 10.0999 210.371 9.87961 210.311 9.87961C210.251 9.87961 209.996 10.1627 209.744 10.5085ZM248.203 11.5556C246.904 12.9617 246.676 13.2708 246.787 13.4758C246.913 13.7092 246.937 13.7068 247.327 13.4222L247.735 13.1243L248.361 13.4694L248.987 13.8146L249.022 19.2638L249.057 24.7131L248.72 24.8645C248.535 24.9478 248.384 25.0919 248.384 25.1845C248.384 25.4111 252.139 28.2773 252.326 28.1929C252.636 28.0522 255.02 25.3426 255.02 25.1307C255.02 24.9571 254.92 24.9171 254.574 24.9514C254.264 24.9821 253.968 24.8909 253.602 24.6516L253.076 24.3078V19.3555V14.4033L253.841 13.7403C254.715 12.9831 254.612 12.9678 255.924 14.0513L256.829 14.7985V19.8036C256.829 24.091 256.8 24.8324 256.628 24.9735C256.518 25.0642 256.427 25.2114 256.427 25.3008C256.427 25.3903 257.225 26.098 258.201 26.8736L259.976 28.2838L261.742 26.5425C263.247 25.0592 263.487 24.7669 263.363 24.5699C263.227 24.3545 263.181 24.3615 262.707 24.6714C262.116 25.0578 261.755 25.0182 261.129 24.4983L260.717 24.1555V18.9741V13.7926L261.55 12.9619C262.338 12.1771 262.371 12.1188 262.154 11.904C261.936 11.6893 261.888 11.7111 261.281 12.302L260.638 12.9272L258.87 11.4034C257.898 10.5653 257.064 9.87961 257.017 9.87961C256.969 9.87961 256.152 10.6029 255.201 11.487L253.47 13.0942L252.703 12.2568C251.959 11.4443 250.09 9.87961 249.863 9.87961C249.801 9.87961 249.054 10.6338 248.203 11.5556ZM267.593 12.2332C265.514 13.5239 263.81 14.6529 263.806 14.742C263.803 14.8312 263.981 14.9966 264.202 15.1095L264.604 15.3149V19.6112V23.9075L264.193 24.1178C263.668 24.3855 263.594 24.299 266.269 26.526L268.402 28.3026L270.257 26.4743L272.111 24.6461V28.8546C272.111 33.2361 272.08 33.5082 271.52 33.9673C271.365 34.094 271.347 34.2004 271.448 34.3868C271.572 34.6149 271.753 34.5242 273.556 33.3295C277.486 30.7272 277.483 30.7297 277.299 30.4814C277.147 30.2758 277.093 30.2744 276.637 30.4622C276.365 30.5748 276.109 30.6668 276.07 30.6668C276.031 30.6668 275.999 26.7678 275.999 22.0022V13.3377L276.803 12.6385C277.597 11.9485 277.604 11.9358 277.35 11.6847C277.095 11.4335 277.082 11.4383 276.38 12.0451C275.989 12.3833 275.632 12.6601 275.588 12.6601C275.543 12.6601 274.645 12.0345 273.592 11.2698C272.539 10.5052 271.609 9.8812 271.526 9.88305C271.442 9.8849 269.673 10.9425 267.593 12.2332ZM279.643 11.5378C278.429 12.8618 278.144 13.2463 278.214 13.4652C278.295 13.716 278.321 13.7213 278.535 13.5303C278.865 13.2352 279.19 13.2711 279.706 13.6598L280.154 13.9976L280.151 19.1876L280.147 24.3777L279.421 24.9735C278.647 25.6094 278.564 25.7725 278.88 26.0323C279.047 26.1684 279.174 26.1143 279.618 25.7176C279.914 25.454 280.207 25.2383 280.27 25.2383C280.332 25.2383 281.162 25.9235 282.112 26.7608C283.063 27.5982 283.871 28.281 283.908 28.2783C283.945 28.2755 284.82 27.4963 285.852 26.5468C287.581 24.956 287.732 24.8472 287.771 25.1608C287.802 25.408 288.253 25.8732 289.421 26.8593C290.305 27.6062 291.075 28.2336 291.131 28.2535C291.187 28.2735 292.034 27.453 293.014 26.4303C294.491 24.888 294.767 24.5379 294.632 24.3773C294.492 24.211 294.4 24.2395 293.984 24.5785C293.717 24.7958 293.412 24.9735 293.307 24.9735C293.201 24.9735 292.793 24.7332 292.399 24.4396L291.683 23.9057V18.783V13.6602L292.492 12.8539C293.267 12.0815 293.291 12.0383 293.055 11.8275C292.823 11.6203 292.779 11.6314 292.309 12.0142C291.875 12.3675 291.779 12.3975 291.581 12.2427C291.455 12.1445 290.761 11.5726 290.038 10.9719C289.314 10.3712 288.679 9.87961 288.626 9.87961C288.573 9.87961 287.854 10.587 287.029 11.4518C285.696 12.8495 285.549 13.0499 285.704 13.2592C285.825 13.4232 285.907 13.4484 285.973 13.3421C286.13 13.0917 286.5 13.1666 287.166 13.584L287.796 13.9783L287.795 18.9132L287.795 23.8481L286.989 24.4911C286.059 25.2334 286.137 25.2492 284.806 24.0473L284.042 23.358V18.3606C284.042 13.5313 284.051 13.355 284.31 13.1235C284.458 12.9917 284.578 12.8122 284.578 12.7247C284.578 12.5686 281.429 9.87762 281.251 9.88173C281.201 9.88278 280.477 10.6281 279.643 11.5378ZM295.764 11.2367C293.912 13.1061 293.887 13.1394 294.098 13.3903C294.252 13.5738 294.302 13.566 294.572 13.3161L294.873 13.0366L295.724 13.7511L296.576 14.4654L296.611 19.5762L296.646 24.687L296.309 24.9486C296.124 25.0925 295.974 25.2612 295.977 25.3236C295.979 25.3859 296.836 26.0814 297.881 26.8694L299.782 28.3017L301.567 26.5251C302.864 25.2347 303.329 24.6888 303.268 24.5301C303.151 24.2286 302.983 24.2553 302.506 24.6516C302.029 25.0476 301.653 25.0088 300.966 24.493L300.531 24.1656V18.8467V13.5278L301.348 12.7129C302.094 11.9694 302.152 11.8719 302.005 11.6012C301.847 11.3088 301.835 11.3139 301.154 11.9742L300.464 12.6436L298.922 11.2659C298.074 10.5081 297.319 9.88623 297.244 9.88384C297.169 9.88146 296.503 10.4902 295.764 11.2367ZM304.656 11.5752C303.303 13.021 303.111 13.2796 303.274 13.4407C303.437 13.6018 303.513 13.5955 303.823 13.3949C304.236 13.1282 304.495 13.2015 305.193 13.781L305.625 14.1401V19.4168C305.625 24.652 305.622 24.6952 305.339 24.8914C305.177 25.0035 305.086 25.1724 305.128 25.2819C305.252 25.6003 308.881 28.2755 309.054 28.1758C309.141 28.1259 310.214 27.1968 311.439 26.1112C313.197 24.5529 313.634 24.1 313.516 23.9597C313.29 23.6905 313.193 23.7277 312.238 24.4513C311.268 25.1851 311.295 25.1839 310.216 24.5419L309.512 24.1231V18.7226V13.3221H309.794C309.95 13.3221 310.266 13.4803 310.498 13.6736C311.519 14.5244 312.818 14.7445 313.826 14.2368C314.128 14.0846 314.667 13.6721 315.023 13.3205C315.7 12.6513 317.019 10.7656 317.019 10.4663C317.019 10.1457 316.732 10.1128 316.521 10.4092C316.407 10.5706 316.065 10.8141 315.761 10.9502C314.726 11.4145 313.738 11.221 312.65 10.3402C312.337 10.0868 312.031 9.88278 311.97 9.88663C311.908 9.89046 311.348 10.4863 310.725 11.2107C310.102 11.935 309.572 12.5277 309.547 12.5277C309.522 12.5277 308.825 11.9329 307.999 11.206C307.172 10.4791 306.436 9.88715 306.362 9.89046C306.288 9.89377 305.521 10.6519 304.656 11.5752ZM327.846 11.571C326.504 13.005 326.301 13.2782 326.46 13.4351C326.619 13.5922 326.692 13.5875 326.956 13.4044C327.388 13.106 327.487 13.1264 328.193 13.6592L328.816 14.1287V19.414C328.816 24.5638 328.809 24.703 328.548 24.8411C328.4 24.9191 328.282 25.085 328.286 25.2098C328.293 25.5019 332.029 28.3002 332.245 28.1756C332.69 27.9189 336.725 24.2311 336.725 24.0811C336.725 23.6761 336.293 23.7974 335.443 24.4406C334.458 25.1859 334.487 25.1845 333.407 24.5419L332.703 24.1231V18.7226V13.3221H333.018C333.191 13.3221 333.447 13.4497 333.587 13.6057C333.997 14.06 335.11 14.5109 335.825 14.5124C336.659 14.5141 337.395 14.1381 338.246 13.2749C338.955 12.5571 340.21 10.7614 340.21 10.4663C340.21 10.1227 339.907 10.1173 339.626 10.456C338.766 11.4911 337.052 11.4144 335.746 10.2825C335.476 10.0479 335.204 9.8763 335.143 9.90092C335.081 9.92555 334.588 10.4522 334.047 11.0712C333.505 11.6902 332.986 12.279 332.894 12.3796C332.754 12.5318 332.467 12.3373 331.188 11.2211C330.343 10.4832 329.599 9.88212 329.535 9.8853C329.471 9.88848 328.711 10.647 327.846 11.571ZM139.921 12.8783L141.141 14.2879V19.8335C141.141 24.5644 141.113 25.3899 140.946 25.4529C140.826 25.4986 140.131 25.0111 139.132 24.1804L137.513 22.834L137.551 17.5993L137.589 12.3648L138.114 11.9166C138.403 11.6701 138.653 11.4684 138.67 11.4684C138.686 11.4684 139.249 12.1028 139.921 12.8783ZM270.498 13.8592L272.111 15.0585V19.3669V23.6752L271.422 24.2912C271.044 24.63 270.655 24.9532 270.558 25.0094C270.443 25.0761 270.055 24.8331 269.437 24.3082L268.492 23.5046V18.1707C268.492 15.2369 268.532 12.7968 268.581 12.7484C268.75 12.5819 268.889 12.6624 270.498 13.8592ZM45.2194 14.9704C45.9991 16.0954 46.6711 17.1036 46.7128 17.2109C46.7665 17.3491 46.3073 17.7155 45.136 18.4688L43.4836 19.5316L43.4475 16.3963C43.4114 13.2482 43.4324 12.9249 43.672 12.9249C43.7435 12.9249 44.4398 13.8453 45.2194 14.9704ZM154.111 15.1433L155.62 17.3508L153.91 18.4539L152.201 19.5569L152.165 16.409C152.145 14.6776 152.158 13.1854 152.194 13.093C152.348 12.6963 152.687 13.0583 154.111 15.1433ZM321.644 15.0742C322.455 16.2543 323.118 17.2636 323.118 17.3169C323.118 17.3704 322.38 17.8914 321.476 18.4748L319.834 19.5356V16.2302C319.834 13.6732 319.872 12.9253 320.002 12.9266C320.094 12.9276 320.833 13.8939 321.644 15.0742ZM176.327 14.2686L177.068 14.9375V20.2041C177.068 26.2582 177.1 26.0939 176.055 25.3061C175.296 24.7337 174.943 24.5513 174.018 24.2526L173.314 24.0254V19.16V14.2944L174.076 13.6845L174.839 13.0743L175.212 13.337C175.418 13.4815 175.919 13.9007 176.327 14.2686ZM125.859 21.0082V24.7222L125.394 24.914C124.229 25.3951 123.305 24.9146 122.756 23.5422C122.373 22.5835 122.32 20.2968 122.663 19.5353C123.097 18.5741 124.075 17.7538 125.189 17.4179C125.89 17.2066 125.859 17.0431 125.859 21.0082ZM214.871 20.9853C214.871 25.1489 214.915 24.9746 213.827 25.067C212.955 25.141 212.459 24.8094 211.97 23.8262C211.612 23.1062 211.586 22.9455 211.586 21.4648C211.586 19.6491 211.741 19.1838 212.631 18.3313C213.089 17.8915 214.239 17.3201 214.703 17.301C214.833 17.2957 214.871 18.1169 214.871 20.9853Z" fill="#C3C5D6"/>
</svg>
