<svg width="87" height="37" viewBox="0 0 87 37" fill="none" xmlns="http://www.w3.org/2000/svg">
<path fill-rule="evenodd" clip-rule="evenodd" d="M65.8657 0.0395122C62.7895 0.424871 60.2783 2.73872 59.6497 5.76695C59.5624 6.18756 59.5569 6.9337 59.5569 18.4503C59.5569 29.9536 59.5625 30.7135 59.6494 31.1322C60.1964 33.7664 62.1815 35.8993 64.7697 36.6333C65.8098 36.9282 65.7346 36.9258 73.1462 36.9074C79.8286 36.8908 79.9487 36.8887 80.4113 36.783C81.091 36.6276 81.4866 36.4891 82.1361 36.179C84.4681 35.0654 85.9828 32.8657 86.1862 30.297C86.2538 29.4445 86.2538 7.45615 86.1862 6.60365C86.045 4.81933 85.3262 3.29636 84.0333 2.04147C83.0494 1.08662 81.8572 0.453397 80.4157 0.120063C79.9443 0.0110887 79.8908 0.0102165 73.094 0.00103276C69.1128 -0.00435437 66.0874 0.0117557 65.8657 0.0395122ZM10.3996 4.44844C6.80633 4.64145 3.97034 5.88465 2.27105 8.01154C1.01869 9.57909 0.306086 11.5125 0.0525933 14.0306C-0.0176008 14.728 -0.0174962 20.9423 0.0526978 21.6387C0.417466 25.256 1.78539 27.8082 4.20659 29.3885C5.25202 30.0708 6.74951 30.6661 8.10045 30.9363C9.5326 31.2228 9.9994 31.2505 13.3794 31.2505C16.7506 31.2505 17.2308 31.2222 18.6362 30.9404C22.6184 30.142 25.2941 27.706 26.2926 23.9702C26.7069 22.42 26.7647 21.7947 26.7964 18.5219C26.8315 14.8934 26.7617 13.7291 26.417 12.201C25.9615 10.1814 25.065 8.51295 23.7516 7.23995C23.0949 6.6035 22.4378 6.15621 21.4546 5.67619C19.8744 4.90486 18.4303 4.56552 16.214 4.4449C15.1414 4.38651 11.5112 4.38872 10.3996 4.44844ZM74.8125 5.34681C76.3107 5.57938 77.6667 6.24943 78.7698 7.30213C80.2078 8.67446 80.9204 10.2927 80.9229 12.191C80.9243 13.3434 80.7199 14.2049 80.1983 15.2437C79.6714 16.2931 78.8799 17.1612 77.6796 18.0062C77.327 18.2545 77.0517 18.4786 77.0679 18.5042C77.0841 18.5299 77.4159 18.7843 77.8055 19.0696C78.567 19.6274 79.1726 20.1932 79.5489 20.6984C81.4079 23.1946 81.3959 26.4382 79.5187 28.8932C78.5537 30.1551 77.0541 31.1122 75.3921 31.5267C74.5954 31.7253 74.2246 31.7385 69.4497 31.7385H64.8097V29.0715V26.4044L69.4757 26.3907L74.1415 26.3771L74.4875 26.2099C75.4747 25.7328 75.8716 24.6765 75.413 23.7466C75.023 22.9558 74.3039 22.3515 72.163 21.0152C71.5078 20.6063 70.7965 20.1377 70.5824 19.974L70.1932 19.6764V18.5012V17.326L70.546 17.0473C70.74 16.894 71.4632 16.4052 72.1532 15.961C73.741 14.9388 74.2435 14.5677 74.7725 14.0269C75.3374 13.4491 75.5914 12.9643 75.5924 12.4611C75.5933 12.0081 75.5162 11.7544 75.2654 11.3858C75.028 11.0368 74.6994 10.7866 74.2955 10.6472C74.0239 10.5535 73.8061 10.5492 69.4105 10.5492H64.8097V7.90692V5.26467H69.5467C73.6345 5.26467 74.3561 5.2759 74.8125 5.34681ZM17.4882 7.99768C18.1277 8.11579 18.6953 8.26904 19.1176 8.43773C21.0095 9.19352 22.0413 10.8251 22.3185 13.4993C22.3585 13.8852 22.3702 15.3775 22.3556 18.2194C22.3352 22.1936 22.3294 22.4001 22.2234 22.9449C21.8279 24.9762 20.949 26.3207 19.5468 27.0393C19.0646 27.2865 18.3164 27.5197 17.5872 27.6501C16.9816 27.7584 16.8349 27.7623 13.4055 27.7623C10.1785 27.7623 9.80094 27.7536 9.30315 27.6673C7.50503 27.3557 6.34466 26.7019 5.55653 25.5562C4.97088 24.7048 4.58515 23.5076 4.44314 22.1004C4.37055 21.3812 4.37232 14.2802 4.44524 13.5467C4.55541 12.4387 4.82041 11.4431 5.20488 10.6923C5.46605 10.1822 5.65578 9.91827 6.05886 9.50433C6.94196 8.5974 8.1223 8.12533 10.0343 7.91431C10.1349 7.90323 11.7578 7.89979 13.6407 7.90677C16.4489 7.91713 17.1404 7.93345 17.4882 7.99768ZM34.5212 9.78134C33.6302 9.96527 32.8633 10.4502 32.3966 11.1248C31.9071 11.8324 31.6255 12.6088 31.5193 13.5436C31.4821 13.8714 31.4636 16.9091 31.4636 22.7067V31.3794H33.5014H35.5393L35.5529 22.591C35.5658 14.2769 35.5716 13.7951 35.6592 13.6638C35.814 13.432 35.974 13.4773 36.2108 13.8199C36.3229 13.9822 38.499 17.3996 41.0464 21.4141C43.5939 25.4287 45.7968 28.8859 45.9418 29.0969C46.5632 30.0007 47.358 30.8119 47.9914 31.1885C49.0995 31.8474 50.9555 31.9085 52.1873 31.3265C52.9372 30.9722 53.4365 30.4671 53.8336 29.6607C54.109 29.1015 54.2293 28.6869 54.3059 28.0328C54.3354 27.7806 54.3558 24.0436 54.356 18.8223L54.3564 10.0361H52.3184H50.2805L50.2669 18.8589C50.2545 27.0116 50.2469 27.6882 50.1664 27.7672C50.0276 27.9034 49.836 27.8184 49.605 27.518C49.4914 27.3702 47.3244 23.9593 44.7893 19.9382C42.2542 15.9171 40.0211 12.4077 39.8267 12.1397C38.7974 10.7199 37.934 10.038 36.8391 9.78036C36.2547 9.64286 35.1898 9.64327 34.5212 9.78134Z" fill="#C3C5D6"/>
</svg>
